<svg width="320" height="798" viewBox="0 0 320 798" fill="none" xmlns="http://www.w3.org/2000/svg">
<g clip-path="url(#clip0_374_75)">
<path d="M130.733 502.944H112.444V589.177H130.733V502.944ZM121.589 493.811C126.644 493.811 130.733 489.711 130.733 484.633C130.733 479.566 126.644 475.466 121.589 475.466C116.533 475.466 112.444 479.566 112.444 484.633C112.444 489.711 116.533 493.811 121.589 493.811ZM142.955 165.144L155.633 232.833H144.544L148.289 238.866C149.433 240.711 151.444 241.833 153.611 241.833H157.578V244.3H225.678V241.833H229.644C231.822 241.833 233.822 240.711 234.967 238.866L238.711 232.833H227.622L240.311 165.144V165.133H243.244V150.978H141.467V165.133H142.967L142.955 165.144ZM307.189 256.4H11.7332V420.689H307.189V256.4ZM307.189 432.789H11.7332V597.066H175.855V480.033H199.567V597.066H307.189V432.789ZM307.189 609.166H11.7332V773.444H163V662.7H190.955V773.444H224.522V657.111H250.711V773.444H307.189V609.166ZM319.244 244.3V785.544H306.111L303.8 792.322C302.678 795.644 299.567 797.877 296.067 797.877H266.589C263.089 797.877 259.978 795.644 258.844 792.322L256.544 785.544H126.767L124.456 792.322C123.333 795.644 120.222 797.877 116.722 797.877H87.2444C83.7444 797.877 80.6333 795.644 79.5 792.322L77.2 785.544H-0.333496V244.3H319.244ZM249.467 595.9L199.567 488.566L227.878 475.333L277.767 582.666L249.467 595.9Z" fill="#E95F52"/>
<path d="M163 671.8H137.211V773.444H163V671.8ZM273.467 641.478H250.711V773.444H273.467V641.478ZM273.467 773.444H307.189V654.889H273.467V773.444ZM307.189 289.8H273.467V420.689H307.189V289.8ZM163 289.8H129.278V420.689H163V289.8ZM129.278 279.667H105.967V420.689H129.278V279.667ZM105.967 597.067H74.7334V478.644H105.967V597.067Z" fill="#17292F"/>
<path d="M145.211 519.056H167.844V579.111C168.078 578.833 168.3 578.556 168.533 578.289C168.844 577.922 169.2 577.578 169.522 577.222C170.478 577.978 170.689 578.933 170.067 579.8C169.489 580.611 168.722 580.589 167.844 580.1V587.3H145.211V519.056ZM156.533 485.067C162.778 485.067 167.844 490.144 167.844 496.422C167.844 502.689 162.778 507.767 156.533 507.767C150.278 507.767 145.211 502.689 145.211 496.422C145.211 490.144 150.278 485.067 156.533 485.067ZM8.65557 419.611C8.86668 419.822 9.03335 419.989 9.21113 420.156C8.86669 420.333 8.52224 420.567 8.15557 420.644C8.03335 420.667 7.82224 420.333 7.64446 420.156C7.98891 419.978 8.32224 419.789 8.65557 419.611ZM10.2334 368.067C10.0667 368.056 9.83335 368.111 9.71113 368.022C8.93335 367.444 8.94446 365.9 9.75557 365.478C9.87779 365.4 10.1445 365.422 10.2667 365.511C11.0556 366.089 11.0222 367.611 10.2334 368.067ZM3.21112 361.533C3.13335 361.444 3.57779 360.644 3.82224 360.622C4.51113 360.567 5.46668 360.244 5.80001 361.133C6.02224 361.722 5.87779 362.467 5.80001 363.133C5.7889 363.333 5.47779 363.489 5.30001 363.667C4.5889 362.967 3.84446 362.289 3.21112 361.533ZM7.42224 707.267C7.60001 707.433 7.94446 707.644 7.91113 707.767C7.83335 708.133 7.60001 708.467 7.42224 708.811C7.25557 708.644 7.07779 708.467 6.86668 708.267C7.04446 707.933 7.24446 707.6 7.42224 707.267ZM180.256 717.8C180.133 717.833 179.911 717.489 179.744 717.322C180.089 717.133 180.422 716.956 180.756 716.767C180.956 716.978 181.133 717.156 181.311 717.322C180.956 717.489 180.622 717.722 180.256 717.8ZM175.344 717.589C175.422 717.222 175.656 716.9 175.833 716.544C176.011 716.722 176.178 716.9 176.389 717.1C176.211 717.422 176.022 717.756 175.833 718.1C175.656 717.922 175.322 717.722 175.344 717.589ZM1.26668 704.189C1.42224 704.078 1.81112 704.078 1.92224 704.189C2.04446 704.3 1.95557 704.622 1.95557 704.856C1.64446 705.1 1.17779 705.6 1.04446 705.533C0.111127 704.978 0.744459 704.544 1.26668 704.189ZM2.85557 702.744C3.04446 702.922 3.37779 703.178 3.34446 703.233C3.15557 703.567 2.92224 703.9 2.63335 704.144C2.4889 704.256 2.08891 704.256 1.97779 704.144C1.85557 704.033 1.85557 703.633 1.96668 703.489C2.21113 703.189 2.55557 702.989 2.85557 702.744ZM314.033 616.456C313.944 616.822 313.711 617.144 313.533 617.5C313.367 617.322 313.189 617.144 312.978 616.944C313.156 616.622 313.344 616.278 313.533 615.944C313.711 616.122 314.056 616.322 314.033 616.456ZM8.21113 611.989C7.90001 612.233 7.43335 612.733 7.31113 612.667C6.36668 612.122 7.01112 611.678 7.52224 611.322C7.67779 611.211 8.06668 611.211 8.1889 611.333C8.30001 611.444 8.21113 611.767 8.21113 611.989ZM8.23335 611.278C8.12224 611.167 8.11112 610.767 8.23335 610.633C8.46668 610.333 8.82224 610.122 9.12224 609.878C9.30001 610.056 9.63335 610.311 9.60001 610.378C9.41113 610.711 9.1889 611.044 8.8889 611.278C8.75557 611.4 8.35557 611.4 8.23335 611.278ZM303.367 608.978C303.011 609.156 302.678 609.389 302.311 609.467C302.178 609.489 301.967 609.156 301.8 608.978C302.144 608.811 302.478 608.578 302.844 608.5C302.978 608.467 303.189 608.811 303.367 608.978ZM1.16668 609.756C1.00001 609.411 0.755572 609.078 0.677793 608.722C0.644459 608.589 1.00001 608.389 1.16668 608.211C1.35557 608.544 1.54446 608.878 1.72224 609.211C1.52224 609.411 1.34446 609.589 1.16668 609.756ZM283.8 790.844C283.633 790.667 283.456 790.489 283.244 790.289C283.422 789.967 283.622 789.622 283.8 789.289C283.978 789.467 284.322 789.667 284.289 789.8C284.211 790.167 283.978 790.489 283.8 790.844ZM306.267 784.1C306.056 784.3 305.889 784.478 305.711 784.644C305.533 784.3 305.3 783.967 305.222 783.611C305.189 783.478 305.533 783.278 305.711 783.1C305.9 783.433 306.089 783.778 306.267 784.1ZM308.067 766.844C308.4 766.678 308.744 766.444 309.111 766.367C309.233 766.333 309.444 766.678 309.622 766.844C309.278 767.022 308.933 767.256 308.567 767.333C308.444 767.356 308.233 767.022 308.067 766.844ZM248.6 782.322C248.933 782.144 249.278 781.956 249.6 781.778C249.811 781.989 249.989 782.156 250.156 782.322C249.811 782.5 249.478 782.733 249.111 782.811C248.978 782.833 248.767 782.5 248.6 782.322ZM241.556 776.911C241.367 776.578 241.178 776.233 241 775.911C241.211 775.711 241.378 775.533 241.556 775.367C241.733 775.711 241.956 776.033 242.044 776.4C242.067 776.533 241.733 776.744 241.556 776.911ZM188.356 776.911C188.178 776.567 187.944 776.233 187.867 775.867C187.833 775.744 188.178 775.533 188.356 775.367C188.522 775.711 188.756 776.033 188.844 776.4C188.867 776.533 188.522 776.744 188.356 776.911ZM88.2778 778.322C88.2556 778.189 88.6 777.989 88.7667 777.811C88.9556 778.144 89.1445 778.489 89.3333 778.811C89.1222 779.022 88.9445 779.189 88.7667 779.367C88.6 779.022 88.3556 778.689 88.2778 778.322ZM185.378 728.756C185.044 728.578 184.7 728.344 184.456 728.056C184.344 727.922 184.344 727.522 184.467 727.411C184.589 727.289 184.978 727.289 185.122 727.4C185.422 727.644 185.633 727.989 185.878 728.278C185.7 728.467 185.444 728.789 185.378 728.756ZM308.067 732.8C308.233 732.622 308.444 732.289 308.567 732.311C308.933 732.4 309.278 732.622 309.622 732.8C309.444 732.967 309.278 733.144 309.067 733.356C308.744 733.167 308.4 732.978 308.067 732.8ZM181.011 729.967C181.044 730.1 180.7 730.3 180.522 730.478C180.356 730.133 180.122 729.8 180.044 729.433C180.011 729.311 180.356 729.1 180.522 728.933C180.7 729.278 180.933 729.6 181.011 729.967ZM310.178 762.756C309.967 762.544 309.8 762.378 309.622 762.2C309.967 762.033 310.3 761.8 310.667 761.722C310.8 761.689 311.011 762.033 311.189 762.2C310.844 762.389 310.511 762.578 310.178 762.756ZM211.044 223.6C211.389 223.433 211.722 223.2 212.089 223.122C212.222 223.089 212.433 223.433 212.611 223.6C212.256 223.767 211.922 224 211.556 224.089C211.422 224.111 211.211 223.767 211.044 223.6ZM219.644 227.467C219.822 227.822 220.056 228.144 220.133 228.511C220.167 228.633 219.822 228.844 219.644 229.022C219.478 228.667 219.233 228.344 219.156 227.978C219.133 227.844 219.478 227.644 219.644 227.467ZM211.044 198.833C211.389 198.667 211.722 198.433 212.089 198.356C212.222 198.322 212.433 198.667 212.611 198.833C212.256 199.011 211.922 199.233 211.556 199.322C211.422 199.344 211.211 199.011 211.044 198.833ZM302.578 430.222C302.411 429.878 302.178 429.544 302.1 429.178C302.067 429.056 302.411 428.844 302.578 428.678C302.756 429.022 302.989 429.344 303.067 429.711C303.1 429.844 302.756 430.044 302.578 430.222ZM293.744 427.678C293.567 428 293.378 428.344 293.189 428.678C293.022 428.5 292.678 428.289 292.7 428.167C292.789 427.8 293.022 427.478 293.189 427.122C293.367 427.3 293.544 427.478 293.744 427.678ZM309.856 260.967C310.033 260.644 310.222 260.311 310.4 259.967C310.578 260.144 310.922 260.356 310.9 260.478C310.811 260.844 310.578 261.178 310.4 261.522C310.233 261.344 310.056 261.178 309.856 260.967ZM316.889 353.056C317.1 353.267 317.278 353.433 317.444 353.611C317.1 353.778 316.767 354.011 316.4 354.089C316.267 354.122 316.056 353.778 315.889 353.611C316.222 353.422 316.567 353.244 316.889 353.056ZM318.011 453.656C318.333 453.844 318.667 454.022 319.011 454.211C318.833 454.378 318.622 454.722 318.5 454.689C318.133 454.611 317.789 454.378 317.444 454.211C317.622 454.044 317.789 453.867 318.011 453.656ZM189.911 190.322C189.744 190.156 189.4 189.944 189.422 189.822C189.511 189.456 189.744 189.122 189.911 188.778C190.089 188.944 190.267 189.122 190.478 189.322C190.3 189.656 190.1 189.989 189.911 190.322ZM212.611 188.778C212.367 188.778 212.144 188.778 211.9 188.778C211.667 188.478 211.156 188.011 211.222 187.889C211.778 186.956 212.233 187.589 212.589 188.1C212.7 188.256 212.611 188.544 212.611 188.778ZM193.133 252.178C193.3 252.478 193.156 252.956 193.156 253.356C192.811 254 192.356 255.233 192.1 255.2C190.844 255 190.256 253.978 190.622 252.8C190.889 251.989 189.378 250.1 191.767 250.478C192.311 250.567 192.767 251.544 193.133 252.178ZM297.322 255C297.2 255.078 296.933 255.1 296.8 255.033C296 254.6 295.989 253.067 296.767 252.478C296.889 252.4 297.122 252.456 297.289 252.444C298.078 252.889 298.111 254.411 297.322 255ZM312.456 266.667C312.544 266.778 312.489 267.011 312.5 267.178C312.044 267.956 310.5 267.989 309.922 267.211C309.822 267.089 309.811 266.822 309.878 266.7C310.322 265.911 311.867 265.889 312.456 266.667ZM156.789 249.633C156.922 250.322 156.833 251.067 156.833 251.789C156.589 251.789 156.289 251.867 156.122 251.778C155.133 251.189 155.122 250.278 155.422 249.333C155.478 249.133 155.856 248.822 155.9 248.844C156.233 249.067 156.733 249.311 156.789 249.633ZM224.344 600.467C225.467 601.5 225.467 602.533 224.344 603.567C223.211 602.533 223.211 601.5 224.344 600.467ZM310.4 592.733C309.278 591.7 309.278 590.667 310.4 589.633C311.533 590.667 311.533 591.7 310.4 592.733ZM4.4889 515.6C4.62224 515.533 4.8889 515.556 5.01112 515.633C5.7889 516.222 5.76668 517.733 4.97779 518.189C4.80001 518.178 4.57779 518.233 4.45557 518.144C3.66668 517.567 3.6889 516.033 4.4889 515.6ZM109.856 782.056C109.944 782.167 109.889 782.4 109.9 782.578C109.444 783.344 107.9 783.378 107.322 782.6C107.233 782.478 107.211 782.211 107.278 782.089C107.711 781.3 109.278 781.278 109.856 782.056ZM178.478 756.289C178.389 756.167 178.367 755.9 178.433 755.767C178.878 754.989 180.433 754.967 181.011 755.744C181.1 755.856 181.044 756.089 181.056 756.256C180.611 757.033 179.056 757.067 178.478 756.289ZM189.144 766.844C188.089 767.956 187.044 767.956 186 766.844C187.044 765.744 188.089 765.744 189.144 766.844ZM206.056 427.622C206.133 427.744 206.144 428.089 206.089 428.122C205.678 428.344 205.233 428.5 204.822 428.667C204.044 428.733 203.278 428.533 203.511 427.667C203.733 426.833 205.467 426.844 206.056 427.622ZM121.856 430.989C120.811 432.1 119.767 432.1 118.711 430.989C119.767 429.889 120.811 429.889 121.856 430.989ZM8.91113 296.067C9.00001 296.189 8.94446 296.411 8.96668 296.589C8.50001 297.367 6.95557 297.4 6.37779 296.622C6.2889 296.5 6.26668 296.233 6.34446 296.1C6.77779 295.322 8.33335 295.289 8.91113 296.067ZM315.889 480.522C314.833 481.633 313.8 481.633 312.744 480.522C313.8 479.411 314.833 479.411 315.889 480.522ZM313.344 461.433C313.433 461.356 314.244 461.789 314.267 462.033C314.322 462.722 314.656 463.667 313.756 463.989C313.156 464.211 312.4 464.067 311.722 464C311.533 463.978 311.367 463.667 311.189 463.5C311.9 462.8 312.578 462.067 313.344 461.433ZM309.878 436.889C310.767 436.189 311.744 436 312.456 436.944C313.1 437.8 312.878 438.767 312 439.478C311.289 438.633 310.122 438.144 309.878 436.889ZM314.633 423.178C314.122 422.644 313.589 422.133 313.111 421.567C312.878 421.278 312.756 420.9 312.578 420.533C313.511 419.844 314.478 419.622 315.189 420.589C315.811 421.456 315.589 422.422 314.633 423.178ZM312.833 523.078C313.322 523.1 313.822 523.089 314.311 523.089C314.311 523.578 314.3 524.067 314.322 524.556C314.4 525.833 313.678 526.233 312.533 526.178C311.689 526.144 311.222 525.689 311.189 524.856C311.133 523.722 311.533 523 312.833 523.078ZM180.467 759.856C181.567 761.267 184.2 762.078 182.156 764.556C181.056 763.156 178.422 762.333 180.467 759.856ZM214.211 192.122C214.456 192.933 215.089 193.622 215.556 194.378C215.133 194.578 214.722 194.9 214.3 194.933C213.867 194.967 213.411 194.689 212.789 194.511C212.789 192.633 212.789 190.7 212.789 188.4C214.644 189.656 213.889 191.022 214.211 192.122ZM181.467 725.244C180.444 724.644 179.344 724.156 178.278 723.622C182.311 721.878 184.133 723 184.444 727.422C182.911 727.389 182.522 725.856 181.467 725.244ZM295.567 424C295.533 423.589 295.889 423.156 296.044 422.789C297.278 423.3 298.6 423.678 299.7 424.378C300.122 424.656 300.378 425.822 300.144 426.311C299.911 426.767 298.767 427.244 298.322 427.056C297 426.478 295.689 425.667 295.567 424ZM317.778 514.289C316.567 515.578 315.311 516.844 314.167 518.022C313.222 518.022 312.456 518.022 311.689 518.022C314.956 513.633 314.978 513.644 316.956 513.4C317.144 513.378 317.356 513.633 317.556 513.767C317.644 513.944 317.833 514.233 317.778 514.289ZM177.744 752.089C177.489 752.189 176.922 751.644 176.578 751.311C175.522 750.322 174.511 749.289 173.489 748.278C174.756 746.967 176.133 747.778 177.478 747.467C178.789 750.433 182.722 750.178 184.278 752.978C184.233 753.033 184.122 753.244 183.944 753.389C183.767 753.533 183.522 753.689 183.311 753.678C181.344 753.622 180.056 751.2 177.744 752.089ZM315.056 735.322C315.167 735.2 315.311 734.956 315.4 734.989C315.633 735.044 315.844 735.2 316.078 735.322C315.956 735.444 315.844 735.567 315.711 735.711C315.5 735.578 315.289 735.456 315.056 735.322ZM315.056 650.211C315.289 650.078 315.5 649.944 315.711 649.822C315.844 649.967 315.956 650.089 316.078 650.211C315.844 650.333 315.633 650.489 315.4 650.556C315.311 650.567 315.167 650.333 315.056 650.211ZM316.078 391.589C315.844 391.711 315.633 391.878 315.4 391.933C315.311 391.944 315.178 391.711 315.056 391.589C315.289 391.467 315.5 391.311 315.744 391.256C315.822 391.222 315.956 391.467 316.078 391.589ZM319.111 648.033C318.889 648.156 318.667 648.289 318.456 648.411C318.322 648.267 318.211 648.144 318.089 648.033C318.322 647.9 318.544 647.744 318.778 647.689C318.856 647.656 318.989 647.9 319.111 648.033ZM8.3889 466.878C8.61112 466.767 8.82224 466.6 9.05557 466.544C9.14446 466.522 9.27779 466.767 9.3889 466.878C9.16668 467 8.94446 467.167 8.71113 467.222C8.63335 467.244 8.50001 467 8.3889 466.878ZM8.8889 460.889C8.76668 460.644 8.64446 460.4 8.52224 460.178C8.66668 460.033 8.77779 459.911 8.8889 459.789C9.00001 460.033 9.14446 460.267 9.20001 460.522C9.22224 460.611 9.00001 460.756 8.8889 460.889ZM71.6 595.833C71.6556 595.578 71.8111 595.344 71.9222 595.1C72.0334 595.222 72.1445 595.344 72.2778 595.489C72.1667 595.722 72.0445 595.956 71.9222 596.189C71.8111 596.078 71.5889 595.922 71.6 595.833ZM10.2556 651.467C10.1111 652.056 9.00001 652.033 8.61112 651.489C8.55557 651.411 8.55557 651.167 8.5889 651.133C8.85557 650.989 9.13335 650.878 9.41113 650.756C9.91112 650.711 10.4111 650.844 10.2556 651.467ZM315.056 450.511C315.733 449.733 316.411 449.733 317.089 450.511C316.411 451.3 315.733 451.3 315.056 450.511ZM215.478 424.878C214.756 424.144 214.756 423.411 215.478 422.689C216.2 423.411 216.2 424.144 215.478 424.878ZM209.922 422.144C209.244 422.933 208.578 422.933 207.9 422.144C208.578 421.356 209.244 421.356 209.922 422.144ZM115.811 786.778C115.533 787.333 114.522 787.356 114.144 786.8C114.089 786.722 114.122 786.556 114.111 786.433C114.411 785.889 115.4 785.867 115.778 786.411C115.844 786.5 115.856 786.689 115.811 786.778ZM234.178 425.411C234.856 424.633 235.533 424.633 236.2 425.411C235.533 426.2 234.856 426.2 234.178 425.411ZM165.456 200.622C164.433 201.533 163.411 201.533 162.389 200.622C163.411 199.711 164.433 199.711 165.456 200.622ZM115.367 790.544C115.222 790.011 114.978 789.544 114.989 789.078C115 788.378 115.7 788 116.411 788.278C116.611 788.344 116.867 788.856 116.811 788.922C116.4 789.456 115.922 789.933 115.367 790.544ZM109.9 779.522C109.956 778.7 110.356 778.311 111.156 778.422C111.678 778.5 111.933 778.867 111.933 779.5C111.933 780.333 111.478 780.756 110.689 780.6C110.178 780.489 109.844 780.211 109.9 779.522ZM85.6 249.556C85.0667 250.5 84.5222 250.256 84.0556 250.267C82.9222 250.3 81.8 250.278 80.3 250.278C81.6111 249.144 81.6111 249.144 85.6 249.556ZM171.967 667.144C172.444 667.378 172.622 667.911 172.5 668.456C172.422 668.756 172.211 669.211 172 669.267C171.533 669.389 171.022 669.322 170.522 669.3C169.733 669.267 169.333 668.778 169.489 667.967C169.589 667.411 169.856 667 170.478 667.122C170.644 667.144 170.811 667.122 170.978 667.122C171.311 667.122 171.678 667.011 171.967 667.144ZM184.644 781.156C184.189 781.644 183.733 782.144 183.278 782.622C183.167 782.611 182.989 782.644 182.944 782.578C182.511 781.9 181.533 781.633 181.622 780.578C181.656 780.267 181.767 779.844 181.978 779.711C182.844 779.144 183.422 779.756 183.967 780.422C184.178 780.678 184.411 780.9 184.644 781.156ZM253.4 601.622C252.144 601.667 252.333 600.722 252.511 599.867C253.211 599.1 254.078 599.656 254.833 599.467C255.756 600.333 256.589 601.278 257.389 602.167C256.9 602.956 256.111 602.9 255.967 602.7C255.267 601.744 254.422 601.6 253.4 601.622ZM184.644 706.956C184.422 707.067 184.2 707.233 183.967 707.289C183.878 707.311 183.744 707.067 183.633 706.956C183.856 706.822 184.078 706.667 184.311 706.611C184.4 706.589 184.533 706.822 184.644 706.956ZM180.6 733.133C180.822 733.022 181.044 732.856 181.278 732.8C181.367 732.778 181.5 733.022 181.611 733.133C181.389 733.267 181.167 733.422 180.933 733.478C180.844 733.5 180.711 733.267 180.6 733.133ZM219.022 254.1C219.244 253.978 219.467 253.811 219.7 253.756C219.778 253.733 219.911 253.978 220.022 254.1C219.811 254.233 219.589 254.356 219.378 254.489C219.244 254.344 219.133 254.211 219.022 254.1ZM216.489 183.711C216.611 183.944 216.733 184.189 216.856 184.411C216.711 184.556 216.6 184.678 216.489 184.8C216.378 184.556 216.233 184.322 216.178 184.067C216.156 183.989 216.378 183.833 216.489 183.711ZM191.711 224.7C191.778 224.811 191.778 225.078 191.711 225.167C191.633 225.244 191.422 225.178 191.267 225.178C191.111 224.967 190.789 224.633 190.833 224.556C191.189 223.889 191.478 224.344 191.711 224.7ZM187.344 673.867C187.433 673.856 187.567 674.1 187.678 674.211C187.456 674.344 187.233 674.5 187 674.556C186.911 674.578 186.778 674.344 186.667 674.211C186.889 674.1 187.111 673.933 187.344 673.867ZM314.411 268.978C314.278 269.133 314.167 269.256 314.056 269.378L314.411 268.978ZM314.556 416.144C314.678 416.378 314.8 416.611 314.922 416.844C314.778 416.989 314.667 417.111 314.556 417.233C314.444 416.989 314.3 416.756 314.244 416.5C314.222 416.411 314.444 416.267 314.556 416.144ZM307.622 257.756C307.411 257.633 307.2 257.5 306.978 257.367C307.089 257.256 307.222 257.011 307.3 257.022C307.544 257.078 307.767 257.256 307.989 257.367C307.878 257.489 307.767 257.611 307.622 257.756ZM319.111 407.956C318.889 408.089 318.667 408.222 318.456 408.344C318.322 408.2 318.211 408.078 318.089 407.956C318.322 407.833 318.544 407.678 318.778 407.611C318.856 407.589 318.989 407.833 319.111 407.956ZM279.489 251.711C279.544 251.8 279.556 252.044 279.511 252.067C279.244 252.222 278.967 252.333 278.7 252.456C278.189 252.5 277.7 252.367 277.856 251.744C277.989 251.167 279.111 251.178 279.489 251.711ZM277.811 776.956C277.822 776.833 277.789 776.678 277.844 776.589C278.222 776.044 279.233 776.067 279.511 776.622C279.556 776.711 279.544 776.9 279.489 776.989C279.111 777.533 278.111 777.511 277.811 776.956ZM318.289 491.789C318.667 491.244 319.667 491.256 319.956 491.811C320 491.911 319.978 492.089 319.922 492.178C319.544 492.722 318.556 492.7 318.256 492.156C318.267 492.033 318.233 491.867 318.289 491.789ZM90.6333 785.156C91.3111 784.367 91.9778 784.367 92.6556 785.156C91.9778 785.944 91.3111 785.944 90.6333 785.156ZM157.533 248.467C158.044 248.767 158.056 249.844 157.556 250.256C157.478 250.322 157.333 250.278 157.211 250.289C156.711 249.967 156.689 248.889 157.2 248.489C157.278 248.422 157.444 248.411 157.533 248.467ZM236.222 608.744C235.2 609.656 234.189 609.656 233.156 608.744C234.189 607.833 235.2 607.833 236.222 608.744ZM291.156 604.722C290.522 604.233 290.667 603.556 291.111 602.911C292.011 602.956 292.133 604.056 292.889 604.289C292.356 605 291.722 605.156 291.156 604.722ZM192.011 225.178C193 226.578 192.833 228.022 192.322 229.956C191.356 228.156 191.889 226.611 192.011 225.178ZM219.044 230.1C217.422 231.633 216.9 229.678 215.967 228.978C217.589 227.444 218.111 229.411 219.044 230.1ZM318.3 559.089C317 560.222 317 560.222 313.011 559.811C313.544 558.867 314.1 559.111 314.556 559.1C315.689 559.067 316.811 559.089 318.3 559.089ZM249.378 716.544C249.211 716.2 248.967 715.878 248.889 715.511C248.856 715.389 249.211 715.178 249.378 715C249.567 715.333 249.756 715.678 249.933 716C249.733 716.2 249.556 716.378 249.378 716.544ZM245.167 702.122C244.578 702.889 243.033 702.878 242.589 702.089C242.522 701.956 242.544 701.689 242.633 701.567C243.211 700.789 244.756 700.822 245.211 701.6C245.2 701.778 245.256 702 245.167 702.122ZM242.778 659.489C242.889 659.733 243.044 659.956 243.089 660.211C243.111 660.3 242.889 660.456 242.778 660.578C242.667 660.333 242.511 660.1 242.467 659.844C242.444 659.756 242.667 659.6 242.778 659.489ZM240.756 658.389C240.633 658.156 240.511 657.911 240.389 657.689C240.533 657.544 240.644 657.422 240.756 657.3C240.867 657.544 241.011 657.778 241.067 658.033C241.089 658.122 240.867 658.267 240.756 658.389ZM239 687.733C237.889 687.733 236.767 687.733 235.356 687.733C234.878 688.478 234.333 689.322 233.811 690.144C233.1 689.389 232.622 688.9 232.1 688.344C232.478 687.622 233.289 686.9 233.733 686.867C234.7 686.811 235.1 686.022 235.8 685.722C236.378 685.478 237.111 685.611 237.767 685.689C238.544 685.789 239.411 685.3 240.4 686.333C239.8 686.633 239.233 686.922 238.678 687.211C238.789 687.389 238.889 687.556 239 687.733ZM228.511 689.9C228.367 689.622 228.2 689.344 228.122 689.033C228 688.456 228.289 687.956 228.756 687.889C229.544 687.767 230.356 687.856 231.156 687.856C231.111 687.322 231.211 686.844 231.822 686.989C231.989 687.033 232.044 687.556 232.167 687.856C231.822 687.856 231.489 687.856 231.156 687.856C231.022 688.011 228.522 689.933 228.511 689.9ZM230.6 711.911C230.422 711.556 230.2 711.233 230.111 710.867C230.078 710.733 230.422 710.533 230.6 710.356C230.778 710.7 231.011 711.033 231.089 711.4C231.122 711.522 230.778 711.733 230.6 711.911ZM236.178 679.367C236.178 679.911 235.833 680.333 235.233 680.2C234.933 680.144 234.478 680.067 234.411 679.867C234.278 679.433 234.156 678.811 234.356 678.467C234.678 677.878 235.233 677.444 235.7 676.944C236.5 677.589 236.178 678.544 236.178 679.367ZM232.133 662.489C232.944 663.978 233.767 665.467 234.611 667.011C234.767 666.944 235.078 666.944 235.2 667.044C235.489 667.278 235.7 667.622 235.956 667.922C235.767 668.1 235.511 668.433 235.456 668.4C235.122 668.222 234.778 667.989 234.533 667.7C234.411 667.567 234.422 667.167 234.544 667.044C234.556 667.044 234.567 667.033 234.578 667.022C231.411 666.878 231.389 666.867 231.389 664.533C231.389 663.833 231.178 663.044 232.133 662.489ZM239.578 661.867C239.811 661.933 240.022 662.089 240.256 662.211C240.144 662.333 240.022 662.456 239.889 662.6C239.678 662.467 239.456 662.344 239.233 662.211C239.344 662.089 239.489 661.844 239.578 661.867ZM224.522 657.111V773.444H250.711V657.111H224.522ZM194.656 591.078H180.767V507.589H194.656V591.078ZM194.656 493.689C194.656 497.533 191.544 500.656 187.711 500.656C183.878 500.656 180.767 497.533 180.767 493.689C180.767 489.844 183.878 486.722 187.711 486.722C191.544 486.722 194.656 489.844 194.656 493.689ZM260.333 585C260.156 584.822 259.811 584.611 259.844 584.489C259.922 584.122 260.156 583.789 260.333 583.444C260.5 583.622 260.678 583.789 260.889 584C260.7 584.322 260.522 584.656 260.333 585ZM220.722 518.722L237.3 510.967L268.578 578.256L252 586.011L220.722 518.722ZM240.211 567.744C239.889 567.567 239.544 567.378 239.211 567.189C239.378 567.022 239.589 566.678 239.722 566.711C240.089 566.789 240.422 567.022 240.778 567.189C240.6 567.367 240.422 567.533 240.211 567.744ZM218.044 513.267C218.533 513.222 219.033 513.267 219.522 513.267C219.989 513.767 220.456 514.256 220.922 514.767C220.733 515.422 220.733 515.422 217.489 515.422C216.856 513.744 216.956 513.356 218.044 513.267ZM215.656 507.6C215.411 507.544 215.2 507.378 214.978 507.256C215.089 507.133 215.2 507.022 215.333 506.878C215.544 507 215.767 507.133 215.989 507.256C215.878 507.378 215.744 507.622 215.656 507.6ZM213 502.122C210.878 497.533 212.856 492.067 217.433 489.933C222.011 487.789 227.456 489.778 229.589 494.367C231.722 498.967 229.744 504.422 225.156 506.567C220.589 508.711 215.144 506.722 213 502.122ZM252.022 532.878C252.611 532.089 254.144 532.122 254.611 532.9C254.6 533.078 254.644 533.3 254.556 533.422C253.978 534.189 252.422 534.167 251.989 533.389C251.911 533.256 251.933 532.989 252.022 532.878ZM255.578 540.922C255.844 540.778 256.133 540.667 256.4 540.544C256.9 540.5 257.4 540.633 257.244 541.256C257.1 541.844 255.978 541.833 255.611 541.278C255.544 541.189 255.544 540.956 255.578 540.922ZM227.878 475.333L199.567 488.567L249.456 595.9L277.767 582.667L227.878 475.333ZM99.5 589.178H81.2V514.922H99.5V589.178ZM99.5 496.622C99.5 501.689 95.4111 505.8 90.3556 505.8C85.3 505.8 81.2 501.689 81.2 496.622C81.2 491.556 85.3 487.444 90.3556 487.444C95.4111 487.444 99.5 491.556 99.5 496.622ZM239.944 152.978C239.122 152.811 238.8 152 238.244 151.5C238.711 150.889 239.344 150.733 239.9 151.189C240.522 151.678 240.389 152.367 239.944 152.978ZM157.856 152.067C157.744 151.822 157.589 151.589 157.533 151.333C157.522 151.244 157.744 151.1 157.856 150.978C157.978 151.211 158.1 151.456 158.211 151.678C158.078 151.822 157.967 151.944 157.856 152.067ZM143.7 160.8C143.589 160.678 143.478 160.556 143.344 160.411C143.456 160.178 143.578 159.945 143.7 159.7C143.811 159.822 144.033 159.978 144.022 160.067C143.967 160.322 143.811 160.556 143.7 160.8ZM173.522 170.067C172.856 170.856 172.178 170.856 171.5 170.067C172.178 169.289 172.856 169.289 173.522 170.067ZM207.122 179.489C207.322 179.822 207.5 180.167 207.689 180.489C207.478 180.689 207.3 180.867 207.122 181.033C206.956 180.689 206.722 180.367 206.644 180C206.611 179.867 206.956 179.667 207.122 179.489ZM244.567 150.778H138.7C136.989 150.778 135.6 152.178 135.6 153.889V162.022C135.6 163.744 136.989 165.133 138.7 165.133H142.956V165.144L145.789 180.222C151.922 179.967 154.978 187.311 161.044 188.267C167.256 189.244 172.256 183.344 178.222 181.344C184.344 179.3 190.956 181.533 197.233 183.022C203.522 184.511 211.011 184.911 215.544 180.289C217.711 178.078 219.056 174.811 221.944 173.678C225.178 172.422 228.678 174.433 231.556 176.367C233.056 177.378 236.167 178.178 237.667 179.189L239.778 168L152.756 165.244C152.933 165.367 153.067 165.611 153.222 165.8C152.967 165.956 152.722 166.189 152.444 166.233C152.178 166.267 151.867 166.133 151.6 166.022C151.467 165.978 151.344 165.811 151.289 165.667C151.211 165.444 151.211 165.289 151.267 165.2L150 165.156C149.6 165.156 149.2 165.156 148.789 165.156C147.633 164.289 147.189 162.311 145.1 163.044C145.744 161.422 146.656 162.044 147.356 161.9C147.467 161.878 150.978 164.844 151.256 165.144H151.344C151.411 165.1 151.511 165.1 151.644 165.144H152.156C152.2 165.133 152.233 165.144 152.267 165.144H240.311V165.133H244.567C246.278 165.133 247.667 163.744 247.667 162.022V153.889C247.667 152.178 246.278 150.778 244.567 150.778ZM196.778 236.633C197.456 235.856 198.122 235.856 198.8 236.633C198.122 237.422 197.456 237.422 196.778 236.633ZM161.978 238.078C161.644 237.9 161.311 237.711 160.967 237.533C161.144 237.356 161.356 237.022 161.478 237.044C161.844 237.133 162.189 237.356 162.533 237.533C162.356 237.7 162.189 237.867 161.978 238.078ZM213.867 232.833H144.544L148.289 238.867C149.433 240.711 151.444 241.833 153.611 241.833H157.578V244.3H225.678V241.833H229.644C231.822 241.833 233.822 240.711 234.967 238.867L238.711 232.833H213.867Z" fill="#FABE57"/>
<path d="M224.522 773.445H190.956V648.733H224.522V773.445ZM121.589 493.811C116.533 493.811 112.445 489.711 112.445 484.633C112.445 479.567 116.533 475.467 121.589 475.467C126.645 475.467 130.733 479.567 130.733 484.633C130.733 489.711 126.645 493.811 121.589 493.811ZM130.733 589.178H112.445V502.944H130.733V589.178ZM105.967 466.667V597.067H137.211V466.667H105.967ZM105.967 420.689H74.7334V302.267H105.967V420.689ZM117.978 59.7C122.545 78.9556 134.411 91.7111 145.067 102.7C147.845 105.544 150.7 108.411 153.467 111.344C152.789 109.256 152.089 107.167 151.445 105.067C148.456 95.2889 145.867 85.2889 145.311 75.0778C144.956 68.3667 145.311 33.7222 172.767 0C171.689 9.6 174.211 20.1 176.167 29.5556C179.489 45.6 182.111 61.8 184.011 78.0889C184.311 80.6889 184.589 83.2778 184.856 85.8667C187.711 66.1778 194.311 46.7333 206.611 31.1778C207.8 38.6667 209.511 46.7667 210.7 54.2667C211.578 59.7333 212.445 65.2 213.089 70.7C224.489 50.7556 241.056 33.6667 260.367 21.1556C255.633 32.8444 249.822 45.5667 247.511 57.9667C245.233 70.2222 245.411 82.8333 243.267 95.1111C243.267 95.1556 243.256 95.1889 243.245 95.2222C246.9 92.0445 250.778 89.1 254.7 86.2556C265.722 78.2556 277.211 70.8889 289.078 64.2C285.156 99.5333 252.8 113.333 237.5 150.778H144.511C143.189 149.667 141.889 148.544 140.611 147.378C122.433 130.778 108.833 97.9556 117.978 59.7ZM156.533 507.767C150.278 507.767 145.211 502.689 145.211 496.422C145.211 490.144 150.278 485.067 156.533 485.067C162.778 485.067 167.845 490.144 167.845 496.422C167.845 502.689 162.778 507.767 156.533 507.767ZM167.845 587.3H145.211V519.056H167.845V587.3ZM137.211 474.178V597.067H175.856V474.178H137.211Z" fill="#009D39"/>
<path d="M138.278 502.967C138.456 503.311 138.689 503.633 138.767 504.011C138.789 504.133 138.456 504.344 138.278 504.511C138.1 504.167 137.878 503.833 137.789 503.478C137.756 503.344 138.1 503.144 138.278 502.967ZM138.278 479.744C138.456 480.089 138.689 480.422 138.767 480.789C138.789 480.911 138.456 481.122 138.278 481.3C138.1 480.944 137.878 480.622 137.789 480.256C137.756 480.133 138.1 479.922 138.278 479.744ZM141.178 509.378C141.511 509.556 141.856 509.744 142.189 509.922C142.022 510.1 141.811 510.433 141.678 510.411C141.311 510.333 140.978 510.1 140.622 509.922C140.8 509.756 140.978 509.589 141.178 509.378ZM145.211 519.056H167.844V579.111C168.078 578.833 168.3 578.556 168.533 578.289C168.844 577.922 169.2 577.578 169.522 577.222C170.478 577.978 170.689 578.933 170.067 579.8C169.489 580.611 168.722 580.589 167.844 580.1V587.3H145.211V519.056ZM156.533 485.067C162.778 485.067 167.844 490.144 167.844 496.422C167.844 502.689 162.778 507.767 156.533 507.767C150.278 507.767 145.211 502.689 145.211 496.422C145.211 490.144 150.278 485.067 156.533 485.067ZM146.322 483.067C146.533 483.278 146.711 483.444 146.889 483.611C146.533 483.789 146.2 484.022 145.833 484.1C145.7 484.122 145.489 483.789 145.322 483.611C145.656 483.433 146 483.244 146.322 483.067ZM164.144 479.6C164.478 479.367 165.3 479.378 165.544 479.622C165.789 479.867 165.6 480.544 165.6 481.033C164.944 481.533 163.956 482.611 163.689 482.456C161.689 481.3 163.056 480.367 164.144 479.6ZM169.678 490.911C169.944 490.978 170.044 491.767 170.233 492.222C169.678 492.222 169.122 492.222 168.578 492.222C168.522 491.422 168.678 490.7 169.678 490.911ZM137.211 597.067H175.856V474.178H137.211V597.067ZM285.367 414.744C285.2 414.4 284.956 414.067 284.878 413.7C284.844 413.578 285.2 413.367 285.367 413.2C285.556 413.533 285.744 413.867 285.922 414.2C285.722 414.4 285.544 414.578 285.367 414.744ZM126.356 386.189C126.678 386.511 126.944 386.778 127.211 387.033C126.678 387.3 126.156 387.655 125.589 387.778C125.389 387.822 125.067 387.3 124.8 387.033C125.322 386.744 125.844 386.467 126.356 386.189ZM304.144 304.855C303.956 304.522 303.767 304.178 303.589 303.855C303.8 303.655 303.978 303.478 304.144 303.311C304.322 303.655 304.556 303.978 304.633 304.344C304.667 304.478 304.322 304.678 304.144 304.855ZM106.978 283.189C106.811 282.844 106.578 282.511 106.489 282.144C106.467 282.022 106.811 281.811 106.989 281.644C107.156 281.989 107.389 282.311 107.467 282.678C107.5 282.811 107.156 283.011 106.978 283.189ZM115.033 286.067C114.7 285.878 114.367 285.689 114.022 285.511C114.2 285.344 114.411 285 114.533 285.022C114.911 285.111 115.233 285.344 115.589 285.511C115.411 285.678 115.233 285.855 115.033 286.067ZM304.933 359.8C305.278 359.633 305.611 359.4 305.978 359.322C306.111 359.289 306.322 359.633 306.5 359.8C306.144 359.967 305.811 360.2 305.444 360.278C305.311 360.311 305.1 359.967 304.933 359.8ZM274.411 346.644C274.244 346.3 274.011 345.967 273.933 345.6C273.9 345.478 274.244 345.267 274.411 345.1C274.589 345.444 274.822 345.767 274.9 346.133C274.933 346.267 274.589 346.467 274.411 346.644ZM106.978 352.833C106.8 352.489 106.578 352.155 106.489 351.8C106.467 351.667 106.8 351.455 106.978 351.289C107.156 351.633 107.389 351.967 107.467 352.333C107.5 352.455 107.156 352.667 106.978 352.833ZM75.6889 526.178C75.8556 526.522 76.0889 526.856 76.1778 527.222C76.2 527.344 75.8556 527.556 75.6889 527.733C75.5111 527.378 75.2778 527.056 75.2 526.689C75.1667 526.567 75.5111 526.356 75.6889 526.178ZM100.722 575.7C100.889 576.056 101.133 576.378 101.211 576.744C101.244 576.878 100.889 577.078 100.722 577.256C100.533 576.922 100.344 576.578 100.167 576.256C100.378 576.056 100.544 575.878 100.722 575.7ZM122.7 394.889C123.811 395.922 123.811 396.944 122.7 397.978C121.567 396.944 121.567 395.922 122.7 394.889ZM310.9 358.478C310.2 359.455 309.222 359.233 308.3 358.555C308.378 357.155 309.944 356.978 310.278 355.833C311.311 356.655 311.522 357.611 310.9 358.478ZM289.889 419.555C289.256 418.822 288.578 418.111 288.033 417.322C287.922 417.155 288.344 416.333 288.5 416.344C289.189 416.389 290.1 416.411 290.489 416.833C290.833 417.233 290.656 418.133 290.633 418.8C290.622 418.978 290.3 419.155 289.889 419.555ZM280.844 408.289C281.489 409.3 282.089 410.244 282.7 411.233C282.222 411.8 281.256 412 280.4 411.322C279.5 410.6 279.633 409.644 280.844 408.289ZM277.844 324.122C277.9 323.867 278.056 323.633 278.167 323.389C278.278 323.511 278.389 323.633 278.522 323.778C278.4 324 278.289 324.244 278.167 324.478C278.056 324.355 277.822 324.211 277.844 324.122ZM111.2 418.478C111.411 418.611 111.633 418.744 111.856 418.867C111.733 418.989 111.611 419.233 111.522 419.211C111.289 419.156 111.067 418.989 110.844 418.867C110.956 418.744 111.067 418.622 111.2 418.478ZM115.222 333.411C115.456 333.478 115.678 333.633 115.9 333.755C115.789 333.878 115.678 334 115.533 334.144C115.322 334.011 115.111 333.889 114.889 333.755C115 333.633 115.133 333.389 115.222 333.411ZM75.9667 495.8C76.0778 496.044 76.2222 496.278 76.2778 496.533C76.3 496.622 76.0778 496.767 75.9667 496.889C75.8445 496.656 75.7222 496.422 75.6 496.189C75.7445 496.044 75.8556 495.922 75.9667 495.8ZM293.844 407.955C293.822 407.255 293.789 406.533 293.856 405.833C293.878 405.667 294.267 405.5 294.5 405.422C294.578 405.4 294.8 405.633 294.822 405.778C294.878 406.122 294.844 406.489 294.844 406.844C294.844 407.2 294.922 407.578 294.811 407.889C294.744 408.089 294.411 408.233 294.167 408.311C294.1 408.333 293.856 408.089 293.844 407.955ZM109.1 376.822C108.667 376.778 108.189 376.589 107.856 376.289C107.689 376.144 107.678 375.489 107.833 375.3C108.322 374.722 108.667 373.911 109.5 373.733C110.144 374.533 109.733 375.444 109.789 376.289C109.811 376.455 109.322 376.844 109.1 376.822ZM298.911 393.622C299.467 393.411 300.078 393.244 300.633 392.955C301.044 392.722 301.378 392.344 301.6 392.144C302.856 392.055 303.122 393.144 303.8 393.611C304.011 394.833 304.1 396.055 303.733 397.289C302.8 397.7 301.744 398.011 301.033 397.111C300.133 395.967 299.844 397.6 299.222 397.433C298.556 396.233 298.978 394.967 298.911 393.622ZM287.4 390.878C287.189 390.755 286.978 390.622 286.756 390.5C286.867 390.378 287.011 390.133 287.089 390.155C287.322 390.211 287.544 390.378 287.767 390.5C287.656 390.622 287.544 390.744 287.4 390.878ZM117.922 289.022C117.244 289.8 116.578 289.8 115.9 289.022C116.578 288.233 117.244 288.233 117.922 289.022ZM305.967 292.311C305.967 291.955 305.878 291.578 305.989 291.255C306.067 291.055 306.4 290.922 306.633 290.844C306.711 290.822 306.945 291.067 306.956 291.2C306.989 291.911 307.022 292.622 306.944 293.322C306.933 293.489 306.545 293.644 306.3 293.733C306.233 293.755 306 293.522 305.978 293.378C305.933 293.033 305.967 292.667 305.967 292.311ZM268.156 719.644C268.333 719.989 268.556 720.311 268.644 720.689C268.678 720.811 268.333 721.022 268.156 721.189C267.967 720.856 267.778 720.511 267.6 720.189C267.811 719.989 267.978 719.822 268.156 719.644ZM266.589 739.767C266.767 739.933 266.933 740.111 267.144 740.311C266.967 740.633 266.778 740.978 266.589 741.311C266.411 741.133 266.078 740.933 266.1 740.8C266.189 740.433 266.411 740.111 266.589 739.767ZM269.222 698.944C269.733 699.256 269.756 700.333 269.244 700.744C269.167 700.811 268.989 700.822 268.911 700.767C268.389 700.467 268.378 699.378 268.878 698.978C268.956 698.911 269.111 698.944 269.222 698.944ZM265.522 723.322C265.3 723.444 265.089 723.6 264.844 723.656C264.767 723.678 264.622 723.444 264.511 723.322C264.733 723.2 264.956 723.033 265.189 722.978C265.267 722.956 265.411 723.2 265.522 723.322ZM254.911 648.567C255.022 648.7 255.133 648.811 255.267 648.956C255.156 649.189 255.033 649.422 254.911 649.667C254.789 649.544 254.578 649.389 254.6 649.3C254.644 649.044 254.789 648.811 254.911 648.567ZM254.911 750.056C255.033 750.289 255.156 750.533 255.267 750.756C255.133 750.9 255.022 751.022 254.911 751.144C254.789 750.9 254.644 750.667 254.6 750.411C254.578 750.322 254.789 750.178 254.911 750.056ZM270.589 658.378C270.533 659.2 270.133 659.6 269.333 659.478C268.833 659.322 268.489 659.078 268.544 658.411C268.6 657.589 269.011 657.156 269.8 657.311C270.311 657.411 270.644 657.7 270.589 658.378ZM243.244 95.2222C239.544 116.344 228.733 136.111 213.144 150.778H212.589C213.678 145.489 215.7 140.322 217.744 135.278C221.856 125.155 226.033 114.878 232.7 106.222C235.811 102.178 239.411 98.5666 243.244 95.2222ZM196.078 150.778H194.567C195.1 134.222 196.233 117.622 200.411 101.644C200.133 101.311 200.011 100.833 200.089 100.3C200.178 99.4888 200.567 99.1777 201.078 99.0555C201.089 99.0333 201.089 98.9999 201.1 98.9666C203.922 89.0777 208 79.5999 213.089 70.6999C213.667 75.5888 214.078 80.4888 214.144 85.411C214.267 93.5777 213.444 101.711 211.822 109.689C212.8 110.778 212.933 112.244 212.211 114.1C211.844 113.722 211.489 113.255 211.156 112.755C208.122 126.044 202.9 138.878 196.078 150.778ZM153.467 111.344C156.578 114.633 159.556 118.033 162.178 121.633C162.522 121.633 162.878 121.633 163.256 121.633C163.733 120.889 164.278 120.044 164.811 119.222C165.511 119.978 165.989 120.467 166.522 121.022C166.122 121.744 165.322 122.467 164.878 122.5C164.189 122.533 163.789 122.944 163.356 123.289C166.022 127.189 168.233 131.333 169.667 135.889C171.178 140.7 171.733 145.733 172.067 150.778H168.844C168.111 149.111 167.378 147.455 166.644 145.8C161.656 134.555 157.278 123.044 153.467 111.344ZM77.7333 373.467C77.6556 373.833 77.4222 374.155 77.2556 374.5C77.0778 374.333 76.9 374.155 76.6889 373.955C76.8778 373.633 77.0667 373.289 77.2556 372.955C77.4222 373.133 77.7667 373.333 77.7333 373.467ZM106.978 550.944C106.811 550.6 106.578 550.267 106.489 549.9C106.467 549.778 106.8 549.567 106.978 549.389C107.167 549.733 107.356 550.067 107.533 550.389C107.333 550.6 107.156 550.767 106.978 550.944ZM110.344 520.211C110.544 520.422 110.722 520.589 110.889 520.767C110.544 520.933 110.211 521.167 109.844 521.244C109.711 521.278 109.5 520.933 109.322 520.767C109.667 520.578 110.011 520.389 110.344 520.211ZM84.0556 392.133C84.1667 392.378 84.3111 392.611 84.3667 392.867C84.3889 392.955 84.1667 393.111 84.0556 393.222C83.9333 392.989 83.8111 392.755 83.6889 392.522C83.8222 392.378 83.9445 392.255 84.0556 392.133ZM106.656 522.378C106.533 522.611 106.411 522.844 106.3 523.078C106.178 522.967 105.956 522.811 105.978 522.722C106.033 522.467 106.178 522.233 106.3 521.989C106.411 522.111 106.522 522.233 106.656 522.378ZM80.1556 401.022C80.2889 401.167 80.4 401.289 80.5111 401.411C80.2889 401.533 80.0778 401.7 79.8333 401.755C79.7556 401.778 79.6111 401.533 79.5 401.411C79.7222 401.278 79.9445 401.144 80.1556 401.022ZM95.6778 346.855C96.3556 346.067 97.0333 346.067 97.7 346.855C97.0333 347.633 96.3556 347.633 95.6778 346.855ZM80.3222 317.578C79.9445 318.122 78.9445 318.111 78.6556 317.555C78.6111 317.455 78.6222 317.278 78.6778 317.189C79.0556 316.644 80.0556 316.667 80.3556 317.211C80.3445 317.333 80.3778 317.5 80.3222 317.578ZM100.367 339.6C100.156 339.467 99.9445 339.333 99.7222 339.211C99.8333 339.089 99.9778 338.855 100.056 338.867C100.289 338.922 100.511 339.089 100.733 339.211C100.622 339.333 100.511 339.455 100.367 339.6ZM83.5445 417.778C83.3222 417.9 83.1111 418.055 82.8667 418.111C82.7889 418.144 82.6445 417.9 82.5333 417.778C82.7556 417.655 82.9778 417.489 83.2111 417.433C83.3 417.422 83.4333 417.655 83.5445 417.778ZM83.5445 358.855C82.8667 359.633 82.2 359.633 81.5222 358.855C82.2 358.067 82.8667 358.067 83.5445 358.855ZM104.756 401.411C104.8 402.111 104.822 402.833 104.744 403.533C104.733 403.7 104.344 403.867 104.111 403.944C104.033 403.967 103.8 403.733 103.789 403.589C103.733 403.244 103.767 402.878 103.767 402.522C103.767 402.167 103.689 401.789 103.8 401.478C103.867 401.278 104.189 401.133 104.433 401.055C104.5 401.033 104.756 401.278 104.756 401.411ZM93.4222 375.733C92.9222 375.733 92.5111 375.355 92.6556 374.7C92.7222 374.378 92.7889 373.989 92.9889 373.8C93.2 373.622 93.6667 373.489 93.8556 373.611C94.5222 374.067 95.1 374.644 95.7111 375.178C95.0556 376.1 94.1778 375.744 93.4222 375.733ZM99.7 415.744C99.1445 415.955 98.5333 416.122 97.9778 416.411C97.5667 416.644 97.2222 417.033 97 417.222C95.7445 417.322 95.4889 416.222 94.8111 415.755C94.6 414.533 94.5111 413.311 94.8667 412.078C95.8 411.667 96.8556 411.355 97.5778 412.255C98.4778 413.4 98.7667 411.767 99.3889 411.933C100.044 413.133 99.6222 414.4 99.7 415.744ZM133.811 521.756C134.022 521.967 134.189 522.133 134.367 522.311C134.022 522.478 133.689 522.711 133.322 522.789C133.189 522.822 132.978 522.478 132.8 522.311C133.144 522.122 133.478 521.944 133.811 521.756ZM107.156 585.433C107.367 585.567 107.589 585.689 107.811 585.822C107.7 585.944 107.567 586.189 107.478 586.167C107.244 586.111 107.022 585.944 106.8 585.822C106.911 585.7 107.022 585.578 107.156 585.433ZM214.156 683.367C214.256 683.522 214.256 683.911 214.144 684.022C214.033 684.133 213.711 684.044 213.467 684.044C213.233 683.744 212.722 683.278 212.789 683.156C213.344 682.222 213.789 682.856 214.156 683.367ZM202.433 667.022C202.622 667.356 202.811 667.7 202.989 668.022C202.778 668.222 202.611 668.4 202.433 668.567C202.256 668.222 202.033 667.889 201.944 667.533C201.922 667.4 202.256 667.189 202.433 667.022ZM211.022 672.533C211.133 672.689 211.133 673.078 211.011 673.189C210.9 673.3 210.578 673.211 210.344 673.211C210.1 672.911 209.589 672.444 209.667 672.322C210.211 671.389 210.667 672.022 211.022 672.533ZM214.956 697.978C215.144 698.311 215.333 698.644 215.511 698.978C215.3 699.178 215.133 699.356 214.956 699.522C214.778 699.178 214.544 698.844 214.467 698.489C214.433 698.356 214.778 698.156 214.956 697.978ZM213.156 651.767C213.489 651.944 213.833 652.133 214.167 652.322C213.989 652.489 213.778 652.833 213.656 652.8C213.289 652.722 212.956 652.489 212.611 652.322C212.778 652.144 212.956 651.978 213.156 651.767ZM197.967 746.178C198.178 746.389 198.344 746.556 198.522 746.722C198.178 746.9 197.844 747.133 197.478 747.211C197.344 747.233 197.133 746.9 196.956 746.722C197.3 746.544 197.644 746.356 197.967 746.178ZM211.822 742.856C212 743.211 212.233 743.533 212.311 743.9C212.344 744.033 212 744.233 211.822 744.411C211.644 744.056 211.411 743.733 211.333 743.367C211.3 743.244 211.644 743.033 211.822 742.856ZM216.511 750.6C216.689 750.767 216.867 750.944 217.078 751.144C216.9 751.467 216.711 751.811 216.511 752.144C216.344 751.978 216 751.767 216.033 751.633C216.111 751.267 216.344 750.944 216.511 750.6ZM244.789 131.344C244.678 131.844 244.356 132.3 244.122 132.767C243.889 132.533 243.656 132.3 243.367 132.022C243.611 131.578 243.867 131.111 244.122 130.655C244.356 130.9 244.833 131.178 244.789 131.344ZM214.167 689.411C214.167 689.889 214.289 690.411 214.133 690.844C214.022 691.167 213.556 691.389 213.256 691.656C213.044 691.267 212.689 690.889 212.644 690.467C212.578 690.056 212.767 689.589 212.933 689.167C213 688.978 213.244 688.778 213.444 688.7C214.156 688.422 214.411 688.689 214.167 689.411ZM250.156 105.555C249.933 106.322 249.589 106.844 248.611 106.767C247.433 106.678 246.811 106.055 247.044 104.844C247.189 104.078 247.6 103.555 248.578 103.633C249.756 103.722 250.333 104.344 250.156 105.555ZM211.411 673.222C213.022 675.211 212.756 677.233 211.989 679.956C210.389 677.433 211.533 675.211 211.411 673.222ZM197.3 694.922C198.311 695.567 199.2 696.389 200.122 697.144C199.078 698.444 197.733 697.944 196.556 697.922C195.8 697.922 195.189 697.344 195.4 696.422C195.511 695.978 195.633 695.422 195.956 695.167C196.278 694.911 197.011 694.733 197.3 694.922ZM218.811 690.733C219.422 692.333 218.589 693.333 217.244 693.344C215.767 693.367 215.778 692.389 215.722 691.367C215.689 690.644 215.678 689.878 215.422 689.233C215.3 688.933 214.611 688.867 214.167 688.689C214.167 687.144 214.167 685.6 214.167 684.044C217.456 685.078 217.833 688.167 218.811 690.733ZM267.822 101.322C267.633 101.522 267.444 101.733 267.222 101.967C266.867 101.755 266.5 101.544 266.122 101.322C266.311 101.122 266.544 100.711 266.678 100.744C267.089 100.844 267.444 101.122 267.822 101.322ZM214.456 103.144C214.789 102.967 215.1 102.733 215.456 102.655C215.567 102.622 215.778 102.967 215.944 103.144C215.611 103.333 215.289 103.567 214.944 103.644C214.822 103.678 214.622 103.322 214.456 103.144ZM217.689 75.211C218.056 75.011 218.411 74.7444 218.8 74.6444C218.944 74.611 219.167 75.011 219.356 75.211C218.978 75.411 218.622 75.6777 218.233 75.7777C218.1 75.7999 217.867 75.411 217.689 75.211ZM201.322 755.511C201.444 755.744 201.567 755.989 201.689 756.211C201.556 756.356 201.433 756.478 201.322 756.6C201.211 756.356 201.067 756.122 201.011 755.867C200.989 755.778 201.211 755.633 201.322 755.511ZM209.489 136.244C209.878 136.044 210.244 135.767 210.644 135.667C210.778 135.633 211.011 136.044 211.2 136.244C210.822 136.444 210.456 136.733 210.056 136.822C209.911 136.855 209.689 136.444 209.489 136.244ZM234.378 65.511C234.311 65.4222 234.311 65.1777 234.356 65.1555C234.611 64.9999 234.9 64.8888 235.167 64.7666C235.667 64.7222 236.167 64.8666 236.011 65.4777C235.867 66.0666 234.756 66.0555 234.378 65.511ZM216.311 736.078C216.389 736.011 216.611 736.011 216.644 736.044C216.778 736.333 216.878 736.644 217 736.933C217.033 737.467 216.911 738.011 216.344 737.844C215.8 737.678 215.811 736.478 216.311 736.078ZM178.567 108.989C177.844 109.755 177.256 109.755 174.533 108.967C175 108.455 175.467 107.967 175.933 107.455C178.422 107.255 178.422 107.278 178.567 108.989ZM264.722 87.2222C264.567 87.0444 264.4 86.8666 264.2 86.6555C264.378 86.3222 264.556 85.9777 264.722 85.6333C264.889 85.811 265.211 86.0222 265.189 86.1555C265.111 86.5333 264.889 86.8666 264.722 87.2222ZM197.278 53.8555C197.167 53.6222 197.033 53.3777 196.922 53.1555C197.056 53.011 197.167 52.8888 197.278 52.7666C197.389 53.011 197.544 53.2444 197.6 53.4999C197.611 53.5888 197.389 53.7333 197.278 53.8555ZM129.967 107.567C130.078 107.478 130.322 107.467 130.444 107.533C131.189 107.967 131.2 109.522 130.478 110.1C130.367 110.189 130.156 110.133 129.989 110.155C129.267 109.689 129.244 108.144 129.967 107.567ZM182.3 73.2888C182.222 73.3555 181.989 73.3666 181.967 73.3222C181.833 73.0333 181.722 72.7222 181.611 72.4333C181.567 71.8999 181.7 71.3555 182.267 71.5222C182.822 71.6888 182.811 72.8888 182.3 73.2888ZM229.122 141.4C229.011 141.955 228.756 142.367 228.122 142.255C227.967 142.222 227.8 142.244 227.633 142.244C227.3 142.244 226.922 142.355 226.656 142.222C226.167 141.989 225.989 141.455 226.111 140.911C226.189 140.611 226.389 140.167 226.611 140.1C227.078 139.978 227.589 140.044 228.089 140.067C228.889 140.1 229.278 140.589 229.122 141.4ZM278.567 75.0555C278.711 74.7555 278.656 74.3666 278.767 74.0666C278.889 73.7555 279.111 73.511 279.289 73.2333C280.411 73.3777 281.589 72.8444 282.667 73.5999C281.611 75.4888 281.611 75.4888 282.589 76.7777C281.756 77.8777 280.956 78.9444 280.189 79.9444C277.222 78.0333 277.233 78.0444 278.567 75.0555ZM184.856 85.8888C186.944 106.244 187.922 126.722 187.767 147.178C187.756 148.378 187.744 149.578 187.711 150.778H184.344C183.056 130.467 181.911 110.033 184.333 89.8333C184.489 88.511 184.667 87.1999 184.856 85.8888ZM137.467 740.767C137.478 740.711 137.489 740.667 137.511 740.633C137.756 740.333 138.1 740.133 137.956 740.6C138.589 740.067 138.911 740.322 138.889 740.378C138.7 740.722 138.467 741.044 138.178 741.289C138.111 741.356 137.967 741.378 137.833 741.378C137.7 741.378 137.578 741.344 137.522 741.289C137.433 741.189 137.411 740.933 137.467 740.767ZM138.056 690.456C138.378 690.644 138.722 690.822 139.056 691.011C138.889 691.178 138.678 691.522 138.544 691.489C138.178 691.411 137.844 691.178 137.489 691.011C137.667 690.844 137.844 690.667 138.056 690.456ZM139.833 768.811C139.911 768.789 140.044 769.033 140.156 769.144C139.944 769.278 139.722 769.411 139.511 769.533C139.378 769.389 139.267 769.278 139.156 769.144C139.378 769.033 139.589 768.867 139.833 768.811ZM139.844 752.144C140.022 752.489 140.256 752.822 140.333 753.189C140.356 753.311 140.022 753.522 139.844 753.689C139.667 753.344 139.433 753.022 139.356 752.656C139.322 752.522 139.667 752.322 139.844 752.144ZM141.411 679.411C141.6 679.733 141.778 680.078 141.967 680.4C141.756 680.611 141.578 680.778 141.411 680.956C141.233 680.611 141 680.278 140.922 679.911C140.889 679.778 141.233 679.578 141.411 679.411ZM142.211 725.156C142.444 724.867 142.8 724.656 143.1 724.411C143.278 724.589 143.611 724.844 143.589 724.9C143.4 725.244 143.167 725.567 142.867 725.811C142.733 725.922 142.333 725.922 142.222 725.811C142.1 725.7 142.089 725.3 142.211 725.156ZM142.967 676.311C143.144 676.656 143.378 676.978 143.456 677.344C143.489 677.478 143.144 677.689 142.967 677.856C142.8 677.511 142.567 677.178 142.489 676.822C142.456 676.689 142.8 676.478 142.967 676.311ZM143.756 752.144C144.956 752.333 145.222 751.022 146.044 750.733C146.6 750.533 147.544 750.633 147.967 750.989C148.911 751.778 147.522 751.922 147.344 752.456C147.211 752.878 147.044 753.289 146.889 753.689C146.178 753.689 145.444 753.822 144.778 753.656C144.111 753.489 143.589 752.989 143.756 752.144C142.9 752.311 142.4 751.8 142.233 751.133C142.067 750.478 142.189 749.756 142.189 749.056C143.044 748.878 143.556 749.4 143.722 750.067C143.878 750.722 143.756 751.444 143.756 752.144ZM145.333 738.333C145.356 738.411 145.344 738.489 145.333 738.544C145.333 738.578 145.322 738.6 145.322 738.567C145.011 739.144 144.544 739.656 144.422 739.578C143.478 739.033 144.122 738.589 144.633 738.233C144.789 738.122 145.178 738.122 145.289 738.244C145.322 738.267 145.333 738.3 145.333 738.333ZM144.8 718.389C144.933 718.356 145.144 718.7 145.322 718.867C144.967 719.044 144.644 719.267 144.267 719.356C144.144 719.378 143.922 719.044 143.756 718.867C144.1 718.7 144.433 718.467 144.8 718.389ZM144.533 673.211C144.722 673.544 144.911 673.889 145.089 674.211C144.878 674.411 144.711 674.589 144.533 674.767C144.356 674.411 144.133 674.089 144.056 673.722C144.022 673.589 144.356 673.389 144.533 673.211ZM146.2 741.333C146.356 741.222 146.744 741.222 146.856 741.333C146.889 741.356 146.9 741.4 146.9 741.433C146.933 740.211 147.433 739.722 148.456 739.767C149.211 739.711 149.9 739.867 149.689 740.789C149.633 741.044 148.878 741.144 148.456 741.311C147.933 741.311 147.422 741.322 146.9 741.644C146.9 741.656 146.889 741.656 146.889 741.656C146.578 742.244 146.111 742.744 145.978 742.678C145.033 742.122 145.689 741.689 146.2 741.333ZM148.356 762.944C148.144 762.889 147.822 763 147.533 763.056C147.156 763.133 146.856 763.078 146.922 762.422C146.922 762.356 146.922 762.333 146.922 762.267C146.989 761.944 147.578 761.667 147.967 761.456C148.156 761.344 148.456 761.433 147.789 762.2C149.089 761.644 149.844 761.922 149.822 762.067C149.7 762.811 149.067 763.167 148.356 762.944ZM152.122 746.211C152.244 746.144 152.511 746.156 152.644 746.244C153.422 746.822 153.389 748.356 152.611 748.8C152.433 748.789 152.2 748.844 152.089 748.756C151.3 748.178 151.322 746.644 152.122 746.211ZM153.656 701.356C154.022 701.444 154.356 701.678 154.711 701.844C154.533 702.011 154.356 702.189 154.144 702.4C153.822 702.211 153.489 702.033 153.144 701.844C153.311 701.678 153.533 701.333 153.656 701.356ZM157.789 759.389C157.8 759.322 157.822 759.256 157.856 759.211C158.1 758.911 158.444 758.711 158.3 759.178C158.933 758.644 159.267 758.9 159.233 758.956C159.044 759.289 158.811 759.622 158.522 759.867C158.444 759.933 158.3 759.944 158.156 759.944C158.033 759.944 157.911 759.911 157.867 759.867C157.778 759.778 157.756 759.567 157.789 759.389ZM161.978 716.833C162.967 717.522 162.733 718.489 162.044 719.4C160.656 719.322 160.467 717.778 159.3 717.444C160.133 716.433 161.1 716.211 161.978 716.833ZM145.722 770.789C145.611 770.667 145.5 770.544 145.367 770.4C145.478 770.167 145.6 769.933 145.722 769.7C145.833 769.811 146.056 769.967 146.044 770.056C145.978 770.311 145.833 770.544 145.722 770.789ZM137.211 773.444H163V671.8H137.211V773.444ZM273.967 738.233C273.989 738.189 274.222 738.189 274.3 738.256C274.811 738.667 274.822 739.867 274.267 740.022C273.7 740.189 273.567 739.656 273.611 739.111C273.722 738.822 273.833 738.522 273.967 738.233ZM277.144 756.6C277.278 756.833 277.389 757.078 277.511 757.3C277.378 757.444 277.256 757.578 277.144 757.689C277.033 757.444 276.889 757.222 276.833 756.956C276.811 756.867 277.033 756.722 277.144 756.6ZM277.544 742.856C277.722 743.033 278.067 743.244 278.033 743.367C277.956 743.733 277.722 744.056 277.544 744.411C277.378 744.233 277.2 744.056 276.989 743.856C277.167 743.533 277.356 743.189 277.544 742.856ZM282.233 696.433C282.411 696.6 282.756 696.811 282.733 696.933C282.644 697.3 282.411 697.633 282.233 697.978C282.067 697.8 281.889 697.633 281.689 697.422C281.867 697.1 282.056 696.767 282.233 696.433ZM288.422 770.989C288.967 771.156 288.956 772.356 288.456 772.767C288.378 772.822 288.144 772.833 288.122 772.789C287.978 772.5 287.878 772.2 287.767 771.911C287.722 771.367 287.856 770.833 288.422 770.989ZM288.5 690.233C288.689 690.578 288.878 690.911 289.056 691.233C288.844 691.444 288.667 691.611 288.5 691.789C288.322 691.444 288.089 691.111 288.011 690.744C287.978 690.622 288.322 690.411 288.5 690.233ZM290.067 738.211C290.233 738.389 290.578 738.6 290.556 738.722C290.467 739.089 290.233 739.422 290.067 739.767C289.889 739.589 289.711 739.422 289.5 739.211C289.689 738.889 289.878 738.544 290.067 738.211ZM291.311 752.233C291.422 752.478 291.567 752.711 291.622 752.967C291.633 753.056 291.422 753.211 291.311 753.333C291.178 753.089 291.067 752.856 290.944 752.622C291.078 752.478 291.2 752.356 291.311 752.233ZM294.656 668.589C295.067 669.189 294.933 669.867 294.356 670.378C293.9 669.778 293.144 669.444 292.989 668.544C293.567 668.056 294.189 667.922 294.656 668.589ZM294.756 674.767C293.633 673.733 293.633 672.7 294.756 671.656C295.878 672.7 295.878 673.733 294.756 674.767ZM295.356 705.278C294.9 705.244 294.311 705.233 294.067 704.933C293.833 704.656 293.956 704.022 293.978 703.544C293.978 703.422 294.189 703.289 294.456 703.011C294.856 703.533 295.3 704.033 295.644 704.589C295.722 704.711 295.444 705.278 295.356 705.278ZM299.078 656.589C299.222 656 300.344 656.011 300.711 656.567C300.778 656.644 300.789 656.889 300.744 656.911C300.478 657.067 300.189 657.178 299.922 657.3C299.422 657.344 298.922 657.2 299.078 656.589ZM301.411 744.6C301.522 744.833 301.678 745.078 301.733 745.333C301.745 745.422 301.522 745.567 301.411 745.689C301.289 745.444 301.178 745.211 301.056 744.978C301.189 744.833 301.3 744.722 301.411 744.6ZM303.122 750.433C303.267 749.844 304.378 749.856 304.767 750.4C304.822 750.489 304.822 750.733 304.789 750.756C304.522 750.911 304.244 751.022 303.967 751.144C303.467 751.189 302.967 751.044 303.122 750.433ZM301.411 757.689C301.311 757.567 301.189 757.444 301.056 757.3C301.178 757.078 301.289 756.833 301.411 756.6C301.522 756.722 301.745 756.867 301.733 756.956C301.678 757.222 301.522 757.444 301.411 757.689ZM273.467 773.444H307.189V654.889H273.467V773.444ZM157.6 389.922C158.278 389.133 158.956 389.133 159.633 389.922C158.956 390.7 158.278 390.7 157.6 389.922ZM159.4 322.655C159.222 322.822 159.056 323 158.844 323.211C158.522 323.022 158.178 322.844 157.844 322.655C158.011 322.489 158.222 322.144 158.356 322.167C158.722 322.255 159.056 322.489 159.4 322.655ZM159.178 317.211C159.589 317.822 159.456 318.489 158.889 319.011C158.422 318.411 157.678 318.067 157.511 317.178C158.089 316.678 158.722 316.544 159.178 317.211ZM148.433 297.2C147.556 296.489 146.367 296.155 145.311 295.644C146.522 294.011 148.111 295.422 149.156 294.744C150.167 295.744 150.889 296.455 151.611 297.167C150.556 298.233 149.622 298.144 148.433 297.2ZM147.567 318.767C147.433 318.878 147.111 318.789 146.889 318.789C146.889 319.544 146.967 320.322 146.833 321.055C146.789 321.289 146.189 321.489 145.822 321.578C145.711 321.611 145.356 321.255 145.344 321.067C145.289 320.311 145.322 319.544 145.322 318.789C145.089 318.789 144.856 318.789 144.622 318.789C144.378 318.478 143.867 318.011 143.944 317.9C144.489 316.955 144.944 317.6 145.311 318.111C145.411 318.255 145.322 318.555 145.322 318.789C145.844 318.789 146.367 318.789 146.889 318.789C146.889 318.555 146.789 318.255 146.9 318.111C147.144 317.811 147.489 317.611 147.789 317.367C147.967 317.544 148.311 317.8 148.278 317.855C148.089 318.189 147.856 318.522 147.567 318.767ZM139.822 393.078C138.544 393.078 137.267 393.078 135.922 393.078C135.989 393.833 135.833 394.522 134.9 394.3C134.633 394.244 134.533 393.511 134.367 393.078C134.867 393.078 135.367 393.078 135.867 393.078C136.933 390.144 138.9 389.278 141.856 390.389C141.8 391.744 140.467 392.167 139.822 393.078ZM131.722 394.889C131.444 393.722 131.256 393.289 131.256 392.855C131.233 392.022 131.744 391.467 132.544 391.567C133.178 391.644 133.956 391.933 134.322 392.389C134.767 392.955 134.322 393.044 133.656 393.155C133.056 393.267 132.589 394.067 131.722 394.889ZM163 289.8H129.278V420.689H163V289.8Z" fill="#245D78"/>
</g>
<defs>
<clipPath id="clip0_374_75">
<rect width="320" height="798" fill="white"/>
</clipPath>
</defs>
</svg>