<svg width="509" height="672" viewBox="0 0 509 672" fill="none" xmlns="http://www.w3.org/2000/svg">
<path d="M254.23 1.34766C254.23 1.34766 154.566 118.371 254.23 219.672C353.887 118.371 254.23 1.34766 254.23 1.34766ZM70.0391 223.438C15.2227 249.426 1.34375 320.719 1.34375 320.719C32.9297 322.664 109.449 313.273 155.512 297.562C188.914 286.172 213.055 262.652 213.059 242.797C213.059 205.379 124.164 197.781 70.0391 223.438ZM507.109 320.719C475.531 322.664 399.008 313.273 352.945 297.562C319.547 286.172 295.402 262.652 295.402 242.797C295.395 205.379 384.289 197.781 438.414 223.438C493.23 249.426 507.109 320.719 507.109 320.719Z" fill="#285B53"/>
<path d="M251.617 602.168C187.062 602.168 134.734 549.863 134.734 485.336V386.316H368.496V485.336C368.496 549.863 316.168 602.168 251.617 602.168Z" fill="#F03673"/>
<path d="M344.699 451.973C344.699 446.93 340.598 442.828 335.551 442.828C330.508 442.828 326.406 446.93 326.406 451.973C326.406 457.012 330.508 461.113 335.551 461.113C340.598 461.113 344.699 457.012 344.699 451.973ZM368.496 428.777H134.734V431.465H368.496V428.777ZM335.551 463.801C342.078 463.801 347.387 458.492 347.387 451.973C347.387 445.445 342.078 440.141 335.551 440.141C329.027 440.141 323.715 445.445 323.715 451.973C323.715 458.492 329.027 463.801 335.551 463.801ZM293.582 463.801C300.113 463.801 305.418 458.492 305.418 451.973C305.418 445.445 300.113 440.141 293.582 440.141C287.059 440.141 281.746 445.445 281.746 451.973C281.746 458.492 287.059 463.801 293.582 463.801ZM251.617 463.801C258.145 463.801 263.453 458.492 263.453 451.973C263.453 445.445 258.145 440.141 251.617 440.141C245.09 440.141 239.777 445.445 239.777 451.973C239.777 458.492 245.09 463.801 251.617 463.801ZM209.648 463.801C216.172 463.801 221.484 458.492 221.484 451.973C221.484 445.445 216.172 440.141 209.648 440.141C203.125 440.141 197.812 445.445 197.812 451.973C197.812 458.492 203.125 463.801 209.648 463.801ZM167.68 463.801C174.207 463.801 179.52 458.492 179.52 451.973C179.52 445.445 174.207 440.141 167.68 440.141C161.152 440.141 155.844 445.445 155.844 451.973C155.844 458.492 161.152 463.801 167.68 463.801ZM368.496 472.324H134.734V475.012H368.496V472.324ZM368.496 412.105V483.336H134.734V412.105H368.496ZM302.73 451.973C302.73 446.93 298.625 442.828 293.582 442.828C288.539 442.828 284.438 446.93 284.438 451.973C284.438 457.012 288.539 461.113 293.582 461.113C298.625 461.113 302.73 457.012 302.73 451.973ZM176.832 451.973C176.832 446.93 172.723 442.828 167.68 442.828C162.637 442.828 158.531 446.93 158.531 451.973C158.531 457.012 162.637 461.113 167.68 461.113C172.723 461.113 176.832 457.012 176.832 451.973ZM260.766 451.973C260.766 446.93 256.66 442.828 251.617 442.828C246.574 442.828 242.469 446.93 242.469 451.973C242.469 457.012 246.574 461.113 251.617 461.113C256.66 461.113 260.766 457.012 260.766 451.973ZM209.648 461.113C204.605 461.113 200.504 457.012 200.504 451.973C200.504 446.93 204.605 442.828 209.648 442.828C214.691 442.828 218.793 446.93 218.793 451.973C218.793 457.012 214.691 461.113 209.648 461.113Z" fill="#F47198"/>
<path d="M254.23 499.316C254.23 499.316 353.887 382.289 254.23 280.996C154.566 382.289 254.23 499.316 254.23 499.316ZM228.949 276.105C187.805 253.621 129.965 275.656 98.4023 332C63.0234 395.152 84.3711 442.172 84.3711 442.172C119.254 429.523 175.363 386.316 204.988 347.504C233.895 309.633 228.949 276.105 228.949 276.105ZM110.504 187.395C159.914 234.043 229.789 224.996 229.789 224.996C229.789 224.996 208.074 123.648 152.523 93.5039C96.9727 63.3555 39.6836 75.0547 39.6836 75.0547C43.0234 91.125 61.0977 140.742 110.504 187.395ZM279.504 276.105C279.504 276.105 274.559 309.633 303.465 347.504C333.09 386.316 389.199 429.523 424.09 442.172C424.09 442.172 445.43 395.152 410.059 332C378.488 275.656 320.652 253.621 279.504 276.105ZM278.664 224.996C278.664 224.996 300.387 123.648 355.938 93.5039C411.484 63.3555 468.773 75.0547 468.773 75.0547C465.43 91.125 447.355 140.742 397.949 187.395C348.539 234.043 278.664 224.996 278.664 224.996Z" fill="#338463"/>
<path d="M259.852 257.461C258.547 258.414 257.309 259.445 256.125 260.535C256.934 261.391 257.703 262.281 258.426 263.203C258.82 261.23 259.309 259.316 259.852 257.461ZM257.793 266.926C257.117 265.887 256.363 264.898 255.574 263.949V267.238C256.234 267.18 256.957 267.191 257.738 267.262C257.754 267.148 257.781 267.043 257.793 266.926ZM252.883 263.961C252.09 264.91 251.34 265.891 250.664 266.938C250.68 267.047 250.699 267.152 250.719 267.262C251.504 267.191 252.219 267.18 252.883 267.238V263.961ZM250.027 263.203C250.75 262.273 251.527 261.387 252.34 260.531C251.152 259.434 249.906 258.406 248.602 257.445C249.145 259.312 249.633 261.23 250.027 263.203ZM508.055 321.676C507.793 321.934 507.449 322.062 507.109 322.062C506.762 322.062 506.414 321.926 506.152 321.66C495.734 311.047 485.27 301.836 474.899 293.809L483.426 320.562C483.652 321.27 483.266 322.027 482.555 322.254C482.418 322.293 482.281 322.316 482.145 322.316C481.578 322.316 481.047 321.953 480.867 321.383L471.164 290.957C457.274 280.562 443.594 272.32 430.473 265.766L446.789 316.688C447.016 317.395 446.625 318.152 445.918 318.379C445.785 318.418 445.645 318.441 445.508 318.441C444.941 318.441 444.41 318.078 444.231 317.508L427.121 264.117C405.238 253.594 385.039 247.777 368.184 244.629L395.008 307.934C395.293 308.617 394.973 309.402 394.293 309.691C394.117 309.766 393.938 309.797 393.766 309.797C393.242 309.797 392.746 309.492 392.527 308.977L365.02 244.07C364.152 243.918 363.285 243.77 362.434 243.633C345.828 241.004 331.406 240.668 320.254 241.16L335.961 270.32C334.789 270.008 333.625 269.738 332.453 269.48L317.285 241.316C305.344 242.031 297.738 243.645 296.074 244.023C295.914 244.109 295.742 244.176 295.555 244.195C295.254 244.23 277.582 246.375 263.445 255.043C262.227 258.594 261.238 262.387 260.606 266.383C260.922 266.895 261.223 267.422 261.504 267.957C265.871 269.078 271.766 271.422 280.004 274.855C280.16 274.918 289.481 278.68 303.391 286.812L361.277 279.66C362.016 279.555 362.688 280.09 362.777 280.828C362.871 281.566 362.344 282.234 361.609 282.328L307.156 289.055C312.691 292.414 318.816 296.406 325.297 301.066C325.305 301.066 325.309 301.07 325.313 301.074C330.027 304.461 334.918 308.195 339.906 312.301C341.75 313.82 343.633 315.406 345.539 317.066L397.082 311.367C397.813 311.293 398.484 311.812 398.566 312.555C398.649 313.293 398.117 313.957 397.375 314.039L348.266 319.469C353.906 324.504 359.77 330.168 365.664 336.457C365.84 336.566 365.969 336.719 366.074 336.895C372.363 343.629 378.68 351.109 384.805 359.324C384.961 359.242 385.145 359.188 385.336 359.18L422.102 357.215C422.844 357.172 423.481 357.738 423.516 358.48C423.555 359.227 422.984 359.855 422.246 359.898L386.633 361.805C392.09 369.312 397.363 377.438 402.309 386.18C402.496 386.363 402.633 386.59 402.691 386.859C405.777 392.352 408.723 398.078 411.496 404.066L430.488 404.332C431.234 404.344 431.828 404.953 431.813 405.691C431.805 406.434 431.203 407.023 430.473 407.023C430.461 407.023 430.457 407.023 430.449 407.023L412.727 406.773C417.602 417.645 421.902 429.309 425.383 441.816C425.582 442.531 425.164 443.27 424.445 443.469C424.324 443.5 424.203 443.516 424.09 443.516C423.496 443.516 422.953 443.129 422.793 442.535C417.547 423.684 410.426 406.758 402.254 391.637L398.274 428.109C398.199 428.797 397.617 429.309 396.938 429.309C396.891 429.309 396.84 429.309 396.793 429.301C396.055 429.219 395.52 428.559 395.598 427.82L399.996 387.551C389.621 369.191 377.738 353.625 365.891 340.664L357.797 400.59C357.766 400.832 357.652 401.035 357.516 401.215C361.156 404.141 364.824 407.008 368.496 409.746V439.855L324.621 386.316H339.977C344.941 390.801 350.059 395.164 355.242 399.391L363.524 338.105C354.82 328.836 346.207 320.973 338.274 314.438C333.977 310.898 329.754 307.645 325.656 304.645L317.863 363.27C317.774 363.941 317.195 364.434 316.535 364.434C316.473 364.434 316.414 364.43 316.356 364.426C315.617 364.324 315.102 363.648 315.195 362.914L323.18 302.855C298.543 285.238 279.242 277.445 279.012 277.355C279.004 277.355 279 277.352 279 277.352C278.992 277.344 278.988 277.352 278.988 277.344C272.465 274.625 267.133 272.469 262.977 271.188C264.301 274.598 265.063 278.387 265.063 282.598V293.035C264.18 291.965 263.297 290.898 262.371 289.832V282.598C262.371 278.328 261.512 274.535 260.039 271.137C259.926 272.625 259.852 274.125 259.852 275.66V277.809C259.902 278.816 259.934 279.867 259.934 280.996C259.934 282.309 259.934 284.387 259.941 287.086C259.91 287.055 259.875 287.02 259.852 286.988C259 286.047 258.129 285.105 257.246 284.168C257.219 284.137 257.188 284.102 257.16 284.07V277.949C256.977 274.715 256.469 272.625 255.574 271.41V317.496L293.203 341.414C293.828 341.812 294.012 342.645 293.621 343.27C293.363 343.672 292.926 343.895 292.481 343.895C292.234 343.895 291.984 343.824 291.762 343.684L255.574 320.684V384.152L296.453 410.121C297.078 410.52 297.266 411.348 296.867 411.973C296.609 412.379 296.172 412.598 295.731 412.598C295.484 412.598 295.234 412.531 295.012 412.387L255.574 387.336V449.418L276.035 466.445C276.609 466.918 276.684 467.762 276.211 468.332C275.941 468.652 275.559 468.816 275.176 468.816C274.871 468.816 274.566 468.719 274.313 468.508L255.574 452.918V499.32C255.574 500.062 254.969 500.664 254.231 500.664C253.484 500.664 252.883 500.062 252.883 499.32V425.574L220.066 437.867C219.91 437.926 219.75 437.949 219.594 437.949C219.047 437.949 218.531 437.621 218.332 437.078C218.07 436.387 218.422 435.609 219.121 435.352L252.883 422.707V355.359L210.832 373.949C210.652 374.027 210.469 374.066 210.289 374.066C209.77 374.066 209.281 373.766 209.055 373.262C208.754 372.586 209.059 371.793 209.742 371.492L252.883 352.422V271.41C251.984 272.625 251.477 274.715 251.297 277.949V284.07C251.266 284.102 251.238 284.137 251.207 284.168C250.324 285.105 249.453 286.047 248.609 286.988C248.578 287.02 248.547 287.055 248.512 287.086C248.52 284.387 248.52 282.309 248.52 280.996C248.52 279.867 248.555 278.816 248.609 277.809V275.66C248.609 274.125 248.535 272.629 248.418 271.145C246.941 274.543 246.082 278.332 246.082 282.598V289.832C245.156 290.898 244.274 291.965 243.391 293.035V282.598C243.391 278.387 244.16 274.598 245.477 271.188C241.328 272.469 235.996 274.625 229.465 277.344C229.465 277.352 229.461 277.344 229.461 277.352C229.453 277.352 229.449 277.355 229.449 277.355C229.219 277.445 209.91 285.238 185.274 302.855L193.258 362.914C193.352 363.648 192.836 364.324 192.102 364.426C192.039 364.43 191.981 364.434 191.922 364.434C191.258 364.434 190.68 363.941 190.59 363.27L182.797 304.645C178.699 307.645 174.477 310.898 170.18 314.438C162.25 320.973 153.633 328.836 144.938 338.105L153.215 399.402C158.395 395.176 163.512 390.801 168.477 386.316H191.922L134.734 441.484V413.574C140.152 409.684 145.582 405.547 150.953 401.23C150.809 401.047 150.695 400.836 150.656 400.59L142.566 340.664C130.715 353.625 118.836 369.191 108.461 387.551L112.856 427.82C112.934 428.559 112.402 429.219 111.66 429.301C111.613 429.309 111.566 429.309 111.516 429.309C110.836 429.309 110.254 428.797 110.18 428.109L106.203 391.637C98.0274 406.758 90.9102 423.684 85.6602 442.535C85.5001 443.129 84.9571 443.516 84.3712 443.516C84.2501 443.516 84.129 443.5 84.0079 443.469C83.2931 443.27 82.8712 442.531 83.0704 441.816C86.5509 429.309 90.8595 417.645 95.7345 406.773L78.0079 407.023C77.9962 407.023 77.9923 407.023 77.9884 407.023C77.2501 407.023 76.6524 406.434 76.6407 405.691C76.6329 404.953 77.2267 404.344 77.9649 404.332L96.9571 404.066C99.7306 398.078 102.684 392.352 105.766 386.859C105.82 386.59 105.957 386.363 106.145 386.18C111.09 377.438 116.367 369.312 121.828 361.805L86.2071 359.898C85.4688 359.855 84.8985 359.227 84.9376 358.48C84.9806 357.738 85.6251 357.18 86.3556 357.215L123.117 359.18C123.313 359.188 123.492 359.242 123.656 359.324C129.774 351.109 136.09 343.629 142.379 336.895C142.484 336.719 142.621 336.566 142.793 336.457C148.688 330.168 154.547 324.504 160.188 319.469L111.078 314.039C110.336 313.957 109.809 313.293 109.891 312.555C109.969 311.812 110.652 311.301 111.371 311.367L162.918 317.066C164.824 315.406 166.703 313.82 168.547 312.301C173.535 308.195 178.434 304.461 183.145 301.074C183.145 301.07 183.149 301.066 183.156 301.066C189.637 296.406 195.77 292.414 201.301 289.055L146.848 282.328C146.109 282.234 145.59 281.566 145.676 280.828C145.766 280.09 146.445 279.555 147.176 279.66L205.066 286.812C218.973 278.68 228.293 274.918 228.449 274.855H228.457C236.688 271.422 242.586 269.086 246.949 267.957C247.231 267.422 247.535 266.895 247.848 266.383C247.215 262.379 246.227 258.59 245.008 255.035C230.867 246.363 213.199 244.23 212.906 244.195C212.711 244.176 212.539 244.109 212.379 244.023C210.719 243.637 203.109 242.031 191.172 241.312L176 269.48C174.828 269.738 173.664 270.008 172.496 270.32L188.199 241.16C177.051 240.668 162.629 240.996 146.02 243.633C145.168 243.77 144.301 243.918 143.434 244.07L115.926 308.977C115.711 309.492 115.211 309.797 114.688 309.797C114.516 309.797 114.336 309.766 114.168 309.691C113.484 309.402 113.164 308.617 113.453 307.934L140.274 244.629C123.418 247.777 103.215 253.594 81.3321 264.117L64.2267 317.508C64.0431 318.078 63.5118 318.441 62.9454 318.441C62.8087 318.441 62.672 318.418 62.5352 318.379C61.8282 318.152 61.4376 317.395 61.6642 316.688L77.9806 265.766C64.8595 272.32 51.1798 280.562 37.2892 290.957L27.5899 321.383C27.4063 321.953 26.8751 322.316 26.3087 322.316C26.172 322.316 26.0352 322.293 25.8985 322.254C25.1915 322.027 24.8009 321.27 25.0274 320.562L33.5587 293.809C23.1876 301.836 12.7227 311.047 2.30478 321.66C2.04306 321.926 1.69149 322.062 1.34384 322.062C1.00399 322.062 0.660244 321.938 0.402432 321.676C-0.124912 321.16 -0.136632 320.309 0.3829 319.773C11.9649 307.98 23.6134 297.879 35.1251 289.219C35.254 289.059 35.4181 288.941 35.6017 288.855C44.8321 281.945 53.9688 275.984 62.9181 270.816L28.1056 260.637C27.3907 260.43 26.9806 259.68 27.1915 258.973C27.4024 258.258 28.1524 257.852 28.8634 258.059L66.172 268.969C70.6173 266.484 75.0118 264.188 79.3438 262.086C79.5665 261.863 79.8517 261.723 80.1602 261.695C92.3477 255.836 104.027 251.41 114.906 248.09L78.0509 220.75C77.4493 220.309 77.3243 219.469 77.7696 218.867C78.211 218.273 79.0548 218.148 79.6524 218.59L118.141 247.137C128.125 244.246 137.402 242.273 145.734 240.961C153.016 239.805 159.883 239.098 166.25 238.695L130.328 209.789C129.742 209.32 129.656 208.477 130.121 207.898C130.586 207.32 131.434 207.23 132.008 207.695L170.274 238.48C177.543 238.16 184.086 238.25 189.75 238.543C190.152 238.23 190.719 238.16 191.203 238.418C191.313 238.477 191.395 238.559 191.477 238.645C205.141 239.473 213.238 241.453 213.383 241.496C213.441 241.508 213.484 241.543 213.535 241.562C215.879 241.879 230.488 244.062 243.559 251.141C239.613 241.434 234.27 233.812 230.977 229.125C229.973 227.699 229.188 226.578 228.645 225.699C228.457 225.395 220.234 212.383 205.676 194.156L127.594 202.207C127.555 202.211 127.504 202.219 127.457 202.219C126.777 202.219 126.191 201.699 126.125 201.008C126.047 200.27 126.582 199.609 127.32 199.535L203.672 191.656C195.816 181.953 186.281 170.938 175.285 159.648C170.149 154.379 164.504 148.867 158.41 143.289L79.0235 153.465C78.9649 153.473 78.9063 153.473 78.8477 153.473C78.1798 153.473 77.6017 152.977 77.5157 152.301C77.4181 151.566 77.9376 150.895 78.6798 150.797L155.797 140.914C140.008 126.723 121.313 112.254 100.426 100.324L47.3595 99.5508C46.6134 99.5352 46.0235 98.9297 46.0352 98.1875C46.047 97.4531 46.6446 96.8633 47.3751 96.8633C47.3868 96.8633 47.3907 96.8633 47.3946 96.8633L95.4688 97.5625C78.0821 88.125 59.2618 80.5391 39.4063 76.3672C38.6798 76.2148 38.211 75.5078 38.3634 74.7773C38.5157 74.0547 39.2267 73.5859 39.9571 73.7383C52.086 76.2852 63.8243 80.0977 75.0938 84.8008L72.6446 73.2031C72.4923 72.4766 72.9532 71.7656 73.6798 71.6133C74.4102 71.4609 75.1173 71.9219 75.2774 72.6523L78.1134 86.0938C86.0821 89.5664 93.8087 93.4727 101.258 97.7031C101.539 97.7656 101.781 97.9023 101.957 98.1094C110.977 103.27 119.59 108.895 127.738 114.766L125.758 82.4922C125.707 81.7461 126.27 81.1094 127.012 81.0625C127.774 81.0273 128.395 81.582 128.434 82.3242L130.559 116.824C141.113 124.605 150.852 132.762 159.656 140.789C159.719 140.832 159.766 140.883 159.82 140.938C166.125 146.691 171.961 152.379 177.25 157.812C179.414 160.035 181.516 162.246 183.566 164.438L187.574 127.867C187.652 127.125 188.324 126.598 189.055 126.676C189.797 126.754 190.328 127.422 190.246 128.156L185.988 167.047C214.113 197.605 230.746 223.992 230.93 224.281C230.93 224.281 230.93 224.281 230.93 224.289C230.934 224.289 230.934 224.289 230.934 224.293C231.434 225.102 232.203 226.195 233.18 227.574C236.902 232.879 243.18 241.82 247.277 253.336C249.234 254.578 251.121 255.941 252.883 257.445V183.168L215.254 159.246C214.625 158.848 214.441 158.02 214.84 157.395C215.238 156.77 216.066 156.586 216.695 156.98L252.883 179.98V116.508L212.004 90.543C211.375 90.1445 211.191 89.3125 211.586 88.6875C211.992 88.0625 212.82 87.8789 213.445 88.2734L252.883 113.328V51.2422L232.422 34.2227C231.848 33.7461 231.77 32.8984 232.25 32.3281C232.723 31.7617 233.566 31.6836 234.141 32.1562L252.883 47.7461V1.34766C252.883 0.601562 253.484 0 254.231 0C254.969 0 255.574 0.601562 255.574 1.34766V75.0859L288.391 62.793C289.086 62.5391 289.863 62.8828 290.121 63.582C290.383 64.2773 290.031 65.0547 289.332 65.3164L255.574 77.9609V145.305L297.629 126.711C298.301 126.414 299.098 126.715 299.399 127.398C299.699 128.078 299.395 128.871 298.711 129.168L255.574 148.242V257.445C257.34 255.941 259.219 254.578 261.176 253.336C265.277 241.82 271.551 232.879 275.281 227.574C276.25 226.195 277.02 225.102 277.52 224.293C277.524 224.289 277.524 224.289 277.524 224.289C277.524 224.281 277.524 224.281 277.524 224.281C277.707 223.992 294.34 197.605 322.465 167.047L318.207 128.156C318.125 127.422 318.664 126.754 319.399 126.676C320.125 126.586 320.801 127.125 320.887 127.867L324.887 164.438C326.938 162.246 329.039 160.035 331.203 157.812C336.492 152.383 342.324 146.699 348.629 140.941C348.688 140.891 348.734 140.832 348.801 140.785C357.606 132.754 367.34 124.605 377.895 116.824L380.02 82.3242C380.066 81.582 380.691 81.0273 381.441 81.0625C382.184 81.1094 382.75 81.7461 382.703 82.4922L380.715 114.766C388.863 108.895 397.481 103.27 406.496 98.1094C406.672 97.9023 406.922 97.7656 407.195 97.7031C414.645 93.4727 422.371 89.5664 430.34 86.0938L433.184 72.6523C433.336 71.9258 434.043 71.4609 434.774 71.6133C435.5 71.7656 435.969 72.4766 435.816 73.2031L433.367 84.8008C444.637 80.0977 456.371 76.2852 468.496 73.7383C469.227 73.5898 469.938 74.0547 470.09 74.7773C470.242 75.5078 469.777 76.2148 469.047 76.3672C449.195 80.5391 430.379 88.125 412.984 97.5625L461.059 96.8633C461.789 96.8711 462.406 97.4453 462.422 98.1875C462.434 98.9297 461.84 99.5352 461.098 99.5508L408.027 100.324C387.149 112.254 368.449 126.723 352.656 140.914L429.777 150.797C430.516 150.895 431.035 151.566 430.938 152.301C430.856 152.977 430.277 153.473 429.609 153.473C429.551 153.473 429.496 153.473 429.438 153.465L350.043 143.289C343.938 148.883 338.274 154.406 333.129 159.688C322.145 170.969 312.625 181.965 304.781 191.656L381.133 199.535C381.871 199.609 382.406 200.27 382.336 201.008C382.262 201.699 381.68 202.219 381 202.219C380.953 202.219 380.906 202.211 380.859 202.207L302.777 194.156C288.219 212.383 279.996 225.395 279.813 225.699C279.266 226.578 278.481 227.699 277.481 229.125C274.184 233.812 268.84 241.434 264.899 251.141C277.969 244.062 292.578 241.879 294.918 241.562C294.969 241.543 295.012 241.508 295.07 241.496C295.215 241.461 303.313 239.473 316.981 238.641C317.066 238.559 317.145 238.477 317.25 238.418C317.734 238.16 318.301 238.23 318.711 238.539C324.367 238.25 330.914 238.16 338.184 238.48L376.445 207.695C377.024 207.23 377.867 207.32 378.336 207.898C378.801 208.477 378.711 209.32 378.133 209.789L342.203 238.695C348.574 239.098 355.438 239.805 362.719 240.961C371.051 242.273 380.332 244.246 390.32 247.137L428.805 218.59C429.399 218.148 430.246 218.273 430.688 218.867C431.129 219.469 431.004 220.309 430.41 220.75L393.547 248.09C404.43 251.41 416.106 255.836 428.293 261.691C428.606 261.719 428.895 261.863 429.117 262.086C433.449 264.191 437.844 266.484 442.285 268.969L479.598 258.059C480.313 257.848 481.059 258.258 481.262 258.973C481.473 259.68 481.063 260.43 480.352 260.637L445.535 270.816C454.484 275.984 463.621 281.945 472.848 288.852C473.035 288.934 473.199 289.059 473.328 289.223C484.844 297.879 496.492 307.98 508.07 319.773C508.59 320.309 508.586 321.16 508.055 321.676ZM134.734 456.203C133.992 456.203 133.391 456.809 133.391 457.547V670.16C133.391 670.906 133.992 671.504 134.734 671.504C135.481 671.504 136.078 670.906 136.078 670.16V457.547C136.078 456.809 135.481 456.203 134.734 456.203ZM368.496 456.203C367.758 456.203 367.152 456.809 367.152 457.547V670.16C367.152 670.906 367.758 671.504 368.496 671.504C369.242 671.504 369.844 670.906 369.844 670.16V457.547C369.844 456.809 369.242 456.203 368.496 456.203ZM364.461 534.793C364.461 535.531 363.863 536.137 363.117 536.137H336.371V670.16C336.371 670.906 335.77 671.504 335.027 671.504C334.281 671.504 333.684 670.906 333.684 670.16V536.137H169.555V670.16C169.555 670.906 168.949 671.504 168.211 671.504C167.465 671.504 166.863 670.906 166.863 670.16V536.137H140.785C140.047 536.137 139.441 535.531 139.441 534.793C139.441 534.047 140.047 533.449 140.785 533.449H166.863V457.547C166.863 456.809 167.465 456.203 168.211 456.203C168.949 456.203 169.555 456.809 169.555 457.547V533.449H333.684V457.547C333.684 456.809 334.281 456.203 335.027 456.203C335.77 456.203 336.371 456.809 336.371 457.547V533.449H363.117C363.863 533.449 364.461 534.047 364.461 534.793Z" fill="#25201F"/>
</svg>