<svg width="1099" height="208" viewBox="0 0 1099 208" fill="none" xmlns="http://www.w3.org/2000/svg">
<g clip-path="url(#clip0_122_74)">
<path d="M-0.386719 -0.113281H1097.33V31.5234H-0.386719V-0.113281Z" fill="#E95F52"/>
<path d="M102.617 31.5234H52.3594V40.2422C52.3594 55.4375 53.8516 70.3828 56.8359 85.332L80.4727 201.168C81.2188 205.402 84.9531 208.141 89.1797 208.141H102.367C106.598 208.141 110.082 205.152 111.074 201.168L134.711 85.332C137.699 70.6328 139.191 55.4375 139.191 40.2422V31.2734H102.617V31.5234ZM1007.76 31.5234H957.5V40.2422C957.5 55.4375 958.992 70.3828 961.98 85.332L985.617 201.168C986.363 205.402 990.094 208.141 994.324 208.141H1007.51C1011.74 208.141 1015.22 205.152 1016.22 201.168L1039.86 85.332C1042.84 70.6328 1044.33 55.4375 1044.33 40.2422V31.2734H1007.76V31.5234Z" fill="#17292F"/>
<path d="M1.10547 -0.113281H1098.82V31.5234H1.10547V-0.113281Z" stroke="#333333" stroke-width="3.73434" stroke-miterlimit="10" stroke-linejoin="round"/>
</g>
<defs>
<clipPath id="clip0_122_74">
<rect width="1099" height="208" fill="white"/>
</clipPath>
</defs>
</svg>