<svg width="1039" height="686" viewBox="0 0 1039 686" fill="none" xmlns="http://www.w3.org/2000/svg">
<path d="M1019.44 429.187C1014.59 435.484 1004.74 432.687 994.052 433.081C916.845 436.003 839.095 433.925 761.849 434.339C545.978 435.515 330.118 436.687 114.259 437.855C90.9072 437.984 57.7119 444.417 35.1299 438.285C31.626 437.328 23.3525 440.433 20.3369 438.367C4.8408 427.718 8.83298 350.16 8.87986 330.824C9.14158 221.699 44.1924 104.898 111.517 17.7299C311.251 17.2768 510.985 16.8314 710.72 16.3822C756.47 16.2768 802.212 16.1791 847.962 16.0736C866.7 16.0346 907.517 18.8979 925.493 24.9447C959.974 36.5463 970.521 85.1752 981.438 116.624C1002.58 177.55 1011.01 243.085 1015.85 307.128C1017.44 328.179 1033.56 410.851 1019.44 429.187Z" fill="#E6A17A"/>
<path d="M907.825 294.546C885.177 294.546 862.528 294.546 839.88 294.546C770.161 294.546 700.443 294.546 630.724 294.546C485.181 294.546 339.642 294.546 194.095 294.546C176.306 294.546 158.509 294.546 140.72 294.546C124.978 294.546 122.841 295.941 127.157 316.453C129.064 325.531 125.415 320.898 130.646 323.421C133.939 325.015 142.036 323.421 145.669 323.421C165.048 323.421 184.427 323.421 203.806 323.421C351.349 323.421 498.884 323.421 646.427 323.421C743.458 323.421 840.489 323.421 937.521 323.421C937.521 318.199 940.407 297.379 937.091 294.546C933.302 291.308 912.521 294.546 907.825 294.546ZM702.876 263.558C703.021 263.754 703.282 263.875 703.509 263.738C704.482 263.195 703.45 262.871 703.36 262.437C703.29 262.851 702.403 262.925 702.876 263.558ZM711.232 266.058C711.232 266.504 711.54 266.632 711.911 266.625C712.267 266.617 712.575 266.496 712.603 266C712.513 265.66 712.259 265.472 711.88 265.464C711.489 265.457 711.224 265.629 711.232 266.058ZM695.048 264.882C695.13 264.355 694.821 264.046 694.294 264.019C693.837 264.004 693.564 264.289 693.521 264.742C693.482 265.214 693.775 265.449 694.204 265.554C694.642 265.539 694.982 265.312 695.048 264.882ZM701.431 262.359C702.071 262.382 702.704 262.398 703.353 262.421C704.294 262.414 705.243 262.406 706.193 262.406C706.704 263.211 707.314 263.007 707.946 262.57C708.618 262.668 709.282 262.773 709.95 262.871C710.021 263.234 710.028 263.656 710.478 263.761C710.946 263.882 711.118 263.511 711.255 263.152C711.943 263.265 712.603 263.8 713.329 263.273H713.849C714.157 264.347 715.415 264.093 715.958 264.816C715.634 265.101 714.88 264.777 714.911 265.523C714.923 265.765 715.204 265.91 715.458 265.894C716.243 265.839 715.853 265.214 715.958 264.824C719.318 265.66 722.06 267.476 724.364 270.027C724.962 270.683 724.9 271.445 724.743 272.234C721.661 272.183 718.751 273.078 715.782 273.703C713.622 274.156 711.732 273.238 709.939 272.129C708.732 271.363 707.497 270.668 706.056 270.414C704.286 270.105 702.599 270.308 701.13 271.371C698.915 272.98 696.525 273.32 694.017 272.339C691.423 271.316 688.876 271.371 686.239 272.136C684.56 272.621 682.833 273.14 681.04 272.621C680.161 271.82 680.689 271.113 681.224 270.457C682.927 268.363 685.161 266.957 687.497 265.699C688.681 266.691 689.068 265.945 689.314 264.875C689.7 264.734 690.099 264.605 690.489 264.468C691.161 264.808 691.845 265.207 691.95 263.957C694.778 263.152 697.642 262.527 700.595 262.421C700.896 262.781 701.196 263 701.431 262.359ZM645.892 263.558C646.036 263.754 646.29 263.875 646.525 263.738C647.489 263.195 646.466 262.871 646.368 262.437C646.306 262.851 645.411 262.925 645.892 263.558ZM654.239 266.058C654.247 266.504 654.556 266.632 654.919 266.625C655.275 266.617 655.591 266.496 655.61 266C655.528 265.66 655.275 265.472 654.896 265.464C654.497 265.457 654.239 265.629 654.239 266.058ZM638.064 264.882C638.146 264.355 637.837 264.046 637.31 264.019C636.853 264.004 636.571 264.289 636.536 264.742C636.489 265.214 636.79 265.449 637.212 265.554C637.657 265.539 637.989 265.312 638.064 264.882ZM644.446 262.359C645.079 262.382 645.72 262.398 646.36 262.421C647.31 262.414 648.251 262.406 649.2 262.406C649.72 263.211 650.329 263.007 650.962 262.57C651.626 262.668 652.298 262.773 652.966 262.871C653.028 263.234 653.036 263.656 653.493 263.761C653.962 263.882 654.134 263.511 654.271 263.152C654.95 263.265 655.61 263.8 656.345 263.273H656.864C657.165 264.347 658.431 264.093 658.974 264.816C658.65 265.101 657.896 264.777 657.927 265.523C657.935 265.765 658.212 265.91 658.474 265.894C659.251 265.839 658.868 265.214 658.974 264.824C662.333 265.66 665.075 267.476 667.38 270.027C667.97 270.683 667.907 271.445 667.751 272.234C664.677 272.183 661.759 273.078 658.798 273.703C656.638 274.156 654.739 273.238 652.954 272.129C651.739 271.363 650.505 270.668 649.071 270.414C647.302 270.105 645.607 270.308 644.146 271.371C641.923 272.98 639.54 273.32 637.032 272.339C634.431 271.316 631.892 271.371 629.247 272.136C627.568 272.621 625.837 273.14 624.048 272.621C623.177 271.82 623.696 271.113 624.239 270.457C625.935 268.363 628.173 266.957 630.513 265.699C631.696 266.691 632.075 265.945 632.329 264.875C632.716 264.734 633.114 264.605 633.505 264.468C634.169 264.808 634.86 265.207 634.966 263.957C637.794 263.152 640.65 262.527 643.603 262.421C643.911 262.781 644.212 263 644.446 262.359ZM879.532 262C879.685 262.203 879.935 262.316 880.173 262.187C881.138 261.636 880.114 261.312 880.017 260.882C879.954 261.304 879.06 261.367 879.532 262ZM887.888 264.507C887.896 264.953 888.204 265.086 888.568 265.066C888.923 265.058 889.239 264.937 889.255 264.441C889.169 264.109 888.923 263.914 888.544 263.914C888.146 263.906 887.888 264.078 887.888 264.507ZM871.712 263.332C871.794 262.796 871.478 262.488 870.958 262.472C870.501 262.457 870.22 262.738 870.185 263.187C870.138 263.656 870.439 263.89 870.86 264.004C871.306 263.98 871.646 263.761 871.712 263.332ZM878.087 260.8C878.728 260.824 879.368 260.847 880.009 260.863C880.95 260.863 881.9 260.855 882.849 260.847C883.36 261.652 883.978 261.449 884.61 261.019C885.275 261.117 885.939 261.214 886.614 261.312C886.677 261.675 886.685 262.097 887.13 262.211C887.61 262.324 887.771 261.961 887.919 261.601C888.607 261.707 889.255 262.254 889.993 261.718H890.513C890.814 262.789 892.079 262.543 892.614 263.265C892.298 263.55 891.544 263.226 891.568 263.964C891.575 264.207 891.86 264.363 892.11 264.347C892.9 264.281 892.517 263.656 892.614 263.265C895.974 264.101 898.724 265.929 901.021 268.468C901.618 269.125 901.564 269.886 901.4 270.675C898.325 270.632 895.407 271.519 892.439 272.144C890.278 272.597 888.388 271.687 886.603 270.57C885.396 269.804 884.153 269.117 882.72 268.855C880.95 268.55 879.255 268.761 877.794 269.816C875.571 271.429 873.189 271.769 870.681 270.781C868.087 269.765 865.528 269.824 862.896 270.586C861.216 271.074 859.485 271.582 857.696 271.062C856.825 270.261 857.345 269.562 857.888 268.898C859.583 266.812 861.814 265.41 864.15 264.152C865.337 265.14 865.724 264.386 865.97 263.316C866.364 263.187 866.755 263.046 867.153 262.918C867.818 263.25 868.509 263.656 868.614 262.406C871.443 261.601 874.298 260.98 877.251 260.863C877.56 261.222 877.86 261.441 878.087 260.8ZM816.333 260.961C816.478 261.164 816.732 261.277 816.966 261.148C817.931 260.605 816.907 260.281 816.814 259.851C816.747 260.265 815.853 260.328 816.333 260.961ZM824.681 263.468C824.689 263.914 824.997 264.046 825.368 264.039C825.72 264.031 826.036 263.906 826.052 263.414C825.97 263.07 825.72 262.886 825.337 262.879C824.939 262.871 824.681 263.039 824.681 263.468ZM808.505 262.293C808.587 261.765 808.271 261.449 807.751 261.433C807.298 261.418 807.021 261.699 806.982 262.148C806.939 262.617 807.232 262.851 807.653 262.964C808.099 262.941 808.431 262.722 808.505 262.293ZM814.888 259.769C815.521 259.785 816.169 259.808 816.802 259.836C817.751 259.828 818.7 259.82 819.642 259.808C820.161 260.613 820.771 260.418 821.403 259.98C822.068 260.078 822.739 260.175 823.407 260.281C823.47 260.636 823.478 261.066 823.927 261.171C824.403 261.285 824.575 260.921 824.712 260.566C825.403 260.671 826.052 261.214 826.79 260.679H827.31C827.618 261.757 828.872 261.507 829.419 262.226C829.091 262.511 828.337 262.187 828.372 262.933C828.38 263.168 828.653 263.324 828.915 263.308C829.693 263.25 829.321 262.617 829.419 262.226C832.775 263.062 835.517 264.89 837.821 267.429C838.411 268.086 838.357 268.855 838.193 269.636C835.118 269.593 832.2 270.488 829.239 271.105C827.079 271.558 825.193 270.652 823.4 269.531C822.189 268.777 820.95 268.078 819.513 267.828C817.743 267.511 816.048 267.722 814.591 268.785C812.368 270.39 809.982 270.73 807.474 269.75C804.872 268.726 802.333 268.785 799.689 269.546C798.009 270.035 796.29 270.546 794.489 270.035C793.622 269.23 794.138 268.523 794.685 267.867C796.38 265.773 798.618 264.371 800.954 263.113C802.13 264.101 802.528 263.355 802.771 262.285C803.161 262.148 803.556 262.007 803.946 261.879C804.61 262.211 805.302 262.617 805.407 261.367C808.239 260.566 811.095 259.941 814.044 259.836C814.353 260.191 814.653 260.41 814.888 259.769ZM584.235 263.039C584.388 263.234 584.638 263.355 584.876 263.218C585.841 262.675 584.818 262.351 584.72 261.918C584.657 262.332 583.763 262.406 584.235 263.039ZM592.591 265.539C592.599 265.984 592.903 266.121 593.271 266.105C593.634 266.097 593.943 265.976 593.958 265.48C593.88 265.14 593.626 264.953 593.247 264.945C592.849 264.937 592.591 265.109 592.591 265.539ZM576.415 264.363C576.497 263.836 576.181 263.527 575.661 263.504C575.204 263.484 574.931 263.769 574.88 264.222C574.849 264.695 575.142 264.929 575.564 265.035C576.009 265.019 576.349 264.8 576.415 264.363ZM582.79 261.839C583.431 261.863 584.071 261.879 584.712 261.902C585.661 261.894 586.61 261.894 587.552 261.886C588.064 262.691 588.681 262.488 589.314 262.05C589.978 262.148 590.642 262.254 591.314 262.351C591.38 262.714 591.388 263.136 591.833 263.25C592.314 263.363 592.474 262.992 592.622 262.632C593.31 262.746 593.958 263.281 594.696 262.754H595.216C595.517 263.828 596.775 263.574 597.318 264.304C597.001 264.582 596.247 264.257 596.271 265.004C596.278 265.246 596.564 265.402 596.821 265.375C597.603 265.32 597.22 264.695 597.318 264.304C600.677 265.14 603.427 266.957 605.732 269.507C606.321 270.164 606.267 270.925 606.103 271.714C603.028 271.671 600.11 272.558 597.138 273.183C594.982 273.636 593.091 272.726 591.306 271.609C590.099 270.843 588.857 270.148 587.423 269.894C585.653 269.586 583.958 269.789 582.489 270.851C580.275 272.468 577.892 272.808 575.384 271.82C572.79 270.796 570.232 270.863 567.599 271.617C565.919 272.101 564.196 272.621 562.396 272.101C561.528 271.3 562.048 270.593 562.591 269.937C564.286 267.843 566.517 266.437 568.853 265.183C570.04 266.171 570.435 265.425 570.681 264.355C571.068 264.222 571.466 264.086 571.857 263.949C572.521 264.289 573.212 264.687 573.318 263.437C576.146 262.632 579.009 262.015 581.954 261.902C582.263 262.261 582.564 262.48 582.79 261.839ZM140.751 189.836C160.157 189.836 179.552 189.836 198.954 189.836C346.263 189.836 493.564 189.836 640.86 189.836C738.552 189.836 836.232 189.836 933.911 189.836C933.911 184.457 937.15 160.195 933.669 157.339C929.931 154.265 910.403 157.339 905.845 157.339C883.571 157.339 861.286 157.339 839.005 157.339C769.032 157.339 699.064 157.339 629.091 157.339C483.282 157.339 337.478 157.339 191.677 157.339C173.485 157.339 155.298 157.339 137.103 157.339C118.966 157.339 123.548 158.734 123.548 179.507C123.548 193.964 127.345 189.836 140.751 189.836ZM955.439 683.3C817.849 683.3 680.267 683.3 542.677 683.3C442.11 683.3 341.54 683.3 240.974 683.3C189.513 683.3 139.497 687.957 73.9308 683.3C39.0909 680.816 41.5792 654.082 41.5792 624.273C41.5792 587.605 32.3878 538.988 41.5792 503.57C53.2589 458.519 133.411 474.976 169.548 474.976C362.583 474.976 555.614 474.976 748.657 474.976C810.915 474.976 888.825 462.203 950.118 474.976C990.728 483.437 983.419 515.238 983.419 549.761C983.419 576.351 1000.34 683.3 955.439 683.3Z" fill="#FABE57"/>
<path d="M656.063 407.222C659.349 407.038 662.602 406.581 665.845 406.081C665.513 407.499 664.911 408.788 664.669 410.316C663.794 415.98 662.446 421.577 661.263 427.191C661.165 427.671 661.06 428.253 660.509 428.378C659.462 428.605 658.544 429.187 657.442 429.277C653.524 429.601 649.622 430.113 645.665 429.941C641.86 429.788 638.063 429.644 634.333 428.718C633.278 428.448 632.806 427.784 632.61 426.89C632.052 424.288 631.72 421.632 631.028 419.062C629.813 414.527 629.903 409.667 627.673 405.374L627.657 405.015C631.005 406.679 634.649 406.995 638.298 407.273C644.22 407.726 650.149 407.546 656.063 407.222ZM597.317 264.304C597.22 264.695 597.602 265.32 596.821 265.374C596.563 265.402 596.278 265.245 596.27 265.003C596.247 264.257 597.001 264.581 597.317 264.304ZM643.602 262.421C643.837 261.781 644.106 261.659 644.446 262.359C644.212 262.999 643.911 262.781 643.602 262.421ZM638.251 389.777C637.177 388.706 646.509 384.116 649.81 383.749C653.102 383.394 658.489 390.859 658.489 390.859C653.677 395.093 639.329 390.859 638.251 389.777ZM592.591 265.538C592.591 265.109 592.849 264.937 593.247 264.945C593.626 264.952 593.88 265.14 593.958 265.48C593.942 265.976 593.634 266.097 593.27 266.105C592.903 266.12 592.599 265.984 592.591 265.538ZM604.067 406.566L604.052 406.933C601.813 411.214 601.907 416.077 600.692 420.62C600.005 423.183 599.661 425.843 599.102 428.448C598.915 429.343 598.446 430.007 597.384 430.269C593.661 431.198 589.856 431.339 586.052 431.499C582.099 431.663 578.192 431.159 574.274 430.835C573.177 430.745 572.251 430.163 571.216 429.933C570.661 429.812 570.548 429.23 570.454 428.749C569.267 423.128 567.931 417.527 567.044 411.866C566.81 410.347 566.2 409.058 565.876 407.636C569.114 408.14 572.376 408.593 575.653 408.773C581.575 409.105 587.493 409.277 593.415 408.831C597.067 408.546 600.708 408.238 604.067 406.566ZM584.727 261.902L584.72 261.917L584.712 261.902H584.727ZM592.622 262.632C592.474 262.991 592.313 263.363 591.833 263.249C591.388 263.136 591.38 262.714 591.313 262.351C591.899 261.765 592.36 261.734 592.622 262.632ZM581.954 261.902C582.188 261.261 582.458 261.14 582.79 261.839C582.563 262.48 582.263 262.261 581.954 261.902ZM573.235 392.417C573.235 392.417 578.614 384.952 581.915 385.308C585.216 385.663 594.544 390.257 593.466 391.335C592.388 392.417 578.044 396.652 573.235 392.417ZM606.102 271.714C607.419 273.175 607.208 274.925 606.899 276.605C606.056 281.238 605.114 285.855 604.196 290.464C603.645 293.206 602.946 295.925 602.532 298.683C602.259 300.429 601.075 300.851 599.735 301.206C597.513 301.808 595.208 301.906 592.938 302.171C588.47 302.706 583.989 302.538 579.536 302.409C576.13 302.312 572.7 302.124 569.325 301.281C567.298 300.784 566.333 299.648 566.063 297.773C565.364 292.769 564.102 287.866 563.2 282.902C562.755 280.445 562.302 277.984 561.837 275.527C561.618 274.316 561.821 273.183 562.395 272.101C564.196 272.62 565.919 272.101 567.599 271.616C570.231 270.863 572.79 270.796 575.384 271.82C577.892 272.808 580.274 272.468 582.489 270.851C583.958 269.788 585.653 269.585 587.423 269.894C588.856 270.148 590.099 270.843 591.306 271.609C593.091 272.726 594.981 273.636 597.138 273.183C600.11 272.558 603.028 271.671 606.102 271.714ZM587.552 261.886C588.251 260.749 588.794 261.253 589.313 262.05C588.681 262.488 588.063 262.691 587.552 261.886ZM646.376 262.421L646.368 262.437L646.36 262.421H646.376ZM584.72 261.917C584.817 262.351 585.841 262.675 584.876 263.218C584.638 263.355 584.388 263.234 584.235 263.038C583.763 262.406 584.657 262.331 584.72 261.917ZM667.751 272.234C669.075 273.691 668.856 275.445 668.556 277.124C667.712 281.757 666.77 286.374 665.837 290.984C665.294 293.726 664.602 296.445 664.173 299.195C663.915 300.948 662.724 301.37 661.384 301.726C659.161 302.327 656.864 302.417 654.587 302.691C650.118 303.218 645.638 303.058 641.185 302.925C637.778 302.82 634.349 302.636 630.974 301.8C628.954 301.296 627.981 300.159 627.72 298.292C627.017 293.288 625.751 288.386 624.849 283.421C624.403 280.964 623.942 278.503 623.493 276.046C623.259 274.835 623.477 273.702 624.048 272.62C625.837 273.14 627.567 272.62 629.247 272.136C631.892 271.37 634.431 271.316 637.032 272.339C639.54 273.32 641.923 272.98 644.145 271.37C645.606 270.308 647.302 270.105 649.071 270.413C650.505 270.667 651.739 271.363 652.954 272.128C654.739 273.238 656.638 274.156 658.798 273.702C661.759 273.077 664.677 272.183 667.751 272.234ZM711.231 266.058C711.224 265.628 711.489 265.456 711.88 265.464C712.259 265.472 712.513 265.659 712.602 265.999C712.575 266.495 712.267 266.616 711.911 266.624C711.54 266.632 711.231 266.503 711.231 266.058ZM711.255 263.152C711.118 263.511 710.946 263.882 710.477 263.761C710.028 263.656 710.02 263.234 709.95 262.87C710.54 262.277 711.005 262.253 711.255 263.152ZM646.368 262.437C646.466 262.87 647.489 263.195 646.524 263.738C646.29 263.874 646.036 263.753 645.892 263.558C645.411 262.925 646.306 262.851 646.368 262.437ZM838.192 269.636C839.509 271.097 839.298 272.859 838.989 274.534C838.153 279.159 837.212 283.777 836.278 288.394C835.735 291.136 835.048 293.847 834.626 296.605C834.356 298.359 833.165 298.781 831.825 299.136C829.602 299.73 827.31 299.827 825.028 300.097C820.56 300.632 816.083 300.468 811.63 300.339C808.227 300.234 804.79 300.046 801.415 299.21C799.395 298.706 798.423 297.573 798.161 295.706C797.458 290.698 796.2 285.8 795.29 280.831C794.845 278.366 794.392 275.917 793.938 273.456C793.708 272.249 793.919 271.105 794.489 270.034C796.29 270.546 798.009 270.034 799.688 269.546C802.333 268.784 804.872 268.726 807.474 269.749C809.981 270.73 812.368 270.39 814.591 268.784C816.048 267.722 817.743 267.511 819.513 267.827C820.95 268.077 822.188 268.777 823.399 269.531C825.192 270.652 827.079 271.558 829.239 271.105C832.2 270.488 835.118 269.593 838.192 269.636ZM715.958 264.823C715.852 265.214 716.243 265.839 715.458 265.894C715.204 265.909 714.923 265.765 714.911 265.523C714.88 264.777 715.634 265.101 715.958 264.816V264.823ZM902.196 275.566C901.352 280.198 900.411 284.816 899.493 289.433C898.942 292.175 898.243 294.886 897.821 297.644C897.556 299.39 896.372 299.812 895.032 300.175C892.802 300.769 890.513 300.866 888.235 301.132C883.767 301.671 879.286 301.507 874.833 301.37C871.427 301.273 867.997 301.085 864.622 300.249C862.595 299.745 861.63 298.609 861.36 296.745C860.665 291.73 859.399 286.835 858.497 281.863C858.052 279.406 857.591 276.945 857.134 274.495C856.915 273.281 857.118 272.144 857.696 271.062C859.485 271.581 861.216 271.073 862.895 270.585C865.528 269.823 868.087 269.765 870.681 270.781C873.188 271.769 875.571 271.429 877.794 269.816C879.255 268.761 880.95 268.55 882.72 268.855C884.153 269.116 885.395 269.804 886.602 270.57C888.388 271.687 890.278 272.597 892.438 272.144C895.407 271.519 898.325 270.632 901.399 270.675C902.716 272.136 902.505 273.886 902.196 275.566ZM703.36 262.437C703.45 262.87 704.481 263.195 703.509 263.738C703.282 263.874 703.02 263.753 702.876 263.558C702.403 262.925 703.29 262.851 703.36 262.437ZM706.192 262.406C706.892 261.261 707.435 261.773 707.946 262.57C707.313 263.007 706.704 263.21 706.192 262.406ZM654.27 263.152C654.134 263.511 653.962 263.882 653.493 263.761C653.036 263.656 653.028 263.234 652.966 262.87C653.548 262.277 654.017 262.253 654.27 263.152ZM649.2 262.406C649.899 261.261 650.442 261.773 650.962 262.57C650.329 263.007 649.72 263.21 649.2 262.406ZM703.36 262.421V262.437L703.352 262.421H703.36ZM654.239 266.058C654.239 265.628 654.497 265.456 654.895 265.464C655.274 265.472 655.528 265.659 655.61 265.999C655.591 266.495 655.274 266.616 654.919 266.624C654.556 266.632 654.247 266.503 654.239 266.058ZM658.974 264.823C658.868 265.214 659.251 265.839 658.474 265.894C658.212 265.909 657.935 265.765 657.927 265.523C657.895 264.777 658.649 265.101 658.974 264.816V264.823ZM700.595 262.421C700.821 261.781 701.099 261.659 701.431 262.359C701.196 262.999 700.895 262.781 700.595 262.421ZM724.743 272.234C726.06 273.691 725.841 275.445 725.54 277.124C724.696 281.757 723.755 286.374 722.829 290.984C722.286 293.726 721.587 296.445 721.165 299.195C720.899 300.948 719.708 301.37 718.368 301.726C716.145 302.327 713.849 302.417 711.579 302.691C707.102 303.218 702.622 303.058 698.169 302.925C694.77 302.82 691.333 302.636 687.958 301.8C685.938 301.296 684.966 300.159 684.704 298.292C684.001 293.288 682.743 288.386 681.833 283.421C681.388 280.964 680.935 278.503 680.477 276.046C680.251 274.835 680.462 273.702 681.04 272.62C682.833 273.14 684.56 272.62 686.239 272.136C688.876 271.37 691.423 271.316 694.017 272.339C696.524 273.32 698.915 272.98 701.13 271.37C702.599 270.308 704.286 270.105 706.056 270.413C707.497 270.667 708.731 271.363 709.938 272.128C711.731 273.238 713.622 274.156 715.782 273.702C718.751 273.077 721.661 272.183 724.743 272.234ZM574.88 264.222C574.931 263.769 575.204 263.484 575.661 263.503C576.181 263.527 576.497 263.835 576.415 264.363C576.349 264.8 576.009 265.019 575.563 265.034C575.142 264.929 574.849 264.695 574.88 264.222ZM819.642 259.808C820.341 258.675 820.884 259.183 821.403 259.98C820.77 260.417 820.161 260.613 819.642 259.808ZM687.497 265.698C687.528 264.175 688.38 264.433 689.313 264.874C689.067 265.945 688.681 266.691 687.497 265.698ZM690.489 264.468C690.747 263.632 691.177 263.316 691.95 263.956C691.845 265.206 691.161 264.808 690.489 264.468ZM630.513 265.698C630.544 264.175 631.395 264.433 632.329 264.874C632.075 265.945 631.696 266.691 630.513 265.698ZM824.681 263.468C824.681 263.038 824.938 262.87 825.337 262.878C825.72 262.886 825.97 263.07 826.052 263.413C826.036 263.906 825.72 264.031 825.368 264.038C824.997 264.046 824.688 263.913 824.681 263.468ZM693.52 264.741C693.563 264.288 693.837 264.003 694.294 264.019C694.821 264.046 695.13 264.355 695.048 264.882C694.981 265.312 694.642 265.538 694.204 265.554C693.774 265.448 693.481 265.214 693.52 264.741ZM571.856 263.948C572.106 263.113 572.544 262.796 573.317 263.437C573.212 264.687 572.52 264.288 571.856 263.948ZM633.505 264.468C633.763 263.632 634.192 263.316 634.966 263.956C634.86 265.206 634.169 264.808 633.505 264.468ZM816.333 260.96C815.852 260.327 816.747 260.265 816.813 259.851C816.907 260.281 817.931 260.605 816.966 261.148C816.731 261.277 816.477 261.163 816.333 260.96ZM814.044 259.835C814.282 259.195 814.548 259.07 814.888 259.769C814.653 260.409 814.352 260.191 814.044 259.835ZM816.821 259.835L816.813 259.851L816.802 259.835H816.821ZM806.981 262.148C807.02 261.698 807.298 261.417 807.751 261.433C808.27 261.448 808.587 261.765 808.505 262.292C808.431 262.722 808.099 262.941 807.653 262.964C807.231 262.851 806.938 262.616 806.981 262.148ZM823.407 260.281C823.989 259.687 824.454 259.663 824.712 260.566C824.575 260.921 824.403 261.284 823.927 261.171C823.477 261.066 823.47 260.636 823.407 260.281ZM800.954 263.113C800.985 261.577 801.837 261.839 802.77 262.284C802.528 263.355 802.13 264.101 800.954 263.113ZM803.946 261.878C804.196 261.034 804.638 260.718 805.407 261.366C805.302 262.616 804.61 262.21 803.946 261.878ZM636.536 264.741C636.571 264.288 636.852 264.003 637.31 264.019C637.837 264.046 638.145 264.355 638.063 264.882C637.989 265.312 637.657 265.538 637.212 265.554C636.79 265.448 636.489 265.214 636.536 264.741ZM880.024 260.863L880.017 260.882L880.009 260.863H880.024ZM882.849 260.847C883.548 259.71 884.091 260.222 884.61 261.019C883.977 261.448 883.36 261.652 882.849 260.847ZM891.567 263.964C891.544 263.226 892.298 263.55 892.614 263.265C892.517 263.656 892.899 264.281 892.11 264.347C891.86 264.363 891.575 264.206 891.567 263.964ZM886.614 261.312C887.196 260.726 887.657 260.695 887.919 261.601C887.77 261.96 887.61 262.323 887.13 262.21C886.685 262.097 886.677 261.675 886.614 261.312ZM879.532 261.999C879.06 261.366 879.954 261.304 880.017 260.882C880.114 261.312 881.138 261.636 880.173 262.187C879.935 262.316 879.685 262.202 879.532 261.999ZM568.852 265.183C568.895 263.656 569.747 263.913 570.681 264.355C570.435 265.425 570.04 266.171 568.852 265.183ZM887.888 264.507C887.888 264.077 888.145 263.906 888.544 263.913C888.923 263.913 889.169 264.109 889.255 264.441C889.239 264.937 888.923 265.058 888.567 265.066C888.204 265.085 887.895 264.952 887.888 264.507ZM864.149 264.152C864.192 262.616 865.044 262.878 865.97 263.316C865.724 264.386 865.337 265.14 864.149 264.152ZM877.251 260.863C877.477 260.222 877.755 260.101 878.087 260.8C877.86 261.441 877.56 261.222 877.251 260.863ZM828.372 262.933C828.337 262.187 829.091 262.511 829.419 262.226C829.321 262.616 829.692 263.249 828.915 263.308C828.653 263.323 828.38 263.167 828.372 262.933ZM867.153 262.917C867.403 262.073 867.841 261.757 868.614 262.406C868.509 263.656 867.817 263.249 867.153 262.917ZM870.185 263.187C870.22 262.738 870.501 262.456 870.958 262.472C871.477 262.488 871.794 262.796 871.712 263.331C871.645 263.761 871.306 263.98 870.86 264.003C870.438 263.89 870.138 263.656 870.185 263.187ZM794.642 144.234C793.903 147.917 793.188 151.601 792.454 155.277C792.321 155.945 792.013 156.698 791.349 156.761C789.946 156.902 788.763 157.753 787.333 157.777C784.431 157.835 781.552 158.312 778.622 158.222C775.677 158.132 772.724 158.093 769.778 157.995C767.477 157.921 765.345 157.355 763.177 156.769C762.399 156.558 761.872 155.952 761.864 155.148C761.856 153.906 761.407 152.769 761.188 151.585C760.208 146.265 759.071 140.956 757.993 135.652C758.481 134.222 760.142 133.816 761.571 134.863C762.083 135.245 762.341 135.343 762.778 134.831C762.974 134.597 763.38 134.491 763.704 134.417C764.782 134.183 765.895 135.335 766.388 135.148C767.29 134.816 768.134 134.034 769.099 134.425C770.243 134.886 771.216 135.261 772.36 134.441C772.634 134.238 773.364 134.261 773.61 134.491C774.696 135.48 775.622 134.929 776.571 134.253C775.392 133.866 774.192 133.425 773.114 132.738C769.626 130.491 765.798 129.62 761.685 129.741C760.825 129.769 759.958 129.597 759.099 129.523C758.415 129.468 757.841 129.191 757.368 128.706C757.411 128.167 757.727 128.202 758.106 128.339C760.208 129.054 762.415 128.73 764.563 128.948C767.208 129.214 769.724 129.718 771.954 131.195C775.54 133.566 779.294 134.07 783.376 132.609C785.427 131.87 787.431 131.027 789.337 129.988C790.157 129.542 790.985 129.394 791.852 129.589C793.419 129.945 794.852 129.839 796.161 128.777C796.81 128.257 796.993 128.616 796.864 129.296C795.317 130.554 793.532 130.855 791.618 130.546C790.618 130.394 789.743 130.683 788.876 131.156C785.645 132.898 782.247 134.148 778.517 134.491C778.946 135.097 779.352 135.39 780.001 134.808C780.356 134.484 780.845 134.433 781.333 134.366C782.29 134.253 783.083 135.308 783.618 135.163C784.372 134.96 785.048 134.32 785.977 134.32C786.849 134.32 787.423 135.245 787.997 135.202C788.642 135.148 789.231 134.335 790.091 134.378L790.474 134.402C791.688 135.464 792.841 134.765 794.075 134.394C794.852 134.156 795.739 134.288 796.247 135.156C796.208 135.933 796.2 136.698 796.02 137.476C795.517 139.722 795.087 141.98 794.642 144.234ZM730.763 130.808C726.903 131.698 723.868 134.027 719.739 134.409C720.501 135.472 726.845 134.675 728.321 134.695C729.97 134.71 735.888 133.394 736.977 134.667C738.86 136.866 735.087 149.597 734.227 152.429C732.321 158.734 727.747 157.956 721.298 158.109C717.419 158.198 706.395 159.503 703.45 156.097C702.024 154.441 698.364 136.609 699.216 135.562C700.821 133.597 704.134 134.816 706.485 134.683C709.153 134.523 715.579 135.722 717.794 134.175C714.677 133.128 712.056 131.14 708.845 130.304C706.337 129.656 700.548 130.644 698.591 128.616C698.817 125.792 717.153 133.015 718.708 133.191C720.997 133.46 738.227 128.519 738.087 129.206C735.88 130.999 733.27 130.222 730.763 130.808ZM679.911 129.687C678.36 130.945 676.587 131.238 674.661 130.945C673.673 130.781 672.798 131.073 671.923 131.546C668.692 133.288 665.294 134.538 661.563 134.878C662.001 135.488 662.407 135.781 663.048 135.195C663.395 134.87 663.899 134.816 664.384 134.757C665.333 134.636 666.13 135.698 666.665 135.554C667.427 135.351 668.091 134.71 669.024 134.71C669.892 134.71 670.477 135.632 671.044 135.585C671.685 135.538 672.286 134.718 673.138 134.765L673.52 134.781C674.735 135.843 675.888 135.156 677.13 134.781C677.907 134.538 678.782 134.675 679.294 135.546C679.255 136.316 679.247 137.085 679.067 137.866C678.563 140.113 678.134 142.37 677.688 144.624C676.958 148.3 676.235 151.991 675.497 155.667C675.368 156.331 675.067 157.085 674.388 157.152C672.993 157.281 671.806 158.132 670.38 158.167C667.477 158.222 664.595 158.702 661.669 158.613C658.724 158.515 655.778 158.484 652.825 158.386C650.513 158.312 648.388 157.738 646.224 157.159C645.446 156.948 644.919 156.339 644.907 155.538C644.907 154.304 644.454 153.159 644.235 151.976C643.255 146.644 642.118 141.347 641.048 136.038C641.528 134.613 643.188 134.206 644.618 135.261C645.13 135.632 645.388 135.73 645.825 135.21C646.02 134.976 646.427 134.878 646.759 134.808C647.821 134.57 648.942 135.722 649.435 135.538C650.329 135.202 651.181 134.425 652.145 134.816C653.29 135.277 654.27 135.652 655.407 134.831C655.681 134.628 656.403 134.652 656.653 134.87C657.751 135.87 658.665 135.308 659.614 134.652C658.438 134.253 657.239 133.816 656.161 133.12C652.673 130.878 648.845 130.011 644.731 130.132C643.872 130.163 643.001 129.988 642.142 129.913C641.462 129.847 640.888 129.581 640.415 129.093C640.454 128.558 640.77 128.601 641.153 128.722C643.255 129.437 645.462 129.116 647.618 129.331C650.255 129.597 652.77 130.109 655.001 131.585C658.587 133.952 662.341 134.456 666.423 132.988C668.481 132.257 670.477 131.413 672.384 130.374C673.204 129.929 674.028 129.784 674.899 129.98C676.462 130.335 677.899 130.23 679.204 129.167C679.852 128.648 680.04 129.003 679.911 129.687ZM474.579 263.925C474.606 267.609 474.712 271.292 473.056 274.73C470.563 275.827 469.72 274.765 469.681 272.304C469.665 270.773 469.438 269.214 469.122 267.714C468.829 266.316 467.813 265.652 466.364 265.628C464.919 265.605 464.31 266.421 463.985 267.687C463.677 268.898 463.224 270.073 462.95 271.292C462.606 272.769 461.911 273.823 460.286 273.878C458.528 273.937 457.767 272.476 457.231 271.265C456.767 270.21 456.493 268.98 456.501 267.663C456.524 265.507 455.649 263.671 453.11 263.378C450.431 263.07 450.142 265.109 449.864 266.909C449.466 269.48 449.345 272.101 448.997 274.683C448.524 278.148 446.767 279.874 444.106 279.663C441.614 279.46 440.372 277.675 440.274 274.097C440.22 271.769 440.267 269.448 440.13 267.128C440.063 266.081 439.759 264.757 438.466 264.741C436.845 264.726 437.325 266.253 437.227 267.195C437.048 268.816 437.395 270.464 436.95 272.101C436.431 274.007 435.044 274.773 433.302 274.827C431.474 274.894 430.833 273.472 430.63 271.956C430.419 270.421 430.462 268.866 430.306 267.331C430.2 266.226 430.411 264.652 428.903 264.538C427.321 264.409 426.95 265.788 426.86 267.152C426.696 269.667 426.52 272.175 426.317 274.675C426.169 276.452 426.024 278.335 423.696 278.554C421.399 278.765 420.493 277.191 419.892 275.3C418.989 272.476 419.177 269.554 419.212 266.667C419.227 265.191 419.138 263.753 418.587 262.39C417.962 260.863 416.802 260.07 415.145 260.394C413.606 260.702 412.56 261.562 412.38 263.273C412.056 266.359 413.216 269.343 412.673 272.484C412.259 274.925 410.821 275.941 408.81 276.159C406.474 276.417 405.981 274.632 405.923 272.718C405.876 270.406 405.989 268.109 405.38 265.816C405.024 264.468 404.657 263.355 403.126 263.281C401.251 263.195 401.298 264.777 401.161 265.945C400.813 269.011 400.685 272.101 400.349 275.179C400.067 277.757 399.134 279.98 396.091 280.175C393.407 280.347 391.38 278.269 390.837 274.976C390.446 272.573 390.356 270.171 390.599 267.738C390.837 265.472 391.145 263.167 390.38 260.597C388.517 261.855 388.849 263.702 388.337 265.214C388.02 266.12 388.638 268.198 386.341 267.421C384.794 263.843 385.7 260.257 386.317 256.671C386.454 255.843 387.071 255.363 387.899 255.183C388.931 254.972 389.95 254.714 390.989 254.534C395.028 253.831 395.028 253.839 395.079 249.683C396.911 250.226 398.735 251.218 400.571 251.218C403.173 251.218 403.563 252.734 403.255 254.472C402.962 256.167 403.677 256.183 404.884 256.296C417.903 257.538 430.954 257.726 444.001 257.253C449.985 257.034 455.989 256.906 461.911 255.843C463.192 255.605 464.7 255.722 465.243 254.073C473.923 254.698 474.532 255.347 474.579 263.925ZM238.927 302.284C238.849 302.952 238.79 303.609 238.716 304.273C237.591 304.159 236.47 304.054 235.345 303.941C234.938 303.456 234.509 303.253 234.005 303.812L233.735 303.706C227.774 302.359 227.774 302.359 228.263 295.956C230.501 296.956 232.911 297.116 235.286 297.448C238.645 297.929 239.317 298.87 238.927 302.284ZM316.056 269.109C316.079 272.784 316.185 276.476 314.528 279.917C312.032 281.011 311.188 279.948 311.153 277.491C311.138 275.948 310.911 274.398 310.595 272.89C310.302 271.503 309.282 270.835 307.837 270.812C306.392 270.788 305.786 271.609 305.462 272.874C305.153 274.081 304.696 275.257 304.423 276.476C304.083 277.952 303.384 279.007 301.763 279.066C300.001 279.12 299.239 277.659 298.704 276.452C298.239 275.398 297.958 274.163 297.974 272.847C297.997 270.683 297.13 268.855 294.575 268.566C291.907 268.249 291.614 270.284 291.337 272.093C290.938 274.667 290.817 277.288 290.47 279.866C290.001 283.323 288.239 285.062 285.579 284.839C283.087 284.648 281.849 282.863 281.751 279.277C281.692 276.952 281.743 274.624 281.595 272.312C281.54 271.265 281.224 269.945 279.935 269.929C278.317 269.902 278.798 271.437 278.7 272.378C278.528 273.999 278.872 275.648 278.423 277.288C277.903 279.195 276.517 279.956 274.774 280.015C272.95 280.07 272.31 278.659 272.099 277.132C271.888 275.609 271.935 274.05 271.782 272.507C271.677 271.406 271.888 269.839 270.376 269.718C268.794 269.593 268.423 270.976 268.333 272.339C268.173 274.843 267.993 277.351 267.79 279.859C267.645 281.636 267.489 283.519 265.169 283.738C262.872 283.948 261.958 282.374 261.364 280.484C260.466 277.652 260.653 274.738 260.685 271.851C260.7 270.374 260.61 268.937 260.052 267.573C259.435 266.05 258.282 265.253 256.618 265.577C255.079 265.878 254.032 266.745 253.852 268.46C253.528 271.534 254.681 274.519 254.145 277.667C253.731 280.101 252.298 281.124 250.278 281.343C247.938 281.605 247.454 279.812 247.395 277.894C247.341 275.593 247.47 273.296 246.852 270.999C246.489 269.644 246.13 268.538 244.591 268.468C242.724 268.378 242.767 269.96 242.634 271.12C242.286 274.195 242.157 277.288 241.817 280.363C241.532 282.933 240.599 285.167 237.556 285.359C234.88 285.531 232.852 283.452 232.31 280.152C231.911 277.757 231.829 275.355 232.075 272.921C232.302 270.659 232.618 268.355 231.856 265.773C229.989 267.031 230.321 268.89 229.81 270.398C229.493 271.3 230.11 273.386 227.813 272.605C226.267 269.027 227.165 265.433 227.79 261.855C227.931 261.019 228.536 260.546 229.372 260.37C230.403 260.152 231.427 259.898 232.462 259.722C236.505 259.007 236.505 259.023 236.552 254.866C238.384 255.413 240.212 256.394 242.044 256.394C244.645 256.394 245.036 257.917 244.727 259.656C244.435 261.343 245.149 261.359 246.36 261.48C259.376 262.722 272.423 262.909 285.474 262.429C291.45 262.218 297.462 262.089 303.384 261.019C304.665 260.792 306.173 260.906 306.716 259.249C315.388 259.882 316.005 260.523 316.056 269.109ZM334.704 127.902C334.727 131.577 334.841 135.261 333.185 138.702C330.688 139.796 329.845 138.734 329.81 136.277C329.786 134.741 329.567 133.191 329.243 131.683C328.95 130.288 327.938 129.62 326.485 129.597C325.052 129.573 324.435 130.402 324.11 131.659C323.802 132.866 323.345 134.05 323.071 135.269C322.739 136.738 322.032 137.792 320.411 137.851C318.649 137.906 317.888 136.445 317.352 135.238C316.88 134.183 316.606 132.948 316.622 131.64C316.645 129.476 315.77 127.64 313.231 127.351C310.556 127.042 310.27 129.077 309.985 130.878C309.591 133.452 309.466 136.073 309.118 138.652C308.649 142.116 306.895 143.847 304.227 143.636C301.735 143.433 300.497 141.648 300.407 138.07C300.341 135.738 300.392 133.409 300.251 131.097C300.188 130.058 299.88 128.73 298.591 128.714C296.966 128.695 297.454 130.222 297.349 131.163C297.169 132.784 297.52 134.433 297.071 136.073C296.552 137.98 295.165 138.741 293.423 138.808C291.599 138.863 290.958 137.445 290.747 135.925C290.544 134.402 290.583 132.835 290.438 131.3C290.325 130.198 290.536 128.624 289.024 128.511C287.442 128.378 287.079 129.761 286.989 131.124C286.821 133.628 286.649 136.144 286.438 138.652C286.302 140.421 286.145 142.304 283.817 142.523C281.532 142.734 280.606 141.159 280.013 139.269C279.114 136.437 279.302 133.531 279.333 130.636C279.349 129.159 279.259 127.722 278.708 126.359C278.091 124.835 276.923 124.038 275.27 124.363C273.735 124.671 272.681 125.531 272.501 127.245C272.177 130.327 273.337 133.312 272.802 136.452C272.38 138.894 270.946 139.909 268.935 140.128C266.599 140.39 266.102 138.605 266.056 136.687C265.989 134.378 266.11 132.081 265.501 129.784C265.138 128.437 264.778 127.323 263.239 127.253C261.38 127.163 261.415 128.745 261.282 129.913C260.935 132.98 260.806 136.073 260.466 139.148C260.188 141.726 259.247 143.952 256.208 144.144C253.528 144.316 251.509 142.238 250.958 138.945C250.567 136.542 250.477 134.148 250.724 131.714C250.95 129.445 251.267 127.14 250.505 124.566C248.645 125.823 248.97 127.675 248.458 129.183C248.149 130.093 248.759 132.171 246.466 131.39C244.915 127.82 245.825 124.226 246.438 120.64C246.587 119.812 247.192 119.331 248.02 119.163C249.052 118.945 250.075 118.683 251.11 118.507C255.153 117.8 255.153 117.808 255.2 113.652C257.032 114.198 258.868 115.187 260.692 115.187C263.294 115.187 263.677 116.702 263.384 118.441C263.083 120.136 263.798 120.152 265.017 120.265C278.028 121.507 291.079 121.695 304.13 121.222C310.106 121.003 316.11 120.874 322.032 119.812C323.313 119.577 324.821 119.698 325.368 118.042C334.044 118.667 334.653 119.316 334.704 127.902ZM239.77 230.745C239.536 231.515 239.31 232.343 239.091 233.195C239.27 232.206 239.462 231.273 239.77 230.745ZM238.458 236.222C237.583 241.472 238.095 246.683 243.899 246.249C250.813 246.698 245.985 232.378 249.845 232.675C254.673 233.05 249.321 242.656 254.212 242.999C261.642 243.527 253.79 230.722 259.798 230.3C266.474 229.835 259.177 245.124 266.372 244.906C271.122 244.757 266.735 233.781 270.571 233.804C273.583 233.82 269.849 242.066 274.442 241.902C279.071 241.73 276.251 233.941 278.431 233.948C282.286 233.96 276.802 245.691 283.419 245.827C290.106 245.976 284.782 232.8 289.868 232.718C295.052 232.628 291.638 241.222 296.157 241.089C299.685 240.984 297.431 234.12 300.56 234.39C305.759 234.835 301.493 246.105 306.419 245.577C309.677 240.921 310.224 235.687 308.04 229.894C308.087 230.218 307.122 229.57 305.614 228.386C298.47 222.745 286.618 221.577 274.97 220.929C273.614 220.855 229.892 222.218 236.513 236.433C237.54 237.812 238.083 237.351 238.458 236.222ZM258.419 89.5305C258.185 90.3001 257.95 91.1282 257.739 91.9876C257.919 90.9915 258.114 90.0579 258.419 89.5305ZM257.106 95.0071C256.231 100.265 256.735 105.468 262.54 105.034C269.462 105.491 264.626 91.1633 268.497 91.4602C273.329 91.8352 267.977 101.441 272.86 101.792C280.29 102.312 272.446 89.5071 278.45 89.093C285.114 88.6204 277.825 103.917 285.02 103.698C289.782 103.55 285.384 92.5657 289.22 92.5891C292.231 92.6047 288.497 100.859 293.091 100.687C297.731 100.515 294.899 92.7336 297.079 92.7336C300.942 92.7454 295.45 104.484 302.071 104.624C308.747 104.761 303.431 91.593 308.517 91.5032C313.7 91.4133 310.286 100.007 314.806 99.8743C318.333 99.7688 316.079 92.9055 319.2 93.1829C324.407 93.6282 320.142 104.898 325.075 104.363C328.337 99.7063 328.872 94.4797 326.688 88.679C326.735 89.011 325.77 88.3626 324.263 87.1711C317.126 81.5383 305.274 80.3626 293.618 79.7141C292.263 79.6399 248.54 81.011 255.169 95.218C256.196 96.5969 256.735 96.136 257.106 95.0071ZM397.454 297.109C397.38 297.765 397.317 298.433 397.243 299.089C396.118 298.984 394.997 298.87 393.868 298.757C393.462 298.269 393.032 298.066 392.532 298.628L392.263 298.523C386.302 297.175 386.302 297.175 386.786 290.773C389.028 291.769 391.435 291.933 393.813 292.273C397.169 292.753 397.845 293.687 397.454 297.109ZM252.395 162.491C246.423 161.144 246.423 161.144 246.919 154.741C249.149 155.741 251.56 155.902 253.935 156.241C257.302 156.722 257.966 157.656 257.575 161.07C257.505 161.738 257.438 162.402 257.364 163.058C256.239 162.952 255.118 162.839 253.993 162.726C253.595 162.238 253.157 162.038 252.653 162.597L252.395 162.491ZM485.239 156.656C485.563 159.495 484.095 160.745 481.653 160.894C476.513 161.21 471.466 162.175 466.29 162.409C451.235 163.109 436.173 163.312 421.126 162.816C412.04 162.523 402.88 162.671 393.852 161.015C390.95 160.48 389.384 159.39 389.813 156.179C390.099 154.062 390.024 151.886 390.106 149.738C396.661 151.804 403.489 151.976 410.239 152.339C431.247 153.484 452.274 153.378 473.267 151.773C477.224 151.472 481.192 151.019 485.036 149.882C485.087 152.144 484.981 154.417 485.239 156.656ZM389.985 119.577C389.977 115.218 389.958 110.87 389.942 106.503C391.485 106.472 393.431 105.823 394.493 106.515C397.364 108.378 400.497 107.234 403.415 107.948C405.388 108.437 407.649 108.097 409.427 108.573C413.563 109.679 417.716 109.144 421.821 109.409C423.403 109.515 424.661 110.902 426.372 110.148C428.716 109.124 431.231 109.581 433.673 109.757C437.208 110.011 440.739 109.554 444.282 109.652C447.243 109.726 450.407 109.659 453.302 109.019C455.485 108.542 457.431 109.476 459.524 108.995C463.134 108.167 466.892 108.484 470.563 108.234C475.685 107.886 480.704 107.601 485.556 105.855C485.524 110.495 485.938 115.156 485.313 119.788C483.431 119.488 481.895 120.702 480.102 120.941C471.044 122.124 461.95 122.698 452.81 122.796C436.665 122.96 420.517 123.245 404.415 122.011C399.579 121.644 394.56 121.777 389.985 119.577ZM485.134 130.546C485.946 133.312 485.864 136.089 485.188 138.87C479.595 140.656 473.743 140.941 467.962 141.265C445.442 142.531 422.927 142.581 400.431 140.714C396.895 140.421 393.376 139.894 389.958 138.863C389.985 136.066 390.009 133.265 390.032 130.464C395.81 132.511 401.884 132.648 407.868 132.988C430.251 134.261 452.638 134.269 475.001 132.398C478.419 132.113 481.864 131.738 485.134 130.546ZM600.052 132.812C598.981 133.499 597.77 133.937 596.595 134.335C597.544 134.999 598.47 135.554 599.556 134.562C599.81 134.343 600.528 134.32 600.806 134.515C601.95 135.335 602.923 134.968 604.067 134.499C605.032 134.109 605.884 134.886 606.774 135.23C607.27 135.413 608.392 134.261 609.462 134.491C609.786 134.562 610.192 134.667 610.388 134.906C610.825 135.413 611.083 135.316 611.595 134.945C613.028 133.89 614.685 134.296 615.173 135.722C614.095 141.031 612.958 146.335 611.977 151.659C611.755 152.843 611.302 153.988 611.302 155.23C611.294 156.023 610.767 156.632 609.989 156.843C607.821 157.429 605.688 158.003 603.395 158.077C600.442 158.167 597.489 158.206 594.544 158.296C591.614 158.386 588.735 157.913 585.841 157.859C584.403 157.827 583.22 156.972 581.825 156.835C581.153 156.769 580.845 156.015 580.712 155.359C579.974 151.675 579.263 147.991 578.524 144.308C578.075 142.054 577.645 139.796 577.145 137.558C576.966 136.777 576.958 136.007 576.919 135.23C577.427 134.366 578.313 134.23 579.091 134.464C580.325 134.839 581.477 135.538 582.692 134.472L583.083 134.448C583.935 134.409 584.524 135.23 585.165 135.277C585.743 135.327 586.317 134.394 587.185 134.394C588.118 134.402 588.794 135.034 589.548 135.238C590.083 135.382 590.876 134.327 591.833 134.441C592.321 134.507 592.817 134.554 593.173 134.878C593.813 135.472 594.22 135.179 594.649 134.57C590.919 134.23 587.52 132.972 584.29 131.238C583.423 130.765 582.548 130.472 581.548 130.628C579.634 130.921 577.849 130.628 576.302 129.37C576.169 128.687 576.356 128.331 577.005 128.859C578.313 129.921 579.747 130.019 581.313 129.671C582.181 129.468 583.009 129.613 583.829 130.058C585.743 131.097 587.739 131.941 589.79 132.679C593.872 134.14 597.634 133.648 601.212 131.269C603.442 129.792 605.958 129.288 608.602 129.023C610.751 128.8 612.958 129.128 615.06 128.413C615.438 128.284 615.755 128.249 615.806 128.777C615.325 129.265 614.751 129.542 614.075 129.597C613.208 129.671 612.341 129.847 611.481 129.823C607.368 129.702 603.54 130.562 600.052 132.812ZM397.618 228.019C397.794 227.023 397.997 226.089 398.298 225.562C398.063 226.331 397.837 227.159 397.618 228.019ZM441.946 240.652C448.63 240.792 443.31 227.62 448.395 227.531C453.579 227.445 450.173 236.042 454.681 235.906C458.212 235.8 455.954 228.937 459.087 229.21C464.286 229.659 460.02 240.929 464.95 240.394C468.212 235.734 468.747 230.511 466.567 224.71C466.614 225.042 465.657 224.394 464.142 223.198C457.001 217.57 445.149 216.394 433.493 215.741C432.142 215.671 388.419 217.042 395.044 231.249C396.067 232.628 396.618 232.167 396.985 231.038C396.106 236.296 396.618 241.495 402.427 241.066C409.337 241.511 404.513 227.191 408.372 227.491C413.208 227.866 407.852 237.472 412.735 237.82C420.169 238.339 412.313 225.534 418.325 225.124C425.001 224.652 417.7 239.948 424.895 239.726C429.657 239.581 425.263 228.597 429.099 228.62C432.106 228.644 428.376 236.886 432.966 236.718C437.599 236.546 434.778 228.765 436.958 228.765C440.81 228.773 435.321 240.515 441.946 240.652Z" fill="#D8779D"/>
<path d="M731.13 525.875C518.798 530.711 306.743 525.746 94.4346 522.199C86.1142 522.093 93.1142 528.925 94.1767 530.359C96.6338 533.664 129.212 531.961 133.938 532.171C156.724 533.144 179.509 534.117 202.298 534.976C227.79 535.933 253.286 536.781 278.774 537.679C371.911 540.98 465.251 544.617 558.454 543.742C574.622 543.593 948.603 535.406 947.813 526.183C946.907 515.527 749.071 525.461 731.13 525.875ZM666.634 399.937C666.259 398.957 666.106 397.867 665.294 397.105C665.587 395.636 665.376 395.304 664.126 395.336C664.021 394.777 663.583 394.484 663.2 394.152C663.243 392.855 662.38 392.757 661.407 392.796C661.075 392.05 660.306 391.855 659.712 391.441C659.915 390.273 659.146 390.113 658.384 390.378C653.271 392.187 648.114 391.726 642.931 390.882C641.462 390.648 640.083 390.144 638.712 389.55C637.876 389.195 637.017 389.031 636.61 390.191C635.704 390.648 634.696 390.929 634.017 391.75C633.075 391.605 632.329 391.75 632.247 392.918C631.356 393.339 630.642 393.941 630.282 394.906C628.985 394.648 628.97 395.5 629.001 396.382C628.368 396.902 628.231 397.707 627.841 398.363C626.626 398.648 626.446 399.238 627.177 400.593C627.153 401.308 627.138 402.031 627.122 402.746C626.267 403.75 627.438 404.269 627.657 405.015C631.013 406.679 634.649 406.996 638.298 407.273C644.22 407.726 650.149 407.546 656.063 407.222C659.349 407.039 662.603 406.582 665.845 406.082C666.47 405.519 667.396 405.058 666.575 403.996C666.747 403.363 666.923 402.73 666.763 402.062C667.372 401.316 667.88 400.57 666.634 399.937ZM651.212 385.015C652.251 384.75 653.11 383.968 653.677 382.875C654.188 381.875 654.196 380.894 653.419 379.992C652.517 378.98 651.376 378.324 650.134 377.867C649.403 377.609 649.353 377.324 649.759 376.738C650.271 376 650.821 375.367 651.806 375.328C652.056 375.32 652.341 375.312 652.313 374.964L652.103 374.558C651.903 374.402 651.724 374.566 651.56 374.695C650.731 375.343 649.72 375.824 649.306 376.886C649.056 377.55 648.552 377.363 648.079 377.308C646.911 377.171 645.974 377.496 645.329 378.543C644.868 379.304 644.837 379.968 645.267 380.828C646.474 383.246 648.38 384.593 651.212 385.015ZM603.88 399.921C603.489 399.265 603.353 398.453 602.72 397.941C602.743 397.05 602.728 396.207 601.438 396.457C601.083 395.5 600.368 394.89 599.466 394.468C599.396 393.3 598.649 393.156 597.708 393.308C597.024 392.48 596.013 392.195 595.11 391.75C594.696 390.589 593.837 390.746 593.001 391.101C591.642 391.695 590.263 392.195 588.794 392.441C583.61 393.285 578.442 393.738 573.333 391.937C572.567 391.66 571.798 391.824 572.009 392.992C571.411 393.406 570.638 393.609 570.306 394.347C569.341 394.316 568.474 394.414 568.521 395.711C568.134 396.043 567.692 396.336 567.599 396.894C566.349 396.863 566.13 397.195 566.431 398.656C565.61 399.425 565.462 400.515 565.083 401.488C563.841 402.128 564.353 402.875 564.954 403.621C564.79 404.285 564.978 404.91 565.146 405.543C564.321 406.617 565.251 407.07 565.876 407.636C569.114 408.14 572.376 408.593 575.653 408.773C581.575 409.105 587.493 409.277 593.415 408.832C597.067 408.546 600.708 408.238 604.067 406.566C604.286 405.82 605.446 405.3 604.603 404.304C604.579 403.589 604.563 402.867 604.544 402.144C605.267 400.796 605.091 400.199 603.88 399.921ZM580.501 386.574C583.341 386.152 585.247 384.804 586.458 382.386C586.888 381.527 586.853 380.855 586.392 380.089C585.751 379.043 584.802 378.726 583.642 378.867C583.173 378.921 582.669 379.101 582.407 378.445C581.993 377.371 580.989 376.894 580.153 376.246C579.993 376.125 579.821 375.953 579.618 376.105L579.399 376.511C579.384 376.871 579.669 376.871 579.911 376.886C580.892 376.925 581.442 377.55 581.954 378.289C582.368 378.875 582.31 379.168 581.591 379.425C580.341 379.871 579.196 380.531 578.306 381.55C577.524 382.453 577.532 383.433 578.044 384.425C578.603 385.527 579.466 386.304 580.501 386.574ZM599.556 134.562C599.81 134.343 600.528 134.32 600.806 134.515C601.95 135.336 602.923 134.968 604.067 134.5C605.032 134.109 605.884 134.886 606.774 135.23C607.271 135.414 608.392 134.261 609.462 134.492C609.786 134.562 610.192 134.668 610.388 134.906C610.825 135.414 611.083 135.316 611.595 134.945C613.028 133.89 614.685 134.296 615.173 135.722C616.517 133.507 616.438 131.171 615.806 128.777C615.325 129.265 614.751 129.543 614.075 129.597C613.208 129.671 612.341 129.847 611.481 129.824C607.368 129.703 603.54 130.562 600.052 132.812C598.981 133.5 597.771 133.937 596.595 134.336C597.544 135 598.47 135.554 599.556 134.562ZM677.614 189.836C665.368 189.836 653.11 189.836 640.86 189.836C607.54 189.836 574.216 189.836 540.892 189.836C540.876 193.285 540.853 196.734 540.821 200.179C553.798 200.214 566.771 200.238 579.739 200.187C596.505 200.125 613.274 200.003 630.032 199.734C640.587 199.562 671.759 204.222 680.333 198.574C686.919 194.242 684.29 191.531 677.614 189.836ZM579.091 134.464C580.325 134.839 581.478 135.539 582.692 134.472L583.083 134.449C583.935 134.41 584.524 135.23 585.165 135.277C585.743 135.328 586.317 134.394 587.185 134.394C588.118 134.402 588.794 135.035 589.548 135.238C590.083 135.382 590.876 134.328 591.833 134.441C592.321 134.507 592.817 134.554 593.173 134.878C593.813 135.472 594.22 135.179 594.649 134.57C590.919 134.23 587.521 132.972 584.29 131.238C583.423 130.765 582.548 130.472 581.548 130.628C579.634 130.921 577.849 130.628 576.302 129.371C576.001 131.375 575.767 133.378 576.919 135.23C577.427 134.367 578.313 134.23 579.091 134.464ZM761.685 129.742C760.825 129.769 759.958 129.597 759.099 129.523C758.415 129.468 757.841 129.191 757.368 128.707C756.735 131.097 756.646 133.437 757.993 135.652C758.481 134.222 760.142 133.816 761.571 134.863C762.083 135.246 762.341 135.343 762.778 134.832C762.974 134.597 763.38 134.492 763.704 134.418C764.782 134.183 765.896 135.336 766.388 135.148C767.29 134.816 768.134 134.035 769.099 134.425C770.243 134.886 771.216 135.261 772.36 134.441C772.634 134.238 773.364 134.261 773.61 134.492C774.696 135.48 775.622 134.929 776.571 134.253C775.392 133.867 774.192 133.425 773.114 132.738C769.626 130.492 765.798 129.621 761.685 129.742ZM864.435 256.613C862.747 239.128 860.524 221.519 856.778 204.343C856.243 201.91 853.825 201.964 852.169 202.98C849.81 204.433 851.415 210.492 851.481 212.863C851.716 221.675 852.31 230.468 853.048 239.242C853.712 247.136 854.497 255.015 855.489 262.878C856.235 268.785 855.716 284.429 859.688 288.972C869.36 300.015 864.888 261.304 864.435 256.613ZM870.981 338.07C868.931 329.582 865.54 344.097 865.548 345.226C865.618 352.511 866.048 359.796 866.634 367.05C867.146 373.582 867.794 380.097 868.638 386.589C869.317 391.808 868.985 403.961 872.353 408.132C881.317 419.25 878.071 385.308 877.681 381.234C876.317 366.793 874.403 352.187 870.981 338.07ZM976.294 171.043C958.942 125.793 935.743 82.441 907.149 43.0543C906.138 41.6597 904.7 39.9957 903.095 38.1793C782.021 38.1793 660.938 38.1793 539.856 38.1793C540.13 51.023 540.341 63.8433 540.521 76.6441C571.927 76.6793 603.337 76.7261 634.747 76.816C703.044 77.0113 771.345 77.2378 839.638 78.0425C848.899 73.1246 858.173 68.1988 867.446 63.2808C872.603 60.5464 877.974 56.7652 883.458 54.7769C884.341 54.4605 885.704 53.0894 886.646 53.0894C888.704 53.0816 893.646 55.4214 889.396 57.7886C878.146 64.0543 866.899 70.3082 855.657 76.566C851.505 78.8785 846.88 82.5269 842.341 83.98C831.146 87.5503 815.325 84.8394 803.478 84.9371C759.169 85.2964 714.856 85.5855 670.544 85.7105C627.243 85.8238 583.942 86.0347 540.642 86.0582C541.591 166.628 540.626 246.461 538.907 326.75C538.931 325.648 538.954 324.535 538.978 323.421C574.79 323.421 610.614 323.421 646.427 323.421C657.458 323.421 668.497 323.421 679.528 323.421C686.505 325.121 689.384 327.855 682.661 332.277C674.087 337.914 642.923 333.265 632.36 333.429C615.603 333.695 598.833 333.816 582.067 333.89C567.63 333.945 553.192 333.921 538.751 333.875C538.056 365.707 537.243 397.609 536.392 429.66C579.618 429.66 622.837 429.66 666.063 429.66C758.36 429.66 850.638 429.66 942.931 429.66C953.989 429.66 976.888 425.39 993.79 426.144C1016.91 342.476 1007.09 251.355 976.294 171.043ZM506.052 429.66C505.259 397.527 504.61 365.55 504.114 333.656C496.571 333.589 489.036 333.558 481.493 333.476C447.966 333.086 414.442 332.535 380.923 331.57C374.067 331.375 334.329 334.554 330.638 329.816C329.845 328.785 326.411 325.507 326.853 323.421C385.896 323.421 444.923 323.421 503.962 323.421C503.993 325.101 504.017 326.773 504.04 328.445C502.833 247.597 502.696 167.214 504.001 86.0816C461.708 86.0816 419.403 86.1246 377.11 85.9996C352.79 85.9371 328.466 85.855 304.146 85.7418C291.103 85.6753 278.06 85.5855 265.017 85.5152C253.368 85.4488 239.7 87.3707 228.204 85.3043C217.595 83.398 206.415 76.1089 196.634 71.7847C188.196 68.0543 179.755 64.3277 171.31 60.5972C168.618 59.4136 161.235 57.7339 159.419 55.3472C153.212 47.1988 163.458 50.066 167.286 51.4371C174.872 54.1714 182.267 57.7339 189.7 60.855C202.759 66.3394 215.817 71.8277 228.868 77.3121C290.282 76.9605 351.696 76.6207 413.103 76.5894C443.466 76.5816 473.825 76.5894 504.188 76.6128C504.415 63.816 504.642 51.0152 504.942 38.1793C395.946 38.1793 286.95 38.1793 177.962 38.1793C161.001 38.1793 144.38 40.6832 132.356 39.7925C108.321 73.2378 69.4424 135.976 46.5439 218.113C20.626 311.082 34.5322 392.742 43.4033 428.621C46.6728 429.066 50.6142 429.586 55.4111 429.961C73.4346 431.347 88.3681 429.66 107.22 429.66C240.161 429.66 373.103 429.66 506.052 429.66ZM1022.79 456.839C1022.25 458.211 1021.7 459.281 1021.12 460.152C1021.07 463.648 1020.88 467.293 1020.62 471.046C1019.59 485.961 1007.24 497.554 992.298 497.554H99.5439C60.3916 497.554 22.6963 514.613 22.1377 472.234C-54.9404 231.929 92.1885 28.9839 115.145 1.85113C115.591 1.31597 117.27 1.54253 119.599 2.21832C122.364 -0.305121 127.61 1.38238 141.595 2.07769C156.442 2.81597 168.755 1.92535 184.278 1.92535C337.778 1.92535 491.267 1.92535 644.755 1.92535C720.794 1.92535 796.841 1.92535 872.88 1.92535C885.446 1.92535 916.56 -2.40668 927.708 1.92535C935.403 4.91753 937.302 10.4293 937.325 17.1285C972.954 63.6168 999.22 126.41 1016.33 180.382C1042.48 262.773 1046 397.867 1022.79 456.839ZM698.591 128.617C697.985 130.902 697.942 133.476 699.216 135.562C700.271 132.461 715.067 136.089 717.794 134.175C714.669 133.128 712.067 131.14 708.845 130.304C706.192 129.613 700.556 130.652 698.591 128.617ZM851.302 133.402C850.263 120.73 848.552 107.828 845.212 95.5347C844.067 91.3628 840.993 94.6832 839.802 96.1128C837.567 98.7808 839.833 111.878 840.036 115.339C840.399 121.711 840.978 128.089 841.802 134.41C842.313 138.296 842.411 150.539 845.267 153.296C854.79 162.507 851.677 138.035 851.302 133.402ZM730.763 130.808C726.896 131.707 723.907 134.027 719.739 134.41C720.501 135.472 726.845 134.675 728.321 134.695C730.146 134.711 736.368 133.214 737.47 135.066C738.567 133.304 738.38 131.148 738.087 129.207C735.899 130.984 733.255 130.222 730.763 130.808ZM644.618 135.261C645.13 135.632 645.388 135.73 645.825 135.211C646.021 134.976 646.427 134.878 646.759 134.808C647.821 134.57 648.942 135.722 649.435 135.539C650.329 135.203 651.181 134.425 652.146 134.816C653.29 135.277 654.271 135.652 655.407 134.832C655.681 134.628 656.403 134.652 656.653 134.871C657.751 135.871 658.665 135.308 659.614 134.652C658.438 134.253 657.239 133.816 656.161 133.121C652.673 130.878 648.845 130.011 644.731 130.132C643.872 130.164 643.001 129.988 642.142 129.914C641.462 129.847 640.888 129.582 640.415 129.093C639.774 131.488 639.692 133.824 641.048 136.039C641.528 134.613 643.188 134.207 644.618 135.261ZM791.618 130.546C790.618 130.394 789.743 130.683 788.876 131.156C785.646 132.898 782.247 134.148 778.517 134.492C778.946 135.097 779.353 135.39 780.001 134.808C780.356 134.484 780.845 134.433 781.333 134.367C782.29 134.253 783.083 135.308 783.618 135.164C784.372 134.961 785.048 134.32 785.978 134.32C786.849 134.32 787.423 135.246 787.997 135.203C788.642 135.148 789.231 134.336 790.091 134.378L790.474 134.402C791.688 135.464 792.841 134.765 794.075 134.394C794.853 134.156 795.739 134.289 796.247 135.156C797.399 133.296 797.173 131.3 796.864 129.296C795.317 130.554 793.532 130.855 791.618 130.546ZM410.239 152.339C431.247 153.484 452.274 153.378 473.267 151.773C477.224 151.472 481.192 151.019 485.036 149.882C485.622 146.214 485.337 142.539 485.188 138.871C479.595 140.656 473.743 140.941 467.962 141.265C445.442 142.531 422.927 142.582 400.431 140.714C396.896 140.421 393.376 139.894 389.958 138.863C390.009 142.492 390.056 146.109 390.106 149.738C396.661 151.804 403.489 151.976 410.239 152.339ZM260.692 115.187C263.294 115.187 263.677 116.703 263.384 118.441C263.083 120.136 263.798 120.152 265.017 120.265C278.028 121.507 291.079 121.695 304.13 121.222C310.106 121.003 316.11 120.875 322.032 119.812C323.313 119.578 324.821 119.699 325.368 118.043C325.271 113.484 325.173 108.921 325.075 104.363C322.802 104.605 322.575 103.039 322.501 101.402C322.415 99.2925 322.567 97.1832 321.767 95.1207C321.271 93.8472 320.481 93.2964 319.2 93.1832C317.603 93.0425 317.677 94.3902 317.384 95.3003C316.825 97.0425 317.353 99.8043 314.806 99.8746C311.966 99.9566 312.72 96.9058 311.935 95.2183C311.61 94.5191 311.478 93.7261 311.122 93.0503C310.579 92.0543 309.685 91.4878 308.517 91.5035C307.149 91.5269 306.716 92.605 306.524 93.6363C306.118 95.8121 305.735 98.0113 305.63 100.211C305.524 102.66 304.13 104.664 302.071 104.625C299.45 104.566 298.681 102.789 298.606 100.515C298.532 98.4878 298.54 96.4527 298.396 94.4332C298.345 93.6753 297.981 92.7339 297.079 92.7339C295.923 92.7339 296.302 93.8785 296.196 94.5386C296.017 95.6714 296.099 96.8511 295.954 98.0035C295.751 99.648 294.833 100.621 293.091 100.687C291.231 100.753 290.876 99.3902 290.657 98.0191C290.478 96.8824 290.552 95.7066 290.431 94.5543C290.349 93.7261 290.438 92.5972 289.22 92.5894C288.11 92.5894 287.931 93.6675 287.771 94.48C287.56 95.5191 287.567 96.5972 287.485 97.6519C287.388 98.8121 287.349 99.9722 287.2 101.117C287.048 102.433 286.681 103.64 285.021 103.699C283.536 103.738 282.731 102.847 282.228 101.589C281.419 99.5503 281.548 97.4019 281.497 95.2847C281.466 93.8316 281.54 92.3707 281.044 90.9761C280.614 89.7652 279.81 88.9957 278.45 89.0933C277.095 89.1832 276.306 90.0738 276.138 91.3082C275.981 92.4371 276.138 93.6128 276.177 94.7652C276.208 95.8277 276.419 96.898 276.29 97.9371C276.024 99.9488 275.407 101.968 272.86 101.793C270.313 101.605 270.806 99.4293 270.743 97.7574C270.677 96.1128 270.782 94.4722 270.126 92.898C269.794 92.1128 269.372 91.5269 268.497 91.4605C267.399 91.3824 267.384 92.2886 267.134 93.0035C266.372 95.1636 266.774 97.4175 266.524 99.6246C266.079 103.511 264.845 105.183 262.54 105.035C260.021 104.875 258.552 102.925 258.446 99.2925C258.341 96.1597 258.419 93.0191 258.419 89.5308C256.927 90.4058 257.024 91.5191 256.735 92.4761C256.419 93.4839 256.79 94.941 255.169 95.2183C255.177 101.371 255.192 107.511 255.2 113.652C257.032 114.199 258.868 115.187 260.692 115.187ZM407.868 132.988C430.251 134.261 452.638 134.269 475.001 132.398C478.419 132.113 481.864 131.738 485.134 130.546C485.188 126.961 485.247 123.375 485.313 119.789C483.431 119.488 481.896 120.703 480.103 120.941C471.044 122.125 461.95 122.699 452.81 122.796C436.665 122.961 420.517 123.246 404.415 122.011C399.579 121.644 394.56 121.777 389.985 119.578C390.001 123.211 390.017 126.839 390.032 130.464C395.81 132.511 401.884 132.648 407.868 132.988ZM663.048 135.195C663.396 134.871 663.899 134.816 664.384 134.757C665.333 134.636 666.13 135.699 666.665 135.554C667.427 135.351 668.091 134.711 669.024 134.711C669.892 134.711 670.478 135.632 671.044 135.586C671.685 135.539 672.286 134.718 673.138 134.765L673.521 134.781C674.735 135.843 675.888 135.156 677.13 134.781C677.907 134.539 678.782 134.675 679.294 135.546C680.446 133.687 680.22 131.691 679.911 129.687C678.36 130.945 676.587 131.238 674.661 130.945C673.673 130.781 672.798 131.074 671.923 131.546C668.692 133.289 665.294 134.539 661.563 134.878C662.001 135.488 662.407 135.781 663.048 135.195ZM469.681 272.304C469.665 270.773 469.438 269.214 469.122 267.714C468.829 266.316 467.813 265.652 466.364 265.628C464.919 265.605 464.31 266.421 463.985 267.687C463.677 268.898 463.224 270.074 462.95 271.293C462.606 272.769 461.911 273.824 460.286 273.878C458.528 273.937 457.767 272.476 457.231 271.265C456.767 270.211 456.493 268.98 456.501 267.664C456.524 265.507 455.649 263.671 453.11 263.378C450.431 263.07 450.142 265.109 449.864 266.91C449.466 269.48 449.345 272.101 448.997 274.683C448.524 278.148 446.767 279.875 444.106 279.664C441.614 279.461 440.372 277.675 440.274 274.097C440.22 271.769 440.267 269.449 440.13 267.128C440.063 266.082 439.759 264.757 438.466 264.742C436.845 264.726 437.325 266.253 437.228 267.195C437.048 268.816 437.396 270.464 436.95 272.101C436.431 274.007 435.044 274.773 433.302 274.828C431.474 274.894 430.833 273.472 430.63 271.957C430.419 270.421 430.462 268.867 430.306 267.332C430.2 266.226 430.411 264.652 428.903 264.539C427.321 264.41 426.95 265.789 426.86 267.152C426.696 269.668 426.521 272.175 426.317 274.675C426.169 276.453 426.024 278.336 423.696 278.554C421.399 278.765 420.493 277.191 419.892 275.3C418.989 272.476 419.177 269.554 419.212 266.668C419.228 265.191 419.138 263.753 418.587 262.39C417.962 260.863 416.802 260.07 415.146 260.394C413.606 260.703 412.56 261.562 412.38 263.273C412.056 266.359 413.216 269.343 412.673 272.484C412.259 274.925 410.821 275.941 408.81 276.16C406.474 276.418 405.981 274.632 405.923 272.718C405.876 270.406 405.989 268.109 405.38 265.816C405.024 264.468 404.657 263.355 403.126 263.281C401.251 263.195 401.298 264.777 401.161 265.945C400.813 269.011 400.685 272.101 400.349 275.179C400.067 277.757 399.134 279.98 396.091 280.175C393.407 280.347 391.38 278.269 390.837 274.976C390.446 272.574 390.356 270.171 390.599 267.738C390.837 265.472 391.146 263.168 390.38 260.597C388.517 261.855 388.849 263.703 388.337 265.214C388.021 266.121 388.638 268.199 386.341 267.421C385.962 275.218 386.95 282.984 386.786 290.773C389.028 291.769 391.435 291.933 393.813 292.273C396.099 292.597 397.122 293.16 397.431 294.546C422.747 294.546 448.056 294.546 473.372 294.546C473.274 287.941 473.161 281.336 473.056 274.73C470.563 275.828 469.72 274.765 469.681 272.304ZM393.552 109.589C397.618 115.675 482.821 116.687 485.556 105.855C488.29 95.0152 402.688 96.3941 394.063 101.976C385.442 107.55 393.552 109.589 393.552 109.589ZM396.61 228.507C396.294 229.511 396.669 230.972 395.044 231.25C395.052 237.398 395.071 243.543 395.079 249.683C396.911 250.226 398.735 251.218 400.571 251.218C403.173 251.218 403.563 252.734 403.255 254.472C402.962 256.168 403.677 256.183 404.884 256.296C417.903 257.539 430.954 257.726 444.001 257.253C449.985 257.035 455.989 256.906 461.911 255.843C463.192 255.605 464.7 255.722 465.243 254.074C465.146 249.515 465.048 244.953 464.95 240.394C462.673 240.636 462.454 239.07 462.38 237.433C462.29 235.324 462.446 233.211 461.642 231.152C461.146 229.878 460.36 229.316 459.087 229.211C457.481 229.074 457.556 230.421 457.263 231.332C456.704 233.074 457.231 235.832 454.681 235.906C451.845 235.988 452.599 232.937 451.817 231.25C451.493 230.55 451.356 229.757 450.993 229.082C450.458 228.086 449.571 227.507 448.396 227.531C447.024 227.558 446.587 228.636 446.399 229.668C445.993 231.839 445.614 234.039 445.517 236.238C445.403 238.691 444.009 240.695 441.946 240.652C439.317 240.597 438.556 238.82 438.485 236.546C438.419 234.519 438.427 232.484 438.274 230.461C438.216 229.707 437.86 228.773 436.958 228.765C435.798 228.765 436.181 229.91 436.083 230.566C435.896 231.703 435.978 232.878 435.829 234.031C435.63 235.679 434.712 236.652 432.966 236.718C431.103 236.781 430.743 235.418 430.544 234.054C430.364 232.914 430.427 231.734 430.306 230.582C430.216 229.757 430.313 228.628 429.099 228.621C427.985 228.613 427.81 229.699 427.646 230.511C427.442 231.55 427.442 232.628 427.364 233.683C427.267 234.843 427.224 236.003 427.087 237.148C426.923 238.461 426.567 239.671 424.896 239.726C423.411 239.769 422.61 238.875 422.106 237.617C421.294 235.582 421.415 233.433 421.376 231.312C421.345 229.863 421.415 228.402 420.923 227.003C420.493 225.796 419.688 225.027 418.325 225.125C416.97 225.211 416.185 226.105 416.013 227.339C415.86 228.472 416.013 229.644 416.048 230.793C416.087 231.859 416.298 232.929 416.169 233.968C415.899 235.972 415.282 238 412.735 237.82C410.188 237.636 410.685 235.453 410.618 233.789C410.556 232.14 410.661 230.503 409.997 228.929C409.669 228.14 409.247 227.558 408.372 227.492C407.278 227.402 407.263 228.32 407.009 229.035C406.247 231.191 406.661 233.449 406.403 235.656C405.954 239.543 404.724 241.214 402.427 241.066C399.903 240.906 398.435 238.957 398.313 235.324C398.216 232.191 398.298 229.05 398.298 225.562C396.806 226.437 396.903 227.55 396.61 228.507ZM246.919 154.742C249.149 155.742 251.56 155.902 253.935 156.242C255.427 156.453 256.36 156.769 256.935 157.339C282.446 157.339 307.958 157.339 333.47 157.339C333.388 151.125 333.282 144.918 333.185 138.703C330.688 139.796 329.845 138.734 329.81 136.277C329.786 134.742 329.567 133.191 329.243 131.683C328.95 130.289 327.938 129.621 326.485 129.597C325.052 129.574 324.435 130.402 324.11 131.66C323.802 132.867 323.345 134.05 323.071 135.269C322.739 136.738 322.032 137.793 320.411 137.851C318.649 137.906 317.888 136.445 317.353 135.238C316.88 134.183 316.606 132.949 316.622 131.64C316.646 129.476 315.771 127.64 313.231 127.351C310.556 127.043 310.271 129.078 309.985 130.878C309.591 133.453 309.466 136.074 309.118 138.652C308.649 142.117 306.896 143.847 304.228 143.636C301.735 143.433 300.497 141.648 300.407 138.07C300.341 135.738 300.392 133.41 300.251 131.097C300.188 130.058 299.88 128.73 298.591 128.714C296.966 128.695 297.454 130.222 297.349 131.164C297.169 132.785 297.521 134.433 297.071 136.074C296.552 137.98 295.165 138.742 293.423 138.808C291.599 138.863 290.958 137.445 290.747 135.925C290.544 134.402 290.583 132.836 290.438 131.3C290.325 130.199 290.536 128.625 289.024 128.511C287.442 128.378 287.079 129.761 286.989 131.125C286.821 133.628 286.649 136.144 286.438 138.652C286.302 140.421 286.146 142.304 283.817 142.523C281.532 142.734 280.606 141.16 280.013 139.269C279.114 136.437 279.302 133.531 279.333 130.636C279.349 129.16 279.259 127.722 278.708 126.359C278.091 124.836 276.923 124.039 275.271 124.363C273.735 124.671 272.681 125.531 272.501 127.246C272.177 130.328 273.337 133.312 272.802 136.453C272.38 138.894 270.946 139.91 268.935 140.128C266.599 140.39 266.103 138.605 266.056 136.687C265.989 134.378 266.11 132.082 265.501 129.785C265.138 128.437 264.778 127.324 263.239 127.253C261.38 127.164 261.415 128.746 261.282 129.914C260.935 132.98 260.806 136.074 260.466 139.148C260.188 141.726 259.247 143.953 256.208 144.144C253.528 144.316 251.509 142.238 250.958 138.945C250.567 136.543 250.478 134.148 250.724 131.714C250.95 129.445 251.267 127.14 250.505 124.566C248.645 125.824 248.97 127.675 248.458 129.183C248.149 130.093 248.759 132.171 246.466 131.39C246.083 139.187 247.071 146.953 246.919 154.742ZM217.083 95.5738C214.438 97.7496 214.099 110.285 213.618 113.66C212.54 121.136 207.04 143.789 211.454 150.273C218.802 161.07 220.661 137.296 221.196 132.761C222.614 120.671 223.419 108.226 222.501 96.0699C222.177 91.8277 218.544 94.3668 217.083 95.5738ZM311.153 277.492C311.138 275.949 310.911 274.398 310.595 272.89C310.302 271.503 309.282 270.836 307.837 270.812C306.392 270.789 305.786 271.609 305.462 272.875C305.153 274.082 304.696 275.257 304.423 276.476C304.083 277.953 303.384 279.007 301.763 279.066C300.001 279.121 299.239 277.66 298.704 276.453C298.239 275.398 297.958 274.164 297.974 272.847C297.997 270.683 297.13 268.855 294.575 268.566C291.907 268.25 291.614 270.285 291.337 272.093C290.938 274.668 290.817 277.289 290.47 279.867C290.001 283.324 288.239 285.062 285.579 284.839C283.087 284.648 281.849 282.863 281.751 279.277C281.692 276.953 281.743 274.625 281.595 272.312C281.54 271.265 281.224 269.945 279.935 269.929C278.317 269.902 278.798 271.437 278.7 272.378C278.528 274 278.872 275.648 278.423 277.289C277.903 279.195 276.517 279.957 274.774 280.015C272.95 280.07 272.31 278.66 272.099 277.132C271.888 275.609 271.935 274.05 271.782 272.507C271.677 271.406 271.888 269.839 270.376 269.718C268.794 269.593 268.423 270.976 268.333 272.339C268.173 274.843 267.993 277.351 267.79 279.859C267.646 281.636 267.489 283.519 265.169 283.738C262.872 283.949 261.958 282.375 261.364 280.484C260.466 277.652 260.653 274.738 260.685 271.851C260.7 270.375 260.61 268.937 260.052 267.574C259.435 266.05 258.282 265.253 256.618 265.578C255.079 265.878 254.032 266.746 253.853 268.461C253.528 271.535 254.681 274.519 254.145 277.668C253.731 280.101 252.298 281.125 250.278 281.343C247.938 281.605 247.454 279.812 247.395 277.894C247.341 275.593 247.47 273.296 246.853 271C246.489 269.644 246.13 268.539 244.591 268.468C242.724 268.378 242.767 269.961 242.634 271.121C242.286 274.195 242.157 277.289 241.817 280.363C241.532 282.933 240.599 285.168 237.556 285.359C234.88 285.531 232.853 283.453 232.31 280.152C231.911 277.757 231.829 275.355 232.075 272.921C232.302 270.66 232.618 268.355 231.856 265.773C229.989 267.031 230.321 268.89 229.81 270.398C229.493 271.3 230.11 273.386 227.813 272.605C227.458 279.925 228.294 287.226 228.27 294.546C257.099 294.546 285.927 294.546 314.763 294.546C314.685 289.668 314.61 284.793 314.528 279.918C312.032 281.011 311.188 279.949 311.153 277.492ZM378.587 197.875C412.103 198.836 445.63 199.394 479.165 199.773C487.138 199.863 495.103 199.906 503.075 199.968C503.075 196.586 503.083 193.211 503.083 189.836C443.56 189.836 384.036 189.836 324.513 189.836C324.196 191.914 327.524 195.109 328.302 196.117C331.993 200.863 371.739 197.683 378.587 197.875ZM194.138 339.878C191.841 345.64 191.692 353.738 190.907 359.871C190.009 366.996 189.31 374.152 188.872 381.324C188.595 385.691 186.196 396.425 188.505 400.222C195.587 411.882 198.157 382.921 198.606 378.832C200.161 364.812 201.153 350.507 200.431 336.398C200.056 328.98 194.704 338.441 194.138 339.878ZM242.044 256.394C244.645 256.394 245.036 257.918 244.728 259.656C244.435 261.343 245.149 261.359 246.36 261.48C259.376 262.722 272.423 262.91 285.474 262.429C291.45 262.218 297.462 262.089 303.384 261.019C304.665 260.793 306.173 260.906 306.716 259.25C306.622 254.699 306.524 250.136 306.419 245.578C304.146 245.82 303.927 244.253 303.853 242.617C303.767 240.507 303.911 238.39 303.114 236.336C302.622 235.062 301.833 234.503 300.56 234.39C298.954 234.25 299.028 235.597 298.728 236.515C298.177 238.257 298.704 241.011 296.157 241.089C293.317 241.171 294.071 238.121 293.286 236.425C292.97 235.726 292.829 234.941 292.466 234.269C291.938 233.261 291.044 232.695 289.868 232.718C288.497 232.734 288.06 233.812 287.876 234.843C287.47 237.019 287.087 239.218 286.981 241.425C286.868 243.867 285.481 245.878 283.419 245.828C280.794 245.781 280.028 244.003 279.958 241.73C279.884 239.695 279.899 237.668 279.747 235.64C279.688 234.89 279.325 233.949 278.431 233.949C277.263 233.949 277.653 235.093 277.548 235.746C277.368 236.886 277.442 238.066 277.306 239.207C277.095 240.863 276.185 241.839 274.442 241.902C272.575 241.968 272.22 240.605 272.009 239.234C271.837 238.097 271.896 236.914 271.782 235.761C271.692 234.933 271.79 233.812 270.571 233.804C269.462 233.796 269.282 234.882 269.118 235.695C268.907 236.734 268.919 237.804 268.837 238.867C268.747 240.027 268.688 241.179 268.56 242.332C268.399 243.648 268.032 244.855 266.372 244.906C264.884 244.953 264.083 244.062 263.579 242.796C262.767 240.765 262.892 238.617 262.849 236.492C262.817 235.039 262.892 233.586 262.396 232.191C261.966 230.98 261.153 230.211 259.798 230.3C258.446 230.398 257.657 231.281 257.489 232.523C257.333 233.652 257.489 234.828 257.521 235.98C257.56 237.043 257.771 238.113 257.642 239.144C257.376 241.156 256.759 243.183 254.212 243C251.657 242.82 252.157 240.636 252.095 238.964C252.028 237.328 252.134 235.687 251.47 234.105C251.145 233.328 250.724 232.742 249.845 232.675C248.751 232.589 248.735 233.496 248.485 234.211C247.72 236.367 248.134 238.632 247.876 240.832C247.431 244.718 246.196 246.398 243.899 246.25C241.38 246.082 239.911 244.14 239.79 240.507C239.692 237.375 239.77 234.234 239.77 230.746C238.278 231.621 238.376 232.734 238.083 233.683C237.778 234.699 238.142 236.156 236.513 236.433C236.528 242.578 236.544 248.726 236.552 254.867C238.384 255.414 240.212 256.394 242.044 256.394ZM212.403 206.046C212.759 223.117 211.528 240.312 209.806 257.277C209.337 261.855 206.099 299.894 198.88 287.164C195.97 282 199.399 267.339 199.813 261.515C200.364 253.839 201.11 246.187 201.989 238.55C202.97 230.054 204.087 221.57 205.563 213.14C205.962 210.843 205.606 204.781 208.161 203.816C209.978 203.132 212.356 203.582 212.403 206.046Z" fill="#17292F"/>
<path d="M792.337 118.879C790.985 117.929 785.259 115.066 783.489 114.507C782.067 114.058 780.267 114.222 778.774 114.277C777.72 114.246 776.708 114.488 775.743 114.992C774.103 115.918 772.724 115.984 771.606 115.179C770.681 114.515 769.61 114.109 768.481 114.312C764.599 115.007 759.341 117.347 760.646 122.019C758.903 124.097 758.044 126.222 757.849 128.265L758.106 128.34C760.208 129.054 762.415 128.73 764.563 128.949C767.208 129.215 769.724 129.718 771.954 131.195C773.349 132.121 774.771 132.754 776.228 133.101L775.911 133.363L775.368 133.816L774.146 134.855C768.2 139.894 762.692 145.386 757.517 151.254C748.38 161.597 740.384 173.015 733.958 185.285C733.149 186.816 732.208 188.277 731.517 189.867L727.22 199.328L726.138 201.691L725.239 204.125L721.743 213.91C721.118 215.523 720.689 217.203 720.243 218.875L718.927 223.898C718.126 227.265 717.036 230.55 716.575 233.984L714.903 244.207C714.263 247.59 714.208 251.062 713.946 254.488C713.735 257.918 713.56 261.351 713.419 264.769C713.329 266.859 714.79 268.75 716.899 269.148C719.228 269.586 721.458 268.054 721.896 265.734L721.97 265.367C722.579 262.121 723.146 258.886 723.681 255.656C724.267 252.433 724.567 249.172 725.474 246.015C727.017 239.664 728.247 233.269 730.364 227.101C733.927 214.597 739.071 202.613 744.927 191.062C750.751 179.449 757.954 168.554 765.919 158.25C767.833 155.601 770.071 153.234 772.091 150.66C774.185 148.144 776.446 145.8 778.614 143.343C781.341 140.414 784.235 137.55 787.165 134.816L791.884 130.57L791.997 130.465C792.216 130.281 792.435 130.078 792.653 129.89L792.833 129.734C794.024 129.84 795.138 129.613 796.161 128.777C796.372 128.609 796.524 128.558 796.638 128.558C796.11 124.836 793.677 119.82 792.337 118.879ZM602.235 114.375C600.95 114.621 600.896 115.211 599.274 115.261C597.829 115.3 597.009 114.781 595.735 114.465C593.864 114.004 591.267 112.816 589.392 113.355C587.169 113.988 587.446 115.859 586.165 117.07C583.966 119.164 580.981 118.086 578.939 120.082C578.095 120.898 577.048 125.433 576.763 128.715L577.005 128.859C578.314 129.922 579.747 130.019 581.314 129.672C582.181 129.468 583.009 129.613 583.829 130.058C585.743 131.097 587.739 131.941 589.79 132.679C593.872 134.14 597.634 133.648 601.212 131.269C603.442 129.793 605.958 129.289 608.603 129.023C610.751 128.8 612.958 129.129 615.06 128.414C615.333 128.316 615.56 128.285 615.692 128.461L615.927 128.363C615.603 126.215 614.239 124.136 612.521 122.093C614.005 116.808 605.794 113.687 602.235 114.375ZM698.626 128.64L698.591 128.617C698.817 125.793 717.153 133.015 718.708 133.191C720.735 133.437 734.454 129.59 737.47 129.183C737.47 126.367 737.024 122.375 736.481 121.355C734.931 118.441 732.2 119.422 729.942 117.785C728.474 116.722 727.825 114.613 726.384 113.808C723.86 112.406 721.849 113.539 719.259 114.215C717.872 114.578 716.583 115.121 715.122 115.097C713.435 115.066 713.13 114.172 711.798 114.004C708.196 113.539 700.45 116.875 701.868 121.937C699.997 124.16 698.575 126.343 698.423 128.64H698.626ZM666.423 132.988C668.481 132.257 670.478 131.414 672.384 130.375C673.204 129.929 674.028 129.785 674.899 129.98C676.446 130.328 677.876 130.23 679.173 129.191C679.001 128.144 678.712 126.922 678.192 125.621L678.376 125.183C678.946 123.375 678.669 121.726 677.274 120.386C676.114 119.269 674.735 118.91 673.267 119.246C672.353 118.554 671.263 117.929 670.048 117.386L669.989 117.144C669.478 114.093 666.04 112.461 663.372 114.066C662.626 114.515 661.935 114.691 661.083 114.691C660.239 114.683 659.454 114.953 658.79 115.382C657.524 115.465 656.329 115.632 655.212 115.886C653.458 113.425 649.946 113.25 648.099 115.82C647.657 116.422 647.189 116.746 646.517 116.988C644.228 117.824 643.075 120.218 643.692 122.41C642.704 123.593 640.888 126.254 640.165 128.511L640.755 128.656L641.153 128.722C643.255 129.437 645.462 129.117 647.618 129.332C650.255 129.597 652.771 130.109 655.001 131.586C658.587 133.953 662.341 134.457 666.423 132.988ZM724.849 144.172C725.993 142.863 726.017 140.882 724.833 139.547C723.56 138.093 721.345 137.957 719.892 139.238C708.755 149.047 699.817 160.715 692.192 173.09C684.528 185.453 678.165 198.605 673.017 212.238C667.954 225.902 664.239 240.117 662.267 254.632C660.298 269.125 660.079 283.957 662.317 298.441C662.634 300.535 664.466 302.117 666.649 302.074C669.017 302.019 670.899 300.062 670.841 297.687V297.613C670.552 283.769 671.646 270.027 674.013 256.461C674.653 253.074 675.142 249.675 676.017 246.324C676.86 242.98 677.478 239.59 678.501 236.289C679.458 232.968 680.325 229.625 681.356 226.332L684.657 216.5C689.345 203.476 695.064 190.8 701.634 178.582C708.255 166.41 715.755 154.597 724.735 144.3L724.849 144.172ZM719.587 278.843C719.286 277.984 718.669 277.222 717.802 276.754C715.935 275.746 713.606 276.445 712.603 278.308C711.435 280.476 710.735 282.683 710.11 284.89C709.536 287.105 709.138 289.336 708.876 291.578C708.61 293.816 708.497 296.062 708.61 298.328C708.724 300.597 708.993 302.879 709.755 305.191C710.126 306.312 710.923 307.3 712.056 307.879C714.337 309.047 717.126 308.136 718.294 305.847C719.399 303.683 720.017 301.468 720.478 299.242C720.931 297.019 721.165 294.781 721.247 292.527C721.337 290.269 721.271 288.007 721.044 285.734C720.771 283.453 720.411 281.168 719.587 278.843ZM340.099 137.55C328.165 145.093 318.024 154.343 308.876 164.73C299.743 175.078 291.743 186.484 285.31 198.761C284.501 200.285 283.567 201.754 282.876 203.343L280.72 208.074L278.571 212.804L277.501 215.168L276.599 217.601L273.103 227.386C272.478 229 272.048 230.679 271.603 232.351L270.286 237.367C269.478 240.734 268.392 244.027 267.935 247.461L266.267 257.675C265.622 261.066 265.567 264.531 265.306 267.957C265.095 271.39 264.919 274.82 264.771 278.246C264.692 280.332 266.149 282.222 268.259 282.617C270.579 283.058 272.817 281.531 273.259 279.203L273.321 278.843C273.931 275.601 274.497 272.363 275.04 269.125C275.618 265.902 275.927 262.64 276.825 259.492C278.368 253.14 279.599 246.738 281.724 240.582C285.278 228.07 290.423 216.093 296.278 204.531C302.11 192.925 309.306 182.031 317.278 171.718C319.192 169.07 321.431 166.703 323.45 164.129C325.536 161.625 327.798 159.269 329.974 156.82C334.396 152.066 339.228 147.449 344.017 143.367L344.235 143.172C345.54 142.062 345.864 140.129 344.923 138.636C343.892 137.007 341.728 136.519 340.099 137.55ZM259.677 166.711C261.294 168.14 261.575 170.507 260.431 172.261L260.399 172.308C253.692 182.636 247.567 193.211 242.368 204.222L238.661 212.562C237.556 215.394 236.372 218.195 235.333 221.05C234.345 223.922 233.216 226.746 232.325 229.652C231.474 232.562 230.517 235.453 229.712 238.382C226.427 250.082 224.196 262.097 222.923 274.269C221.649 286.441 221.325 298.742 221.423 311.164V311.226C221.439 313.168 219.884 314.75 217.942 314.765C216.185 314.781 214.731 313.507 214.446 311.836C212.337 299.226 211.528 286.351 212.021 273.457C212.478 260.566 214.462 247.687 217.747 235.144C221.052 222.609 225.716 210.406 231.724 198.929C237.751 187.465 245.087 176.707 253.618 167.074C255.192 165.3 257.911 165.136 259.677 166.711Z" fill="white"/>
</svg>