<svg width="834" height="175" viewBox="0 0 834 175" fill="none" xmlns="http://www.w3.org/2000/svg">
<g clip-path="url(#clip0_319_92)">
<path d="M542.402 129.496C535.537 129.655 528.711 128.414 522.342 125.847C515.973 123.281 510.194 119.444 505.358 114.57C500.522 109.696 496.731 103.887 494.216 97.4993C491.701 91.1114 490.515 84.2779 490.73 77.4163C490.552 70.5992 491.763 63.817 494.287 57.4817C496.812 51.1463 500.598 45.39 505.416 40.5622C510.216 35.653 515.979 31.7881 522.344 29.2098C528.708 26.6315 535.537 25.3953 542.402 25.5788C549.276 25.4095 556.101 26.7813 562.376 29.5936C568.651 32.406 574.216 36.5874 578.663 41.8309L569.779 50.7122C566.52 46.5942 562.354 43.2846 557.605 41.0418C552.856 38.7991 547.653 37.6838 542.402 37.783C537.284 37.6581 532.194 38.5797 527.444 40.4913C522.695 42.4028 518.387 45.2641 514.783 48.8997C511.102 52.6522 508.227 57.1176 506.335 62.0216C504.444 66.9256 503.576 72.1645 503.784 77.4163C503.559 82.6882 504.419 87.9501 506.311 92.8761C508.203 97.8021 511.087 102.287 514.783 106.054C518.378 109.701 522.685 112.57 527.436 114.482C532.188 116.395 537.282 117.31 542.402 117.171C548.211 117.142 553.94 115.815 559.168 113.285C564.397 110.755 568.993 107.087 572.619 102.55L581.926 111.612C577.215 117.242 571.284 121.726 564.581 124.723C557.625 127.914 550.055 129.543 542.402 129.496V129.496ZM605.073 27.8143V127.321H592.26V27.8143H605.073ZM616.072 93.2455C615.932 88.4762 616.736 83.7263 618.437 79.2682C620.138 74.8101 622.702 70.7315 625.983 67.2663C629.23 63.9026 633.143 61.2521 637.471 59.4837C641.8 57.7154 646.45 56.8679 651.124 56.9955C655.781 56.8625 660.414 57.7079 664.724 59.4771C669.034 61.2462 672.924 63.8999 676.144 67.2663C679.458 70.711 682.048 74.7846 683.761 79.2467C685.473 83.7088 686.274 88.4688 686.116 93.2455C686.291 98.0242 685.499 102.789 683.785 107.254C682.071 111.718 679.472 115.79 676.144 119.225C672.933 122.603 669.045 125.265 664.733 127.035C660.421 128.805 655.783 129.644 651.124 129.496C646.448 129.638 641.794 128.798 637.463 127.028C633.132 125.259 629.221 122.6 625.983 119.225C622.702 115.76 620.138 111.681 618.437 107.223C616.736 102.765 615.932 98.0148 616.072 93.2455V93.2455ZM628.884 93.2455C628.59 99.7796 630.893 106.165 635.29 111.008C637.324 113.166 639.778 114.885 642.501 116.06C645.224 117.235 648.158 117.842 651.124 117.842C654.09 117.842 657.024 117.235 659.747 116.06C662.47 114.885 664.924 113.166 666.958 111.008C671.355 106.165 673.658 99.7796 673.364 93.2455C673.646 86.7495 671.342 80.4064 666.958 75.6038C664.943 73.4141 662.495 71.666 659.77 70.4704C657.044 69.2747 654.1 68.6573 651.124 68.6573C648.148 68.6573 645.204 69.2747 642.478 70.4704C639.753 71.666 637.305 73.4141 635.29 75.6038C630.905 80.4064 628.602 86.7495 628.884 93.2455V93.2455ZM756.824 127.321H744.737V117.835H744.133C741.972 121.381 738.878 124.265 735.189 126.173C731.355 128.345 727.025 129.489 722.618 129.496C719.084 129.724 715.542 129.208 712.221 127.98C708.899 126.752 705.874 124.839 703.339 122.366C698.551 116.704 696.146 109.405 696.631 102.006V59.2913H709.383V101.221C709.116 103.49 709.371 105.791 710.127 107.948C710.883 110.105 712.12 112.062 713.746 113.669C715.371 115.276 717.341 116.492 719.507 117.225C721.673 117.957 723.977 118.186 726.244 117.896C728.692 117.938 731.116 117.415 733.328 116.367C735.54 115.319 737.479 113.774 738.996 111.854C742.443 107.704 744.268 102.445 744.133 97.0518V59.2913H756.945L756.824 127.321ZM800.096 129.496C795.746 129.495 791.448 128.555 787.495 126.741C783.541 124.926 780.027 122.28 777.191 118.983C770.842 111.926 767.389 102.736 767.521 93.2455C767.314 83.8044 770.681 74.6334 776.949 67.5684C779.763 64.2415 783.272 61.571 787.229 59.7444C791.186 57.9179 795.495 56.9796 799.854 56.9955C804.621 56.9147 809.334 58.0148 813.573 60.1976C817.456 62.1114 820.753 65.0326 823.121 68.6559H823.665L823.363 59.2913V27.8143H836.115V127.321H824.028V117.835H823.484C821.116 121.458 817.818 124.38 813.935 126.293C809.66 128.496 804.903 129.596 800.096 129.496V129.496ZM802.211 117.835C805.128 117.929 808.028 117.364 810.697 116.182C813.365 115 815.732 113.232 817.622 111.008C821.849 106.086 824.013 99.7234 823.665 93.2455C823.957 86.8122 821.797 80.5075 817.622 75.6038C815.738 73.365 813.375 71.5782 810.708 70.3756C808.04 69.1729 805.136 68.5852 802.211 68.6559C799.289 68.6109 796.394 69.2101 793.73 70.411C791.066 71.6118 788.7 73.3849 786.8 75.6038C782.624 80.5075 780.464 86.8122 780.756 93.2455C780.421 99.685 782.586 106.005 786.8 110.887C788.7 113.106 791.066 114.879 793.73 116.08C796.394 117.281 799.289 117.88 802.211 117.835V117.835Z" fill="#5F6368"/>
<path d="M57.3526 129.495C42.3142 129.544 27.8619 123.668 17.1268 113.14C6.39169 102.611 0.238372 88.2786 0 73.2466C0.238372 58.2145 6.39169 43.8817 17.1268 33.3534C27.8619 22.825 42.3142 16.9491 57.3526 16.9987C64.5184 16.8794 71.6359 18.1913 78.2879 20.8575C84.94 23.5238 90.9927 27.4907 96.0913 32.5258L85.1526 43.3403C77.6943 36.1609 67.7056 32.2101 57.3526 32.3445C51.9921 32.3281 46.6818 33.3775 41.7307 35.4318C36.7796 37.486 32.2865 40.504 28.5129 44.3102C24.7393 48.1164 21.7606 52.6348 19.7499 57.6025C17.7392 62.5702 16.7367 67.888 16.8009 73.2466C16.7367 78.6052 17.7392 83.923 19.7499 88.8907C21.7606 93.8584 24.7393 98.3768 28.5129 102.183C32.2865 105.989 36.7796 109.007 41.7307 111.061C46.6818 113.116 51.9921 114.165 57.3526 114.149C62.6333 114.365 67.9008 113.472 72.8144 111.526C77.728 109.58 82.1784 106.624 85.8778 102.851C90.8091 97.5335 93.7733 90.6903 94.2783 83.457H57.3526V68.1716H109.327C109.893 71.3414 110.156 74.5581 110.112 77.7778C110.521 91.0365 105.703 103.925 96.6956 113.665C91.6264 118.93 85.5 123.062 78.7191 125.79C71.9382 128.518 64.6564 129.781 57.3526 129.495Z" fill="#4285F4"/>
<path d="M190.49 93.2444C190.689 98.0771 189.908 102.9 188.195 107.423C186.482 111.947 183.872 116.077 180.522 119.567C177.171 123.056 173.15 125.833 168.7 127.73C164.249 129.626 159.461 130.604 154.622 130.604C149.784 130.604 144.996 129.626 140.545 127.73C136.095 125.833 132.073 123.056 128.723 119.567C125.373 116.077 122.763 111.947 121.05 107.423C119.337 102.9 118.556 98.0771 118.754 93.2444C118.556 88.4118 119.337 83.5888 121.05 79.0654C122.763 74.542 125.373 70.4115 128.723 66.9219C132.073 63.4324 136.095 60.6558 140.545 58.7592C144.996 56.8625 149.784 55.8848 154.622 55.8848C159.461 55.8848 164.249 56.8625 168.7 58.7592C173.15 60.6558 177.171 63.4324 180.522 66.9219C183.872 70.4115 186.482 74.542 188.195 79.0654C189.908 83.5888 190.689 88.4118 190.49 93.2444V93.2444ZM174.777 93.2444C175.044 90.4378 174.721 87.6065 173.829 84.9319C172.938 82.2574 171.497 79.7985 169.6 77.7129C167.702 75.6273 165.39 73.9611 162.811 72.8209C160.231 71.6807 157.442 71.0917 154.622 71.0917C151.802 71.0917 149.013 71.6807 146.434 72.8209C143.855 73.9611 141.543 75.6273 139.645 77.7129C137.748 79.7985 136.307 82.2574 135.415 84.9319C134.524 87.6065 134.201 90.4378 134.467 93.2444C134.201 96.051 134.524 98.8823 135.415 101.557C136.307 104.232 137.748 106.69 139.645 108.776C141.543 110.862 143.855 112.528 146.434 113.668C149.013 114.808 151.802 115.397 154.622 115.397C157.442 115.397 160.231 114.808 162.811 113.668C165.39 112.528 167.702 110.862 169.6 108.776C171.497 106.69 172.938 104.232 173.829 101.557C174.721 98.8823 175.044 96.051 174.777 93.2444V93.2444Z" fill="#EA4335"/>
<path d="M270.929 93.2444C271.128 98.0771 270.347 102.9 268.634 107.423C266.921 111.947 264.311 116.077 260.96 119.567C257.61 123.056 253.589 125.833 249.138 127.73C244.688 129.626 239.899 130.604 235.061 130.604C230.223 130.604 225.435 129.626 220.984 127.73C216.533 125.833 212.512 123.056 209.162 119.567C205.812 116.077 203.202 111.947 201.488 107.423C199.775 102.9 198.995 98.0771 199.193 93.2444C198.995 88.4118 199.775 83.5888 201.488 79.0654C203.202 74.542 205.812 70.4115 209.162 66.9219C212.512 63.4324 216.533 60.6558 220.984 58.7592C225.435 56.8625 230.223 55.8848 235.061 55.8848C239.899 55.8848 244.688 56.8625 249.138 58.7592C253.589 60.6558 257.61 63.4324 260.96 66.9219C264.311 70.4115 266.921 74.542 268.634 79.0654C270.347 83.5888 271.128 88.4118 270.929 93.2444V93.2444ZM255.216 93.2444C255.432 90.4632 255.07 87.6674 254.153 85.0327C253.236 82.3979 251.785 79.9811 249.889 77.9338C247.994 75.8865 245.695 74.2531 243.139 73.136C240.582 72.0188 237.821 71.4422 235.031 71.4422C232.24 71.4422 229.48 72.0188 226.923 73.136C224.366 74.2531 222.068 75.8865 220.173 77.9338C218.277 79.9811 216.826 82.3979 215.909 85.0327C214.992 87.6674 214.63 90.4632 214.846 93.2444C214.63 96.0257 214.992 98.8214 215.909 101.456C216.826 104.091 218.277 106.508 220.173 108.555C222.068 110.602 224.366 112.236 226.923 113.353C229.48 114.47 232.24 115.047 235.031 115.047C237.821 115.047 240.582 114.47 243.139 113.353C245.695 112.236 247.994 110.602 249.889 108.555C251.785 106.508 253.236 104.091 254.153 101.456C255.07 98.8214 255.432 96.0257 255.216 93.2444V93.2444Z" fill="#FBBC04"/>
<path d="M349.313 59.2904V124.299C349.313 151.003 333.419 161.999 314.684 161.999C307.789 162.037 301.039 160.023 295.292 156.215C289.545 152.406 285.062 146.975 282.412 140.611L296.372 134.57C297.779 138.274 300.252 141.479 303.478 143.78C306.705 146.081 310.541 147.375 314.503 147.499C326.59 147.499 333.963 140.068 333.963 126.232V121.036H333.6C331.183 123.763 328.201 125.932 324.861 127.393C321.522 128.853 317.905 129.57 314.261 129.495C304.644 129.495 295.421 125.675 288.621 118.877C281.82 112.079 278 102.859 278 93.2446C278 83.6305 281.82 74.4102 288.621 67.612C295.421 60.8138 304.644 56.9946 314.261 56.9946C317.892 56.9275 321.496 57.6366 324.832 59.0745C328.167 60.5123 331.156 62.6458 333.6 65.3321H334.144V59.2904H349.313ZM335.232 93.4863C335.454 90.7471 335.122 87.9913 334.256 85.383C333.391 82.7747 332.009 80.3672 330.193 78.3039C328.377 76.2406 326.165 74.5637 323.687 73.3732C321.21 72.1826 318.518 71.5026 315.772 71.3738C312.983 71.4742 310.241 72.1285 307.708 73.2987C305.174 74.4689 302.899 76.1314 301.015 78.1895C299.13 80.2477 297.675 82.6601 296.732 85.2863C295.79 87.9126 295.38 90.7 295.526 93.4863C295.397 96.2536 295.82 99.019 296.772 101.621C297.724 104.223 299.185 106.609 301.07 108.639C302.955 110.67 305.226 112.305 307.75 113.448C310.275 114.591 313.002 115.219 315.772 115.297C318.507 115.2 321.194 114.549 323.67 113.385C326.147 112.22 328.361 110.566 330.18 108.521C331.999 106.477 333.385 104.086 334.253 101.491C335.121 98.8964 335.454 96.1527 335.232 93.4258V93.4863Z" fill="#4285F4"/>
<path d="M377.295 20.8647V127.319H361.34V20.8647H377.295Z" fill="#34A853"/>
<path d="M440.147 105.207L452.597 113.665C449.273 118.624 444.776 122.686 439.504 125.489C434.233 128.293 428.35 129.752 422.379 129.736C417.63 129.804 412.915 128.908 408.522 127.102C404.129 125.295 400.148 122.617 396.82 119.228C393.492 115.839 390.887 111.81 389.162 107.386C387.437 102.961 386.628 98.2325 386.783 93.4862C386.076 85.3265 388.397 77.1919 393.303 70.633C398.21 64.0741 405.359 59.5495 413.389 57.9217C421.418 56.2939 429.766 57.6768 436.84 61.8067C443.915 65.9366 449.223 72.5248 451.751 80.3153L453.382 84.4841L405.035 104.482C406.541 107.867 409.027 110.724 412.172 112.684C415.318 114.643 418.978 115.617 422.682 115.478C426.228 115.397 429.694 114.411 432.751 112.614C435.808 110.816 438.354 108.266 440.147 105.207V105.207ZM402.013 92.157L434.527 78.7445C433.226 76.3384 431.254 74.3613 428.851 73.053C426.448 71.7447 423.717 71.1614 420.989 71.3737C418.378 71.49 415.814 72.1202 413.446 73.2281C411.078 74.3361 408.952 75.9001 407.189 77.8306C405.427 79.761 404.062 82.0201 403.174 84.4784C402.286 86.9367 401.891 89.5461 402.013 92.157V92.157Z" fill="#EA4335"/>
</g>
<defs>
<clipPath id="clip0_319_92">
<rect width="834" height="175" fill="white"/>
</clipPath>
</defs>
</svg>