<svg width="2343" height="2343" viewBox="0 0 2343 2343" fill="none" xmlns="http://www.w3.org/2000/svg">
<rect x="343" y="752" width="742" height="660" fill="black"/>
<path d="M2015.8 404.991L1777.84 642.952L1899.11 764.221C1942.13 807.237 1942.13 876.794 1899.11 919.353L1819.49 998.978C1873.48 1118.42 1903.69 1251.13 1903.69 1390.7C1903.69 1916.5 1477.65 2342.54 951.844 2342.54C426.042 2342.54 0 1916.96 0 1391.16C0 865.354 426.042 439.312 951.844 439.312C1091.42 439.312 1224.13 469.515 1343.56 523.514L1423.19 443.889C1466.21 400.873 1535.76 400.873 1578.32 443.889L1699.59 565.157L1937.55 327.196L2015.8 404.991ZM2288.09 274.57H2178.26C2148.06 274.57 2123.34 299.282 2123.34 329.484C2123.34 359.687 2148.06 384.398 2178.26 384.398H2288.09C2318.29 384.398 2343 359.687 2343 329.484C2343 299.282 2318.29 274.57 2288.09 274.57ZM2013.52 0C1983.31 0 1958.6 24.7113 1958.6 54.9141V164.742C1958.6 194.945 1983.31 219.656 2013.52 219.656C2043.72 219.656 2068.43 194.945 2068.43 164.742V54.9141C2068.43 24.7113 2043.72 0 2013.52 0ZM2168.65 251.689L2246.44 173.895C2267.95 152.387 2267.95 117.608 2246.44 96.0996C2224.93 74.5916 2190.16 74.5916 2168.65 96.0996L2090.85 173.895C2069.34 195.403 2069.34 230.181 2090.85 251.689C2112.82 273.197 2147.6 273.197 2168.65 251.689ZM1858.38 251.689C1879.89 273.197 1914.67 273.197 1936.18 251.689C1957.69 230.181 1957.69 195.403 1936.18 173.895L1858.38 96.0996C1836.88 74.5916 1802.1 74.5916 1780.59 96.0996C1759.08 117.608 1759.08 152.387 1780.59 173.895L1858.38 251.689ZM2168.65 407.279C2147.14 385.771 2112.36 385.771 2090.85 407.279C2069.34 428.787 2069.34 463.566 2090.85 485.074L2168.65 562.869C2190.16 584.377 2224.93 584.377 2246.44 562.869C2267.95 541.361 2267.95 506.582 2246.44 485.074L2168.65 407.279ZM512.531 1244.72C512.531 1083.18 643.867 951.844 805.406 951.844C845.677 951.844 878.625 918.895 878.625 878.625C878.625 838.355 845.677 805.406 805.406 805.406C563.327 805.406 366.094 1002.64 366.094 1244.72C366.094 1284.99 399.042 1317.94 439.312 1317.94C479.583 1317.94 512.531 1284.99 512.531 1244.72Z" fill="white"/>
</svg>
