<svg width="1457" height="1857" viewBox="0 0 1457 1857" fill="none" xmlns="http://www.w3.org/2000/svg">
<rect x="28.4106" y="333.234" width="1260.52" height="874.649" transform="rotate(-11 28.4106 333.234)" fill="#FF4343"/>
<path d="M1429.22 142.73C1325.18 46.6974 1215.53 0 1093.99 0C950.667 0 819.852 65.6486 693.321 129.17C579.5 186.307 472.005 240.267 368.993 240.267C291.202 240.267 221.383 209.287 149.266 142.73C124.442 119.807 88.3833 113.765 57.403 127.325C28.3803 140.035 9.23041 167.753 6.90405 198.989C2.73363 209.032 0.378906 220.039 0.378906 231.586V1771.89C0.378906 1818.9 38.4801 1857 85.4895 1857C132.499 1857 170.6 1818.9 170.6 1771.89V1271.18C233.639 1302.39 299.287 1318.28 368.965 1318.28C368.965 1318.28 368.993 1318.28 369.021 1318.28C512.319 1318.25 643.134 1252.63 769.665 1189.11C883.515 1131.97 991.038 1078.04 1094.05 1078.04C1171.84 1078.04 1241.66 1109.02 1313.75 1175.58C1338.57 1198.56 1374.63 1204.6 1405.61 1191.01C1436.59 1177.45 1456.59 1146.84 1456.59 1113.05V205.258C1456.59 181.484 1446.66 158.845 1429.22 142.73ZM1286.37 951.366C1225.21 922.202 1161.46 907.846 1094.05 907.846C950.724 907.846 819.881 973.495 693.321 1037.02C579.5 1094.13 472.005 1148.06 369.021 1148.09H368.993C301.103 1148.09 239.284 1124.45 176.7 1074.18V366.94C237.866 396.133 301.614 410.488 369.021 410.488C512.348 410.488 643.191 344.84 769.694 281.319C883.515 224.181 991.038 170.221 1094.02 170.221C1161.97 170.221 1223.79 193.854 1286.37 244.126V951.366Z" fill="white"/>
</svg>
