<svg width="115" height="115" viewBox="0 0 115 115" fill="none" xmlns="http://www.w3.org/2000/svg">
<path fill-rule="evenodd" clip-rule="evenodd" d="M57.5 115C89.2564 115 115 89.2564 115 57.5C115 25.7436 89.2564 0 57.5 0C25.7436 0 0 25.7436 0 57.5C0 89.2564 25.7436 115 57.5 115ZM71.2995 22.2788C67.5793 26.7815 67.5122 89.8045 71.2239 93.517C80.4901 102.786 84.2461 91.6164 84.2461 54.7889C84.2461 22.2891 80.0325 11.7091 71.2995 22.2788ZM34.4809 22.9605C30.7031 27.5038 29.6725 83.6072 33.2411 90.4643C41.5967 106.519 47.9513 92.5128 47.9513 58.0405C47.9513 24.3831 43.3223 12.3288 34.4809 22.9605Z" fill="white"/>
</svg>