<svg width="114" height="114" viewBox="0 0 114 114" fill="none" xmlns="http://www.w3.org/2000/svg">
<path fill-rule="evenodd" clip-rule="evenodd" d="M57 114C88.4802 114 114 88.4802 114 57C114 25.5198 88.4802 0 57 0C25.5198 0 0 25.5198 0 57C0 88.4802 25.5198 114 57 114ZM40.3467 19.7458C30.5545 26.4 32.2151 86.1254 42.4299 94.6598C45.3612 97.1093 50.0899 96.6259 54.0237 93.4753C55.8879 91.9823 58.5058 90.069 59.8411 89.2235C61.1764 88.3784 67.259 82.8156 73.3584 76.8621C90.5116 60.1189 91.9495 55.0794 82.0521 46.3857C78.0461 42.8673 67.0406 32.6997 64.4277 30.1031C59.3779 25.0856 53.6801 21.0036 49.5195 19.4221C46.3537 18.2189 44.9921 17.6938 43.7571 17.906C42.8027 18.0699 41.924 18.6741 40.3467 19.7458Z" fill="white"/>
</svg>