<svg width="19" height="19" viewBox="0 0 19 19" fill="none" xmlns="http://www.w3.org/2000/svg">
<path d="M18.0999 0H15.3153V18.1H18.0999V0Z" fill="white"/>
<path d="M3.82885 9.05001C5.94346 9.05001 7.65769 7.17994 7.65769 4.87309C7.65769 2.56624 5.94346 0.696167 3.82885 0.696167C1.71423 0.696167 0 2.56624 0 4.87309C0 7.17994 1.71423 9.05001 3.82885 9.05001Z" fill="white"/>
<path d="M3.82885 17.4038C5.94346 17.4038 7.65769 15.5338 7.65769 13.2269C7.65769 10.9201 5.94346 9.04999 3.82885 9.04999C1.71423 9.04999 0 10.9201 0 13.2269C0 15.5338 1.71423 17.4038 3.82885 17.4038Z" fill="white"/>
<path d="M6.29273 16.7077L15.3154 9.15005L6.20785 1.39227L0 4.76315V13.3966" fill="white"/>
</svg>