<svg width="434" height="116" viewBox="0 0 434 116" fill="none" xmlns="http://www.w3.org/2000/svg">
<g clip-path="url(#clip0_407_111)">
<path class="syrup-blob-path" d="M92.15 23.0779C129.33 10.0774 148.492 -4.01658 168.798 1.45092C188.818 7.03992 209.696 32.0689 250.022 35.8354C290.348 39.6019 350.408 21.8629 388.732 22.4704C427.056 22.9564 443.644 41.7889 428.772 55.8829C413.9 70.0984 367.282 79.5754 336.68 90.2674C306.364 101.081 291.778 112.866 270.614 115.539C249.45 118.091 221.708 111.53 194.538 106.67C167.368 101.81 140.77 98.6509 99.3 91.3609C57.544 83.9494 0.91601 72.1639 0.34401 60.2569C-0.22799 48.3499 54.97 36.1999 92.15 23.0779Z" fill="#503918"/>
</g>
<defs>
<clipPath id="clip0_407_111">
<rect width="116" height="434" fill="white" transform="translate(0 116) rotate(-90)"/>
</clipPath>
</defs>
</svg>