<svg width="445" height="123" viewBox="0 0 445 123" fill="none" xmlns="http://www.w3.org/2000/svg">
<g clip-path="url(#clip0_319_67)">
<path d="M115.85 97.13V35.13H93V21.21H155.57V35.21H132.57V97.21L115.85 97.13Z" fill="#0063A3"/>
<path d="M141.9 97.1298V42.7398H158.42V51.5798H158.52C161.52 46.9598 166.73 41.3198 176.99 41.3198H177.5V55.9998C176.89 55.8898 174.01 55.6898 172.99 55.6898C170.146 55.7181 167.348 56.4099 164.818 57.7102C162.289 59.0105 160.098 60.8834 158.42 63.1798V97.1798L141.9 97.1298Z" fill="#0063A3"/>
<path d="M182.72 35.0002V21.7202H199.34V35.0002H182.72ZM182.83 97.1702V42.4402H199.24V97.1302L182.83 97.1702Z" fill="#0063A3"/>
<path d="M205.7 97.1298V42.4398H222.21V51.0598C225.5 46.7498 231.55 41.3198 240.21 41.3198C249.34 41.3198 253.65 45.1098 255.21 51.0598C258.49 46.8598 264.65 41.3198 273.21 41.3198C284.29 41.3198 289.21 48.3198 289.21 58.0398V97.1298H272.69V62.4498C272.69 57.5298 271.56 54.9598 266.74 54.9598C262.64 54.9598 259.35 57.2198 255.74 60.3998V97.1298H239.25V62.4498C239.25 57.5298 238.12 54.9598 233.25 54.9598C229.15 54.9598 225.87 57.2198 222.17 60.3998V97.1298H205.7Z" fill="#0063A3"/>
<path d="M312 90.66V97.13H295.45V21.21H312V50.86C315.59 45.86 320.72 41.32 328.82 41.32C341.24 41.32 349.82 50.86 349.82 69.73C349.82 88.6 341.11 98 328.59 98C321.2 98 316.07 95.28 312 90.66ZM333.34 69.84C333.34 60.71 330.16 54.96 322.77 54.96C318.56 54.96 314.77 57.53 312 60.3V80.51C315.59 83.89 318.56 85.51 323 85.51C329.82 85.53 333.31 79.79 333.31 69.84H333.34Z" fill="#0063A3"/>
<path d="M354.94 97.13V21.21H371.35V97.13H354.94Z" fill="#0063A3"/>
<path d="M376.47 69.8398C376.47 48.5998 392.68 41.3198 403.96 41.3198C415.24 41.3198 429.1 46.9998 429.1 71.7898V74.2498H392.88C393.71 83.2498 398.73 86.7598 405.61 86.7598C411.624 86.5816 417.375 84.2543 421.82 80.1998L428.18 90.0498C421.82 95.4898 413.92 98.2598 404.38 98.2598C390.11 98.2598 376.47 90.9998 376.47 69.8398ZM414.33 64.4998C413.51 56.8098 410.02 53.1098 403.86 53.1098C398.73 53.1098 394.32 56.4998 393.09 64.4998H414.33Z" fill="#0063A3"/>
<path d="M432.22 91.0001C432.211 90.1755 432.366 89.3572 432.678 88.5935C432.989 87.8298 433.45 87.1359 434.033 86.5528C434.616 85.9696 435.31 85.5088 436.073 85.1976C436.837 84.8863 437.655 84.7308 438.48 84.7401C439.718 84.7401 440.929 85.1073 441.958 85.7951C442.987 86.483 443.79 87.4607 444.264 88.6045C444.737 89.7484 444.861 91.0071 444.62 92.2214C444.378 93.4357 443.782 94.5512 442.907 95.4266C442.031 96.3021 440.916 96.8983 439.701 97.1399C438.487 97.3814 437.228 97.2574 436.085 96.7836C434.941 96.3098 433.963 95.5075 433.275 94.478C432.587 93.4486 432.22 92.2383 432.22 91.0001V91.0001ZM443.6 91.0001C443.582 89.9867 443.265 89.0012 442.689 88.1674C442.113 87.3336 441.303 86.6889 440.361 86.3142C439.419 85.9396 438.388 85.8517 437.396 86.0617C436.404 86.2717 435.497 86.7702 434.788 87.4945C434.079 88.2188 433.6 89.1365 433.411 90.1324C433.222 91.1282 433.332 92.1576 433.726 93.0912C434.121 94.0249 434.783 94.821 435.629 95.3795C436.474 95.938 437.467 96.2339 438.48 96.2302C439.162 96.2303 439.837 96.0943 440.465 95.8302C441.094 95.566 441.663 95.179 442.14 94.6919C442.617 94.2047 442.992 93.6272 443.242 92.9933C443.493 92.3593 443.615 91.6817 443.6 91.0001ZM436.05 87.4402H438.61C440.23 87.4402 441.17 88.1401 441.17 89.5401C441.209 89.9692 441.097 90.3985 440.852 90.753C440.607 91.1075 440.245 91.3648 439.83 91.4802L441.31 94.2901H439.88L438.5 91.6701H437.42V94.2901H436.05V87.4402ZM438.53 90.6202C439.37 90.6202 439.83 90.3502 439.83 89.6202C439.83 88.8902 439.37 88.6202 438.5 88.6202H437.42V90.6202H438.53Z" fill="#0063A3"/>
<path d="M6.18994 86.4102V110L26.7099 98.1602C18.8212 96.4552 11.6533 92.3508 6.18994 86.4102V86.4102Z" fill="#0063A3"/>
<path d="M26.5599 21.74L6.18994 10V33.45C11.6282 27.5623 18.7354 23.4766 26.5599 21.74V21.74Z" fill="#0063A3"/>
<path d="M92.8 60.0002L72.29 48.1602C74.7155 55.884 74.6945 64.1687 72.23 71.8802L92.8 60.0002Z" fill="#0063A3"/>
<path d="M19.7 27.9198C22.64 27.2698 28.7499 27.9198 31.9799 28.8098C35.0154 26.6517 38.6266 25.4503 42.3499 25.3598C34.7096 24.0617 26.8579 24.9491 19.7 27.9198V27.9198Z" fill="#0063A3"/>
<path d="M58.7901 70.8401C58.2841 66.3445 57.2054 61.932 55.5801 57.7101C48.5801 60.8901 39.8601 58.8401 34.0501 53.8101C29.7823 58.2678 25.9545 63.127 22.6201 68.3201C32.4701 76.3501 48.6701 78.4601 58.7901 70.8401Z" fill="#0063A3"/>
<path d="M17.2299 69.09C8.54992 60.19 5.51992 47.22 8.29992 37.25C2.60023 43.963 -0.359423 52.5779 0.0112734 61.3763C0.38197 70.1748 4.05577 78.5102 10.2999 84.72C11.8936 79.221 14.2248 73.9632 17.2299 69.09V69.09Z" fill="#0063A3"/>
<path d="M54 53.9402C52.1694 50.0443 49.8142 46.4173 47 43.1602C43.4684 45.4843 40.1247 48.0823 37 50.9302C42.26 55.3002 49.14 56.1602 54 53.9402Z" fill="#0063A3"/>
<path d="M47.47 37.7202C49.831 36.0096 52.3894 34.5894 55.09 33.4902C49.53 27.8702 40.59 28.0202 36.7 30.4902C40.686 32.2503 44.3315 34.6976 47.47 37.7202V37.7202Z" fill="#0063A3"/>
<path d="M20.3999 72C16.0799 79.47 14.4999 85 13.9199 87.87C20.1776 92.5755 27.8323 95.047 35.6601 94.8893C43.488 94.7316 51.0369 91.9538 57.0999 87C58.4913 83.3877 59.1705 79.5403 59.0999 75.67C47.1399 82.79 30.6599 80.07 20.3999 72Z" fill="#0063A3"/>
<path d="M57.3999 51.4499C61.2299 47.4499 60.4599 40.6099 57.5499 36.6699C54.9895 37.723 52.5894 39.13 50.4199 40.8499C53.1649 44.0893 55.5085 47.6484 57.3999 51.4499Z" fill="#0063A3"/>
<path d="M63.9999 42.8501C64.3094 45.1859 64.0285 47.5621 63.183 49.7614C62.3375 51.9607 60.9544 53.9131 59.1599 55.4401C60.6855 59.2303 61.8018 63.1727 62.4899 67.2001C67.7399 60.3801 67.5799 50.6401 63.9999 42.8501Z" fill="#0063A3"/>
<path d="M34.1599 47.9C37.239 45.0591 40.5283 42.455 43.9999 40.11C40.8502 37.2386 37.1765 35.0011 33.1799 33.52C29.9199 37.89 30.9199 43.53 34.1599 47.9Z" fill="#0063A3"/>
<path d="M63.1199 72.6898C63.2437 75.6567 63.0998 78.6288 62.6899 81.5698C68.0963 74.6003 70.7034 65.8623 69.9999 57.0698C69.4687 62.8868 67.053 68.3713 63.1199 72.6898Z" fill="#0063A3"/>
<path d="M29.1001 32.2799C24.5307 31.1589 19.7545 31.1898 15.2001 32.3699C8.31006 42.1399 11.5101 56.4499 19.5301 65.3699C22.9542 60.1601 26.8542 55.2792 31.1801 50.7899C27.1001 45.7199 25.4801 37.8899 29.1001 32.2799Z" fill="#0063A3"/>
</g>
<defs>
<clipPath id="clip0_319_67">
<rect width="445" height="123" fill="white"/>
</clipPath>
</defs>
</svg>