<svg width="234" height="234" viewBox="0 0 234 234" fill="none" xmlns="http://www.w3.org/2000/svg">
<path d="M116.69 231.88C180.308 231.88 231.88 180.308 231.88 116.69C231.88 53.0723 180.308 1.5 116.69 1.5C53.0723 1.5 1.5 53.0723 1.5 116.69C1.5 180.308 53.0723 231.88 116.69 231.88Z" fill="#603913" stroke="#603913" stroke-width="3" stroke-miterlimit="10"/>
<path d="M116.69 230.13C179.341 230.13 230.13 179.341 230.13 116.69C230.13 54.0388 179.341 3.25 116.69 3.25C54.0388 3.25 3.25 54.0388 3.25 116.69C3.25 179.341 54.0388 230.13 116.69 230.13Z" fill="#FBB040" stroke="#603913" stroke-width="3" stroke-miterlimit="10"/>
<path d="M78.8701 9.70996V223.66" stroke="#603913" stroke-width="5" stroke-miterlimit="10"/>
<path d="M116.69 3.25V230.12" stroke="#603913" stroke-width="5" stroke-miterlimit="10"/>
<path d="M154.5 9.70996V223.66" stroke="#603913" stroke-width="5" stroke-miterlimit="10"/>
<path d="M192.31 32.1401V201.23" stroke="#603913" stroke-width="5" stroke-miterlimit="10"/>
<path d="M41.0601 32.1401V201.23" stroke="#603913" stroke-width="5" stroke-miterlimit="10"/>
<path d="M9.70996 154.5H223.66" stroke="#603913" stroke-width="5" stroke-miterlimit="10"/>
<path d="M3.25 116.69H230.12" stroke="#603913" stroke-width="5" stroke-miterlimit="10"/>
<path d="M9.70996 78.8701H223.66" stroke="#603913" stroke-width="5" stroke-miterlimit="10"/>
<path d="M32.1399 41.0601H201.23" stroke="#603913" stroke-width="5" stroke-miterlimit="10"/>
<path d="M32.1399 192.31H201.23" stroke="#603913" stroke-width="5" stroke-miterlimit="10"/>
</svg>